<mxfile host="app.diagrams.net" modified="2023-06-07T01:47:11.405Z" agent="Mozilla/5.0 (Macintosh; Intel Mac OS X 10.15; rv:109.0) Gecko/20100101 Firefox/113.0" etag="QiK1lEKHlu6L8B5i6eaF" version="21.3.7" type="device">
  <diagram name="Page-1" id="Mx0K8bAiIgppUPyoQ8xg">
    <mxGraphModel dx="1183" dy="676" grid="1" gridSize="10" guides="1" tooltips="1" connect="1" arrows="1" fold="1" page="1" pageScale="1" pageWidth="700" pageHeight="700" math="0" shadow="0">
      <root>
        <mxCell id="0" />
        <mxCell id="1" parent="0" />
        <mxCell id="BahWNx85lN9U7c0tWjsk-3" value="" style="shape=image;verticalLabelPosition=bottom;labelBackgroundColor=default;verticalAlign=top;aspect=fixed;imageAspect=0;image=data:image/png,iVBORw0KGgoAAAANSUhEUgAAAgAAAAIACAYAAAD0eNT6AAAABHNCSVQICAgIfAhkiAAAAAlwSFlzAAAOxAAADsQBlSsOGwAAABl0RVh0U29mdHdhcmUAd3d3Lmlua3NjYXBlLm9yZ5vuPBoAACAASURBVHic7N13eFxXmT/w77ltZjRNvYxkSbbl7iSOHfcix70mcRKnkEIKhJJACPyAhWUpC+yyC7vAwhJCgMCyLIQUEvfenTiJnW4njnuRZFld09s9vz9kO+46I907o5l5P8/Dw/M45977Wta9972nvIeBEHIVIzSLs60/GKsB9BrOWTmAYgCFAC8CpEKA2wBYAUgA3BedwAcgCgYfODsF6E0M0kmAH+TgBxmT3wt3njyY5L9UX8AsroqBnMevYWA1AKvh0CsAVgyGEnA4AKgAHBcd1wFABxACWBDQmwHWBKAZQBNj/CS4dIiDH4x4c44AB8NJ/nsRkjZYqgMgpM9wlBZZJDaG69INYHwMgOsAVAKQTb5yO2fYzXRs1xk2xrxlrwN7oiZfM8nGqIqzYbzEMYNLmMo4bgCQa/JFdQDHAbwLjj1MYnuUeGSP3990yuTrEpIWKAEgWctuLyqNyuoMxjGDg90I8AGpjukMLxhWQ8eLEWtkFZqbvakOqEcKC51aSFsICbeCYz4u/ZpPlWMANnPGN6kxZWMgcKI+1QERkgqUAJBswlRX6Q2MS7cCWAxgRKoD6hZHAIy9IHH2+5Dv5FYAPNUhdUOyOsqn6wwPAvw2ALZUByTgQwDLOGN/j3bWvYa+/zMmxBCUAJCMpzjLJzKOOxn4EjBUpjqeXviQg/806pX/BJwMpjqYC1XYVEf8fsbYEwCGpDqaXqjjDC9xjr/EvPU7Ux0MIWaiBIBkJIejpDjKlPs4+EMAhqc6HiMxoIkDP4nkxP8bjY3+lAZTUmLXAvJjDPh/HChMaSzG2w/g90pc/VMgcKwh1cEQYjRKAEhGUZzlEyXoXwbYzeiaRZ6xONAoMfwg3Fn/awCx5F59jGpx1X9e5+ybrGtVRCaLAViuA/8Z89bvSHUwhBiFEgCSCSTNUXYLGPsKgEmpDiYF9ko6vhTy129IxsUsbs8cruNnAIYl43p9zGvg7D8ivroXAcRTHQwhvUEJAElnkuYquxucfQfAoFQHk3rsTxHgCXjrWkw5vdNTqHH8DAz3mHL+9HKIM/69aGfD/4ESAZKmKAEg6YhpjrIlYOyfkQ4z+ZOIA40S8EjYW7/MyPNqTs8tHHgqC7r7E7UPnH0n4qt7AbR6gKQZSgBIWuka48fPAT42WdeUZQbNIkOzSNAsElRFhqIyyIoERWGQJQYmMYABsnThLRXXOcCBWExHLKojGtURCesIh+IIBeMIh035eOSc45dRX85Xe18Jr8aiOgI/YQyPGRPahSxWGVarDIu16+erqhIUVYKiSFf9eXKdI65zxGIc8ZiOWJQjGosjEtYRCemIROKIx5P6Pt6tg30x5q17NZkXJaQ3KAEgacFuLy6JSsqPAHwSJv7eyoqEnBwZthyl6382BYpq3m0Si3EE/VF4vTF4O6OIRgxNCPbIMSwJButP9ORgW56nMh7F38Ew2qiAZBnQLBzFJS7Y7AoUxcSfbZQjGIwhGIghGIwh4I8jHtNNux66egD+qOqxf/D7TzeaeSFCjEAJAOnrJIvL8yjn+D4urbPfa7LEkONU4HCosDtUWG1mV/29ulAwjva2MNrbIohFe/+y4kAjB26NeetfSeQ4xemZzIAXGFDS2xgkGbDaOKxWHcqZdRnFJUW9PW2PhIJx+H1R+HxR+L0x6LopvQQdjOFb4c76X6GrHDEhfRIlAKTPsrj7DYQef4YDU408r6IwOF0aXLka7A4VkmTk2Y3BOYfPG0NzUxB+b69X+IXB+T0RX8MLIo01R/lSMP4nAJbeXFS1cNjtHJrl0pdsqhKA8+k64PdF0dkegbczgljM2GSAgW1lUuyhUEfjYUNPTIhBKAEgfVHXV7+OH4Ehx4gTMgY4XRryCixwOBUwlj6/+sFAHKdPBeDt7NX+QHEO/rmot+HpqzVSHWWfYYz9N3qxAZLFymF3cCjqlV+ofSEBON/ZhKutJQxvZwTcuFzAxzn7WtRX92vQJEHSx6TPU5BkBYejpDgsyX9mHLOMOJ+qSigosiI3T4Oi9sFP/QQE/DGcqg8g4O9xjwBnDI+HO+t/cbn/aHF5vsg5foYePhdUjcPh4lCv8uI/q68lAOeLRXW0t0XQ0hRC1IBhmC5sdQT8fnjrmw06ISG9RgkA6TMUR9k0ibG/APD09lw2m4yCYivcuRak0ce+kLbWMBrrAz3tsuac889FfQ1Pnf+HqqP8s4zxX6EHzwQmAQ6XDptNPJ6+nACcxTlHZ0cUzY0hBIMGFFpkOKFzdietFCB9RWpnPBHShWlOz9cZY39ELyf62WwKKqrsKPXkwGpTMu7lD3T9HfPyLQiHdUQSX0bIGGMLZKvzQDzsfR8ANJfnbgb8Hj14+VusHLn5OjQtsePsDnuil0o6xhisVhn5hRbk2BVEwnFEo73qxXcz4H7F6vLFw95dRsVJSE9l4OORpJcKm+bS/wCOO3pzFqtNQXGpFS53gm+iNNfaEsapukBPZrOHdc7nAIDE2DokOOGPAXDkJvbVf7506AG4HG9HFI2nAggFe71c848Rb94jwN6IEXER0hOUAJCUsduLSqOS+hKA8T09hyIzFJXlIL9AS6uJfUYKBmM4fsTfkxoCrWf+Pz+Rg2QZcOfpV53k1510TQDOam0O4fSpYK9WDjBgWxjsVtNKNxPSjex8YpKU0+wV14DpK8BQ2dNz5BdYUFyWY2oxmXQRi3EcP+xFIGDupoCqxuHO03u9dDLdEwCg62d++lQAbS0R8J4vGzjAmLQw3HnygJGxESKCnpwk6VRX6VjGpTVI8Mvz3PGajIpKO+wOxeDI0pvOOU4c8fV2ueAVaRYOd75uyEMjExKAswKBGOqO+xEO9WxYgAOnobM5UX/dOwaHRshV0SRAklSKo7RWgrQGQG5Pjs8vsKJqgAMWC/3qXowxBneuhkhE7/HL6EosVg53HjdsUmU6TAIUpaoS8vKt4LyrZkOiGGBnDHdJVtdWPew9aUKIhFwWPUVJ0lic5YsYY8sAJPz0lxUJ1f0dKCiyZu1YvwjGGFxuDaFgDJGwMWvYLVYOV65u6IqKTEoAgK5CUw5nVzlpnzcCPfEfvZUBdzDN8Yoe8R0zIURCLkEJAEkKi6t8IQf/O3pQXtbuUNF/oCvldfrTBWOAy63B7431upDN2TF/o3OuTEsAztI0Cbl5FgRDcUQjCf/sLYyxO5jFuUWPeHu0gRMhiaAnKjGd4iitZWAvowcv/8JiKyoq7ZBl+upPRFdPgIqO9ij0Hm6LK8tAbkHvJ/xdTqYmAAAgyQy5eV2rUvy+hCdlagy4TVJda/Sol3YUJKZK79qopM9T3WU3SExaBsCWyHGMAeWVXQV9qMu/Z2RFQlV/ByQp8Z8fAwyZ7Z+tGGMoLrWhX5WjJz/DXEh8rcVVMciE0Ag5h25vYhqL0zNE0tlqAK5EjpNlhuoBLuTl92ozOgLAapNRWp5Q7gUAcLh7t86fdHHnaage6IKsJPaoZUAJ5/r6nJyqMpNCI4QSAGISV0U+B5ZzoDCRwxRNwoBBLtidtMTPKPkFVrhyxSskWmwcthx6+Rslx66gZrATmpbwiGtVTI69DFQknsERIoASAGKCMaoK/W8AEurCVFUJA2pcsFhpaorRPBXiuyo7XUbtgEfOUjUZAwY5YbUlmtjysZoz/j+gmi3EBPSkJYazOKUnASxN5BjNImNAjQuaRjmpGSSJ4fSpoFBbh8v8r/9MngR4JZLM4M5V4fNGEywhzIbLmpPHI96tpgVHshI9bYmhVGfZIxz8kUSO0bSuL3+VXv4kw8mKhOoaV+I9AQzfsTjLF5kTFclW9MQlhlHt5dcxsJ8ncoyiMlTXOKGo1MNJsoMiM1QPSHhOAOPgf7DZPP3MiotkH0oAiDGKihxM4n8FYBU95Oxs/x5MjiIkrXUlvo5EE9+CuILngDGqWXGR7EIJADGEFlSfAjBUtD1jQOUAJ1X3I1lL02RU9XclWqdhvOY89T2zYiLZhRIA0muaw3MXGD6RyDFlFTmw22mpH8luthwZFVWJTojkX1ecnimmBESyCiUApHecnkLOkNC4f0GRBfkFwiMFhGQ0l1tDSZn4Mk0AkgT8luoDkN6iBID0isbw3wwoFm1vdyoo9ST0sCMk4xWVJFasCcAQzal/16RwSJagBID0mOYouxUcd4i2lxUJ/SqdVNufkMso72eHmtiE2K+oropxZsVDMh8lAKSHKmxg7D8TOaJflZ2W+xFyBbLMUFltT2TrZZnp+pOg5zjpIfrFIT2iufRvAKgSbV9YbIPDSauXCLkaW46S2HwAhtGq0/OAaQGRjEYJAEmYLc9TCR1fEW1vscooLqX5SoSIKCy2JrpC5l+RN8BtVjwkc1ECQBIWj7H/BIPQZwpjDOWVPdoTnZCs5elnBxO8ZxhQrMVC3zI3IpKJ6LFMEqK6y24A+K2i7QuKLMjJoWI/hCTCYpVRXJJQr9ljNltFuVnxkMxECQBJCNOlf4bg1qSqJlHXPyE9VFhsS2RrbKuu6t80Mx6SeSgBIMJUV+lYgM8TbV9alpNomVNCyBmMAWXl4hMCOcenrO6S/iaGRDIMJQBEGNOlH0Dw699uV+DOS6iwCSHkIg6nCqdLePWMxnX5G2bGQzILJQBEiJrjuR4Mc0Tbl1ZQtT9CjFBaniNcPIsD99vtRaUmh0QyBCUARAiT2ROibV25Gmw22uiHECNYLDJy84R7ASxRWf28mfGQzEEJAOlWTk5VGcDvFG2f4OxlQkg3ikttwhUCGcdnaaMgIoISANKtmBJ5FIDQgL47T4PVRsv+CDGSqsnIzbcIteVAkerUE9qem2QnSgBIdxRw9rBo46Ji+vAgxAyJ3FsM+JyJoZAMQQkAuSqLq3wuAKFJRXanSl//hJhEs0iJrAgYo9krrjUzHpL+KAEgV8XBPynatrDIamYohGS9RO4xLun3mxgKyQCUAJArc1Xkg+MmkaYJfp0QQnqgq5dNeIXNvQBoOQ65IkoAyBWpPH4bAKGZR/kF9PVPSDLk5YsV2GJAicVVIVy7g2QfSgDIFTFIS0Tb5uZS1T9CkiE3TxNeEgiu32JqMCStUQJALq+oyAHwG0WaOpwaFI1+lQhJBlmR4HCKDbfpwM2g5zy5AvrFIJelBbX5AIT69UW7JAkhxhCtCcCAYsXpmWByOCRNUQJALo+JTf5jEuBw0+Q/QpLJ6VIhCT69pa5eAEIuQQkAuQI+Q6SVw6FCpi1/CUkqSWKwO4QT75lmxkLSFyUA5BIWV8UgAB6RtrT0L7U454jHOWJRHZFIHLGIDl3nBl8D0ONAPM4QjQLxGIOud/05SR2nW3jobRRyq3PNjIWkJ1ojSi6h8/h0BrGvepdbbCyS9F44FEcgEEMwEEM4GEckoiMW4+CXeRMzCVAVCRarDItVQU6O+K0eCkqIRjhicdb1so9fua0kAbLMISscigpoFg6FnipJ4XJpqIdfpKlsiUemhYFlZsdE0gvdquQSjLNakfe/xSJDUan73yyccwR8MXR0RtDZEUUsoosfqwORiI5IRIe3M5rQdTvbGSCYAOo6oOsM0SgDgl1/JkmAZtFhsXYlBMJL1khCFJXBYpERDl8lQztDB58OSgDIRSgBIJdiEJo1bHfSr48Z4jEdrS1htDaHEY2Kv/T7Cl3v6kUIBbt6InJydNhyAEmmMQOj2Z2KUALAwCYlIRySZugJTi6UN8CNWGiASNMEJiERAbEox+nGANpaw+Dp996/LK4Dfp+EgJ/DagPsDg6J9osyjN2horU53H1DjmsAyAC6zxZI1qAEgFxAiQZGgYlN67cnMK5MrkzXOZpPh9B8OmT4BL6+gnOGYIAhFARy7Bx6EYSXsZEry7EL3oMMOZqjdEjEd2qfuRGRdEK3ILmALMmjhdopElX/M0AgEMfB/Z04fSqYsS//83EO+H0Mhz7qQDAYS3U4aU9VJSiK4CQLiV1vbjQk3dATnFyAcy60h7jNRv24vcE5R2NDEEcOdCIiMIabacKhOA5/1ImmxmCqQ0l7FtF7kbPrzI2EpBtKAMgFGFAj0s5G3f89puscx4/40NQYvOwSvmzBOdDYEMTxo96s6P0wi018e2Che5tkD0oAyAU40F+kncVKvzo9EY3qOHygM+GleZmssz2Ko4e8iMUyZOZjklkswr1xQpN7SfagzzhynmorECkTaamJP3TIGbGIjsMHvYhGjO3yt6kKihw2MMYQi+to9gcQNvhlqkgSHJaPHxedoSh0A3svAv4Yjh7yorrGBUWmwgGJ0DRKAEjPUAJAztGckWoI9gpZaAJgQmJRHUcO9f7lX2i3YuaQfhhTWYzrygsxsNANp+XSkrDN/hA+Ot2Gt042YefhBuw4VCecFNg1FdMHVWBsVTFGlRdiYGEuCh1WSOdV9InrHC3+ED5sbMU7dc145cgp7Dwsfo3LCQXjOHbIi+oaJ+0vkQBNvDfOCUdpEXynmsyMh6QPusvIOVZ7+Uxd4hu6aydJDMOvzUtGSBlB1zmOHOhEMNizl79FkbB45ADcO3YIxlWV9ujl6A1HsGrvMTy9832819ByyX+XGMOsIf1w/7ihmDqwHFY18R4eXySKdR8cxx9f+wC7jp5K+Piz7E4F1QOcYFRCUAjnHPvebRPam4Hr7Pqov+5t86Mi6YDuMHKO5ii/A4w/2107i1XGoKHuZISUEeqO+9HWKlCs5SKaLOGBCcPxeO11KHTYDIlFyrHi9aiOv216Ex8cOwVNlTHpmoH4xOyx8LR3gPtDhlzn/foW/Mv63di4/0SPji8stqLUk2NILNlg/952oaqRko7ZIX99t0k+yQ40BEDO4eCFIhmholD3v6jWlnCPXv61NeX48S2TUZXvMi4YxqBWezDFbsOUUYMu+c96nhORvYcM2eZvpKcA//fJudh+sB5feWkHjrV2JnR88+kQcuwKXOI73mU1RZGEEgCdoSAJ4ZA0QU9ycg4DE3o4yDRJS0g0quNUXSChYyyKhH+9aRKefXC+sS9/AIqnCMx+5Z4EyWaBUl5k6DWn1niw6YtL8IkxgxM+tv6EH7EYLQ8UIQsWA+KgBIB8jBIAco7ow0G48liWqz/hT2h9e36OBX97aAEemjDc8B30WI4VSllht+2U0sKrJgk94dBU/PS2afj+wgkJzV+IxTga6xNLoLKVaALAwPJNDoWkEUoAyDmSpFuE2lEPQLc6OyIJrfUvcuZg+WcWY0J1qfHBMAnqgHIIZRWMQR1QDmZCof5HJo/Er5bemFAS0NYaht9HNRO6I/wzlXSruZGQdEIJAPkYZ8I7i5Cra2wQL3Gbn2PB8w/NQ01RrimxKOWFkGziz33JaoHiMXYo4KxbrhuAnyyZmlAPx+kEfpbZSvjnKXyPk2xACQA5hwNC+/vSLm5X19keQTgktuRPYgxP3nUjhpaY0zPLcqxQSrvv+r+YXFoIyWnOLPxPjBmMR6cKbTkBAPD7Y/B7aeOgqxOdA8BpD29yDj3Kycc4rQoxQlOj+FK6r88ag+k1FeYEkkjX/yXHAmp/c4YCAOAbc27AxP5CRScBAKcbaS7A1TDRfybOKAEg51ACQIiB/N6Y8Da313oK8YVa8zZoUyuKEur6vxizaJArig2M6GOKJOE/b50Ki2DBIb9P/OeajbJ4TynSC5QAkHMYg9Bgq057tlxRS7PY17/EGH68ZLJpJW8lRw7k0t6v+FKKCyA57QZEdKkBBS58YZp4AtTaZEyRoowkmAGI3uMkO1ACQM7RudjDgdPWrZcVjerCM/8XjKjGKIPX3J/FJAlq/3IYMlmTAWp/D5hszuZPj067FgV2sV6K9vYIYgLFbrKR8HJTDhpLIedQAkDOYUzs4ZDNe9hfTUtTWPhn8/h087r+5YpiMKtxFfTMHArIURU8PGGEUFuuA20tEVPiSHei73/Re5xkB0oAyMcEewDi1ANwCV3naG8V66KePKAM13oSn5kvQnLkQCk2vtibUpwHye0w/LwA8MCEYcKbD7W0hGi8+zLighUTdQ6/yaGQNEIJADmHAc0i7WJRegJfrKM9Ily29lMTxb54E8Wks7P+TTk71P4eQDF+KKDAbsVt19UItY1FdXS2Uy/AxWKC2zAzMKF7nGQHSgDIORxcaA/XaLR3e9pnotYmsQ1/yt0OzBlWaUoMcr8SMIt5m+cwVYXar8SUcz8yeYTwakXRiZbZJCqYlOvQe75PM8k4lACQc3TGhB4OceoBuIDfL75E7YHxQ6GYsLZectmhFOcZft6LyYV5kE0YChhako+J1WJ1AQL+GIIBWhJ4FuccccEeAFmSG0wOh6QRSgDIObIkiyUAOkc8TknAWa2CX6QWVcYnxg41/PpMlqBWe5CsEs1K/3JThgIenjhcuG0LLQk8J5EdE8NKoNHEUEiaoQSAnBO2xxsACD1NwmFajgV0zYcQHZO+eWR/FAoueUuEYnLX/8WYqkDtZ/ymRfOGV6FcsHeho4OWBJ4VESw7DcCL1tZOM2Mh6YUSAPKx+voAgDqRppEwdcECQEtLUHhW+kMmTP6TXHbIReZ3/V9MLsyFlOc09JyKJOHBCcOE2nIdaG0Rm3eR6cIh4UToIzPjIOmHEgByAc6wX6Sd6GY3mYxzoK1Z7Ot/TL9iXF9hbOEfJstQqw0q+NMDWrUHUIzdPuK+ccNgU8XO2UpLAgEA4bDgvcjF7m2SPSgBIBeQIPaQCIl/dWSsjvaw8PKrhxIY3xalVJaCWVK4t4uiQK0ydigg16bh1usGCrWNRTk6O2hJYEi8N456AMgFKAEgF+FCDwmahS1em77QbsXikQMMvbbkckAudBt6zp6Q892Q8l2GnjOhJYGnaTJgKCDcG/ehmXGQ9EMJALkA06V3RdrFojqikeztBQgGYwgIPnjvHz8MFsW4W43JcldRnhR1/V9Mq/IAgt32IhJaEhgQ/3fIROFwPIEVOVzo3ibZgxIAcoGQNbwbgNCbPZjFD96W02IT0BRJwv0GL/1TqkrBtD60rbsin1mGaJxElgRm8y6BCfTEdUR8DTQHgFyAEgByoeZmLwS7CgMBsZ3vMk08pqOjQywBWDCiCmVu47bTlXOdkAtyDTufUYyOa/7wavElge3hrF0SGPCLJeEc2APBxJ5kD0oAyOW8IdIo4MvOBKClOQwu+Ch9aIKBk/8UBYrBX9pGUiqN65mQJSa+JJBn75LAgF/sHmRgr5kcCklDlACQS3CO10XaBYO6+D7kGSKRl83wsnxM7C82li1CrSoFM3Cs3WhMkaFUGZeg3DN2qPAugdm4JDAe5wgFRZcA6rvNjYakI0oAyKU42ynUjHME/dm1GqCzXbwCnZFf/3KuE3J+6mf9d0fOdUAuNKYwUX6OBUtHDRJqG4tydLRnVy9AQPze4xr0HWbGQtITJQDkElF/3XsAWkXa+rMsARCt+++2arhtlNgWt90yYZKdmZTKEsPqE3x6UiJLArMrAfD7hO+9/T5f42kzYyHpiRIAcjk6gFdFGvqzaB5AKBgXTng+ccMQ5BjUXW/0MjuzGVmhcEhJnvAwSiJLMzOB+Pg/tpscCklTlACQKxF6aAQDceEJcelOdAc6xrrW/htBLjC+0E4yGLlHwadoSeAldJ0LLwHUGacEgFwWJQDksnSwbULtdI5gMPOHAeJxjo42sbKzs4ZUYkCBAS9tRYFaafyue8li1C6F84ZVo1Jw46FsWRIY9MeFJz3KEoTuZZJ9KAEglxXzlu4GR0CkbTYMA7S1hKALPnEfFly+1h0zNttJJiZLZ+Yu9G4oQJYYPinYo5ItSwL9gt3/AE6G2huOmRkLSV+UAJAr2BPlDEJrh/2+zB535ZyjpUnspTKgwIXaQRW9vqYZ2+2mguSyQynJ7/V57hk7JIFdAsMZvyRQePItx1ZzIyHpjBIAckWMCc4D8EfBM/iJ29EeQVR06d/E4ZBEp61fAdNUqP3St+v/YnJFMZjV0qtz5NksuF1wVUUsqqMtg3sBOIfw8lsOGv8nV0YJALkiKS6WAMR1jlAwM8ddOedoOiU2scyuqbhz9JBeX1Op9gCKWAGcdMAkCWr/3q8KSGRJ4OnGQMYWqQoGY8J/NwYa/ydXRgkAuaKQI/4qAKHBRtElSemmrTWCcFhsiOP26wfCZe3d+ne5KA+yYA38dCI5bJBLezcUMKQkD5MElwTGojxjewECguv/GdAc8TXQFsDkiigBIFfW2OgH8KZI00wsCBSL6mhsCAq1ZQx4eMKIXl2PqSrUfiW9OkdfplYUQ7L1bijgUxPFf8anTwURjWTe/BTRSbcc2NH1f4RcHiUApDtCwwCiXyXppO6EH/GY2NDGjYP6YUhJb9a9MygDPICcOV3/l2C9HwqYO6wKAwvFSiLH4xwnjvoybkKg6Pg/Y2JLeUn2ogSAXJXoGGIspiMcypyvrebTIXg7xYc1Hp9+Xa+uJxflQXZlXtf/xZjdBqWssMfHyxLD56deK9w+EIjj9CmxXpx0EArGEYuLZTQ602kCILkqSgDIVYWZtBOC+4hnyjBAe1sYp+qFSiAAAGpryjGhuuez9iWbFUpl5nb9X0wpL4LkzOnx8XeMHoSqBKojNjUGhas49nUJ9LR5ox0Nb5sZC0l/lACQq+s82QqwfSJNM2EYoLM9grrj4i9/WWL43oIJPb4ek2UoNRVgUhbdioxBHdgPTOvZhElNlvDteWMTOqahLoCW5vSfFOgPCPZKcbwCIP1vSGKqLHrqkJ5ijAsNA6R7RcCW5hBOHPMlVNPggfHDMay0h2P/DFD7eyD1co18OmKq0jUfQOrZfIBFI/ujtqY8oWMaTvrR2BBM65oV4vcYo+5/0i1KAEi3uC42ETAa1YUL5vQlus5x4pgPDScDCU0Yq8xz4h/n3tDDqzIolWWQ8tJvox+jSC471JpKgPXsMfRft9XCbU1sr4GmxiCOHvIhFk2/JCAS1oXj1kHj/6R7lACQbslxSfhhkm69AJ0dERzcX81npAAAIABJREFU3yG80c9Zqszw5J03wt6jbmwGpaoUSnHvS+SmO9ntgDawAsIVfs5T6s7B9xdNTPg4vy+KA/s70NocTqvegATq/4djPsvrZsZCMkMGrzkiRonFOr2yxXkfgG7fWIoiw+nuXTGcZAgE4jh5zI/m0yHEBWdVn+8HiyZi0cj+iV+YSVD7e6AYtFVuJmA2C1iODbzDi0TX7I0sK8BpbwDv1DUndBzXObydUXR2RKGpEjSLBNbLEs5ma20KIxTsfqUNA3bFIyeeTkJIJM1RAkCEyBbn9QBGdddO5xwFhdYkRJS4eJyjvTWM+hN+NDUGEY30bLji/nFD8fXZiXf9M1WFNrgKcm76b/JjNMmqQc5zgfv84NHElpPW1lTgtaOncKLdl/B14zGOjvYI2lojiMd1aJoMWembicCpuoBgssr+HI94N5oeEEl7ffM3nfQ5qtPzEAN+J9J2wGAXFMGHqCwxyIqxI1HxOEc8zhGLcUTDcQT8MQQCMYSCsV4XhVk4oj+evnsG5AQnr0luO7T+FYDgjnbZisfjiB07hXhLe0LHdYQiuOXpFdjX0NrrGBRVgt2uIMeuQNMkSIoERWY9napgiHiM49BHnUJtGePzw50Na0wOiWQASgBIdxTF6RmnAIt14B9SHUwqzRlaiafvngmrKt5xxlQFSkUJ5EI36HYTp3v9iB1rgB4UX7rX7AvijmdWY68BSUAa0zljD2rxyDq/v+lUqoMhfRs9kcil3JV5ajx+J2P6YoBNA5D5Jeq6cefoQfjPW6dCEVyvz2QZUlEuFE8RWCaX9zWTzhE/3YrYqRbwqNgEuLZgGPf8YS32nDhtcnBpYR9n2Czr7MWQr24LBAt6kexBCQA5x+L2zOY6+wzAFwHIvsXpl8EY8JUZo/HVmaPF2qsKlNICSIV5YBm0pW9K6Rzx1g7EG1ugB7qv6BeO6fjqS9vx7JsHkhBcmmA4Ac7+V5Ljvwm1nzqa6nBI30AJAGGa03MTwL8JsHGpDqYvKXHl4L9vn46pNZ6rN1QUyG4HpHxX11a+fXw2eTrj4Qji7V7orZ3QfUFcbbO73+/ah++tfg2hBCcVZjgdDC9A59+J+Bo+SHUwJLXoSZXF1BzP9UzGkwDGpzqWvubW6wbih4snIT+nqyOEyTIgy2CKBCgKmN0KyWYBy7Ge2eKWbqWki8eh+0PggRD0YAiIxMD1OBDTz63v33+qFV/4yya8fZKGBC6iM+CZMPAP8NYntoaSZAx6amWjwkKnGtJ+yBg+D1oKeoER/cvwb5+/FVNH1aQ6FGIQXef4/cpX8MM/rEZrpz/V4fQ1LRz8G1Fvw29xte4UkpEoAcgymqNsGBh7DsCIVMfSlwytKsXX7pmDJbWjIPWwPj3p2zoDIfzq+a341Ytb0OHPjN0BDbQiAvYAvHUtqQ6EJA896bKI6vQ8zIBfALClOpa+wKIqmD1+OD69eDJqrx/U5yvBEWP4QmH8df1u/H75Tuw90pDqcPoOjuNcYndGO+t2pToUkhz0xMsSmtPzdQA/SnUcqVbgtmPqqBrMHjsciyZfg1wH5ULZbN+RBry49S1s3L0f7xw4ibie9SvlwuDsvoiv7rlUB0LMRwlA5pMtrrJfcs4+m+pARLkdOchz5vTqHA6bCpfdhn7F+SgvzsXI/h6MHOjB4H7F9KVPLqvdF8SeD4/hvUN12HfkFE6cbkVdUwc6fAEEw1GEo7FUh5gscc75o1Ffw1OpDoSYi56EGc7iKnvSiJe/y6pifHUZxleVoKbIjZrCXOTbrbBrqnBlvDH//lecFKjX/tV75+Bbn5zf25AJ6TO+8osX8NtlO7ptV5HrwJ6v3SV0zlA0jkA0hhZfEEdaO3GgqR2vH2vEriMNaA8mtrvlZXAO/pmot4E2FcpgVJg8g2kuz/c4R49f/jZVwaKR/XHH9TWYPMCTcP17Qoh5rKoMqyojP8eCQcW5mDO0Eo9O7dqQa9fRU3j+rYNY9t4ReMM9SgYYA3tSc3qaIt76l4yOnfQNlABkKNXpeQgc3+7JsS6riocnjsCnJ41Egb1v7uxHCLk8iTFM6l+GSf3L8N0FE/CHXXvx1Ct70ewLJnoqGcBfVFf5jTQxMDNRApCBNEfJSHD8ItEBHsaA20cNwnfnj0MhTY4jJO25rCq+OH0UPjV5JP5727v4ry1vIxJPaKKjlYH/DU7PaCoYlHlSuMElMUVRkQNMfg4MCc2iK3LY8OyD8/HLpbX08ickw+SoCr46czSWf3Yx+he4EjuYo58G/B40ZyzjUAKQYdSg9gMAQxM5ZlxVCTZ/YQlqa8pNiooQ0heMKi/C+sduwfzh1Ykeulh1eh42ISSSQjQEkEE0e8U1YPqjiRwze2glnr57Bmwq/SpcjXv2Eym7dsf6n6bs2r1BP7O+yWnR8LtPzMQ3V7yCP+wS3w+IAf8GR+nL8J1qMjE8kkTUA5A5GCT9KSSQ1M0eWok/3DuLXv6EZBlZYvi3mybjwQnDEjks38KkfzUrJpJ8lABkCIvTsxjARNH246pK8Nu7Z0KR6FeAkGz1L4sn4aZr+gu358ADFqdniIkhkSSip3+G4MDXRdsWOmz47d0zhQv4EEIyk8QYfn57LQYX54keInPgG2bGRJKHEoAMYLWXzwQwSaQtY8CTd0xHiat3pXYJIZkhR1Xwu0/MgEX8g+Aeq7tEvNuA9FmUAGQAXdKFq/3dPXowptFsf0LIeQYX5+GL064Tba7ouvIpM+MhyUEJQLpzV+YBbJFQU6uGb80bZ3ZEhJA09IXaUajKF6wRwPm9oPdH2qN/wDSnxqN3ABCq1/vwpBFU2pcQclkWRcIXawV7ARgqrY7yWnMjImajBCDNMYabRNrlqAo+PWmk2eEQQtLYnaMHw5NrF2obB7/F5HCIySgBSG8KwKaINFw0shr5ORaz4yGEpDFVZrjz+kFCbRljM0wOh5iMKsCkMcXpGQdAaNDujusHmxxNZqPKcomjn1l6umP0YPx089sCLfkIu72o1O9vOmV6UMQU1AOQxmQwocI/LquKSQPKzA6HEJIBBhS4UFOUK9KURZkitPyY9E2UAKQ1LrTpz4TqMsgSbeRFCBEzdaDoB4OUUC1h0rfQEEB6EyrJOa6qpNcXKvnmb4XaNf4LLQ8mxCzJug/HVpXgGZGNgpjYM4j0TdQDkMY4IDRbZ5BYdx4hhACA6BAAAE6Ti9IYJQDpTaiAd02R2+w4CCEZZGCh8DOj0Mw4iLkoAUhbIzQAQuv68nKo+A8hRJxDU6HK3c8b4oAzCeEQk1ACkK6c7cI3nl1TzYyEEJKBRJ4bjBKAtEYJQLriceF/O0UgkyeEkPPJktAjhr4u0hglAOnKp/hEm/ojMTMjIYRkIF84ItLMa3YcxDyUAKStk0EAQm92wRuZEEIAAKFoHOGY3n1DTglAOqMEIL11iDQ61kr3KCFE3LHWTrGGTOwZRPomSgDSGjss0upQM92jhBBxB5raRZsKPYNI30SVANPbhwDGdtfovbpmgVZXRxX+CEm9ZN2Hb9c1izbdb2YcxFyUAKQzjo8gMMF/5+EG82MhhnDPfkKoXV/baS9d4yaXt+NQvVA7TglAWqMhgDTGZP66SLuDzR040U7zAAgh3Wv2BfFuvWAPgM72mBsNMRMlAGksbMcOAGGRti++fcjkaAghmeDFdw4hrnORpi1Rf917ZsdDzEMJQDqrrw8wQKgX4Nk3D4AL3dOEkGz27FsHBFvyzQAE1gqSvooSgDTHwVeLtDvU3IG1HxwzOxxCSBrb/NEJvF/fItSWgwk9e0jfRQlAmpMV9mcIZuE/2/I29QIQQi6Lc+Anm94SbR6MKtYXzIyHmI8SgDQXbKs/zoGtIm3fOtmEF945aHZIhJA09PzbB7D7+GmxxgzL0HaYCoykOUoAMgBj/Heibb+76jW0B6k0MCHkY23BML635g3h9gz8GRPDIUlCCUAGiHQ2/BWA0Kd9ky+Ix57bQkMBhBAAXV3/T7ywHU3egOABeCvc2bDO3KhIMlACkBniHPzHoo3Xf3gcv3nlfTPjIYSkiV9uewer9x0VP4Dx7wOgT4gMQAlAhoh67X8EcES0/XdXvYZl7wk3J4RkoOfeOoAfrhPv+gfHWxFvw0vmRUSSiRKAjHEwzMC+KNpa5xyPPbcZ6z48bmZQhJA+6qV3DuOJF7clMhyo64w9Cvr6zxiUAGSQsLduBQDh7Dwc0/Hg/27AX/Z8ZGJUhJC+5qmd7+Nzf9uMaFz8Xc6A38e8da+aGBZJMkoAMowcY18AIFbJA0BM1/GlF7bhH5btRCgaNzEyQkiq+SJRfPavm/HtlbugJzITmOFEmElfNy8ykgqUAGSYYLDuJGPsk0iwm+6ZXR9gwa9fxp4TTSZFRghJpY37T2DGf/0df3834X1BYjrH3eg82WpGXCR1aDvgq2Oao/x2MP4lAGMBMDC8D/AVPMZejAbqhctmJVO4s26l5vT8O4CEMva9Da1Y9OtluHvMYDwxYxT65TpNipAQkizv17fg3ze+2ZtS4P8Y89bvNDImI1ndJf25riwB+C286zmtAtjLGH4X7sx5CjgotGFaNqIE4ApUV8V4ies/4eBTLvgPHKMANorJ+Jbm9BzjHC/LHMtD/votAGKpiPVyIt76f9ScZQMBdnsix+mc48+79+Nvb32EW6+rwb1jh2JsZQkYMytSQojRInEdm/afwJ/e+BAbPzrR47ofDPhd2FsvvMQ4WazukgGcS4vB2VJdxySAX/yEupZz/FxzBf4fR/m3op11fwJNXrwEJQAXseaWVelx6fvg+r0c6O61V8UYvqgzfNHi9DRzsNUM/LmwN28tsDfV5fbiEa/9XtUZyGfAjEQPjsY5nn3zAJ598wCq852YM6wKUwd6MLaqBHk2ixnxEkJ6KBrnONrSgdePN2LnoQZsPnACrYFef/guC3vrP4s+8uLUHKUjIElLwbFU1zFc6CCOfgz8j5qz/DGd6/8v5mvYZnKYaYUSgLNcFfka17+mx/ElgCf8huNAIcDv48B9mrOtDcyzgYOtiFoiL6KpyWdGyN07GI6q+UssUetyDkzr6VmOtnrxm53v4zc7u4oHFdqtGFDoRoHdBrumIEcT+zVqC1JPHCFX0+IP4dN/2dhtO86BjlAEvlAEHaEIjrV6EdMN3Zl3TcQr3YXU9mpKitMzSQIWAbgNQE3PUxE+VmJsq+b0rGBM+nK486TonscZjRIAjFFVZ/2DEtd/wIEig06aB46lDHypFlJ/DadnI2fsuahseTnpG2i0tnaGUTNHcwX+BI6lRpyy2R9Csz9kxKkIIecJRmN9oEAX+9+It/QhYE80BReXFadnIuNYyhiWAigz+PyLONfnWpzlz6g89k8+X6Pg7keZKasTAIvTs5ij4acAG2hiH5cNwCLG+SItFooxp+c1MP6cEo896/c3nTLvsuc7GI504m7V4WlgDMLFggghWYUD7F8j3rpvAXVJ7PavsFmc+iwOthTgiwHkdjv42jsqB38kwuQ7NKfnRxGv9nPgaFZ+0WTlMkDVVTHe4vRs58AyAAOTeGmFA5M5Zz+LSupJi9Ozw+Iqe9xmK69IwrXjUV/94wCWAGhLwvUIIWmCAc2MscURb90/Ihlj/iUldovTs1hzlv+P5tQbu57F/D4AuaZf+2O5AH6kuSIfqa7y+9H9nK+Mk1U9AAlO8DObzIHJ4GxyXOE/05yefWB4Dhx/jXjrPzTrohFv/UtWd8m7cV36HQObbtZ1SM90rP9pqkPokXSNmwAAWy3F8EgwWHfS1Ms4ywtUhoWM86UIYA4HtD4xvzCLJwpmRwLQywl+STIcHN8B8B3N6dkHYLkOrDiz/tbQuyTU0XgYwAzNVXYPOPsxgFIjz99bmiKnOgRCDDWowqjpRQbiOA7wJyK++hfNuoTN5ukXU/h8BrYY4PPA+/I7J/smCmb4EMAYVXWWPWLh+ofoKorTV1/+FxsO4OsSsF1zeg6rDs/PFadnCoz99+KRzob/jSjWoeDs20igfLDZPIXuVIdAiKGuG5SMUT4xHGhkwNci9vjwiK/B8Je/1V0ywOIqe9zi9OyIKzjGwJ5C10z+Pvzyv8AizvW9Fmf5Uw5HSXGqgzFTqrvBzcI0h+cOMPwrgP5GnNDtcuD+e27FgYNHsWX7awiFUrKkrY4zvCTr7MWQr24rAOOK9xcVOSwh9bMc+AyAGsPO2wN//f6nMH/CiFSGQIihYvE4xjz4IxxtaE5lGPsYw6/DndJvgZNBI0+suj2jGedLwNmtgOAafQPJsoxxY6/FxPHX47kX1uDEyXqjTt3OgB+GvTm/yMSKghmXAHxcwQ9Tum8tcD5Vxp23L8LXnvg0CgryAAChUBjbd+7GilWbsG7jdnR6/UZcKlGtAFsJjuURe2wVGhuNCoIpTs9EmfH7OGc3AfAYdF5hlACQTLT97YO49Zu/RiS5m24d45y9BFn/U7SjYY+B55VUd9n1jLPF4LgbwGADzy1ElmWMHjUCixfciJsWzkRRUQEAIBqN49nnV+Df/uMptLYZtOqa4QQHy7iKghmTAJyb4Ad+Lwz6e02dfAO+90+PY8igAVdsE4/HseetvVi+ahNWrN6E06dT0JPOEQDDJs7Yc1El+BJaWzuNOrXm9AzlHDMYYxMBPhTAEACmbhLwf997GAsnjTTzEoSkxKvvH8ZX/ut57D3SYMbp2wHsB/ABB3ZKkrw53HEi4Z1/ruL8Nfq3IwUfB1arBVMmjcGiBTMxd9ZUuJz2K7Zta+/Ek7/5M55+5llEIkaVNGBvZNJEwfRPAM5M8APwJRg0xn/dNUPxT994DBPHX5/QcbquY/eb72PDpp1YuWYzjh6rMyKcRIU4ww4JfIUSj//V7z/daPQFcnKqymJSOJ9LikOO606dsVyI/C4x/gSAid01++O3HsAttdcZECkhfdOBE6ex6c39y772i7//b8/OoMclzjrjst7BdObToLeYU9Sm2mpxRmYDbJEOfgsDkj4mnut2YsrkGzBrxhQsmFsLe44toeNP1p/Cj//jabzw8lrwnm6KcKmMmCiYxgnAmQp+YIZV8PN4ivH45x/AJ+5cDEnq/Xy7/QcOY8XqzVi+chMOHDza+wATF2fALjD+nBSVnw8GT6YkIzlLc5b/6UwPzVU9/Y17cceMMckIiZCUYeA/tk6462upjuMSHk+OxYuZZwrz3AzAlewQ8vPcmFE7EYsWzEDt1PHQBMuNX82b7+zDP//wF3hjz7sGRAgAiDKwtK4omJYJQFcFP/wUBhXxsefY8JlP343HPnMfLBbNiFNe4viJOqzfuBPLV23G7jffMzITTcQ+MDzHOP4S9tbvT/bFNafndwAe6q7dL79yF+6bNz4JERGSIvE4dF/wN/a5D38m1aEAAFwV+Sr4Isb5UgCzkYIVU+WeEsydPQ1zZk7BxPGjoCjGLxrgnGPl6i344b8/ieMnDPseageQlhUF02VZBgDjJ/gBgCxLuGZkDUqKCxAKR0xLACr7lePhB+7Aww/cgZP1p7B23Tas37QTr772FmKxpE0KGg6O7/CztQYYnuOMLzd4ctAVMYawSN4TjvaZXZUJMU4sjni7F3pbB+KdfkguR2pnujpKi1RJns84XwquzwWgJjuEyn7lmDVjEhYvmIGxY64BM3nf8faOTnT6OlHZrwT19Q2IxQ3ZQOlsRcFH023r4bToATBjgt/lyLKMa4YPxML503H7koUoLi4061LntLZ1YOOWV7Fi1UZs2/E6IpGUvPyOcI7lnOE5MwoPnaU6yn/KGP9Sd+2+e/MUfOHWqZDzc8Gs5iRkhCQDD0cRb++E3u6F7g10beN3hpTvXOW+56sLkxmPNbe0muvsZnC2lAOTkIJ3wOBB/bFowY1YPH8GBg8yZJX2VTW3tGHd+q1YtmojXn3tbcRihu6aeBnpM1GwbycAJkzwEyVJDNeMqMGCebVYctMClHtKTL9me4cXO3buxvqNO7B63Vb4A4Yu1RXDcIJxthrgK8LesjVG7gimOTzfBsP3umv32LRr8U/zxgEAJJsFUr4LstsJZk9s8g8hqcDDka4v/dZO6L4grpRPS/nu/3Hf85VPmh2P5igdASYtYsBiDkw2+3oXkyQJY64fidkzJ2PB3OnoX21+UaQTJ+uwfOUGrFyzBe+8dyBVQ659fqJgH00AjJ/g11v9q8uxYO403L5kAQZfZVmgUfpIrYEWgK1i4M+FvTnrelsIQ3WUf44x/qvu2t09ZjB+dtu0S/6cWTTIuU5I+S5IDhv67K8vyTp6MAS9rbPrpR8Uu03kfOdPXPd89atmxKM5SkdAkpaC4y50Ld1NqvPX6C9eMBPFxQWmX/PD/Qexeu0WbNi0E2+/95Hp1xPUpycK9rknqNET/MzQv7ocM2snYN686Zgw9nrTx60ikShee+MdrNu4A8tXbUJTU4prDWjhv6O52ZvoKTRH+e1g/Lnu2s0ZWok/3T/nqm2YRYWc64KU54TkzEEf/FUmGY1D9wagt3kRb+8EDyfeUSYV5n7ZffeXjdpF6fw1+rcBKDfovMLOX6M/Z+YUuF0O06/5wYcH8PeX12DF6i04diJJu6v3TJ+cKNhnnppmTPBLhrKSQtw4fTxuWTwHE8ePNmT54NWcX3ho9botaGhoMvV6VxACsIGDL7dw/SXRzFZxlNZKTNrSXbsx/Yqx6nM3iUejKJDdjjNDBXaAZfgWFyRFOHRfEHprJ+JtneC9LC6jleYvti/90oqen6HGYrUHpsYZFoPhTgaYP055kRybDZMmXo9FC2Zi/pxpcNhzTL1ePB7Ha2+8jZeWr8O6jTvR1JRmO5v3sYqCKU8AzJjgJ8kSdGNmdyaksDAXM2+cgMXzZmLqlHGmLGO52NlaA8tWbMTBQ8dMv95lnKs1IMeU5wKBE1cswq05SoeDSXu7O2G524E3v35Xj4JhkgTJlQMpzw0pzwkm086CpOe4rkPv9Hd17bd7wePGrdix5BX2y7n3iwluwVthszj1WSldo5/rxozpxq7Rv5pwOILN217FipUbsGnr6+jo9Jl6vcvRNBWxWAy6btQ7u29MFExdAmBiBb/rrhmKHTt2Ye3G7Vi78VW0tRlWGVeYy2nH1MmjMW9WLebNm44cm/kT2PYfOIwNm17B+o07U1VrQAfwFhhWMEh/vmTyS9e/ebfjFxJjOPq9B2FRevklzxhktx1SrhNyngtIQkJG0h+PxcE7/WeW7HWC68Z/TDBJ4rmPflfsF9xdmafy+GIGvggcCwBcuf6tSTyeYsyonYhZN07GjbXjTf+4CYXC2LR1J15evgGbt76ekgnRbpcDkydch4XzpmPe3BloONWMH/3Hr7Fy9ZaMqSiYggTA+Al+ZWVF+NKjD162gl8sFsXOV97AspUbsGHLLjQ3G7Q5RAKsFg1jbxiJRQtm4qaFs+Bymj82drKuAWvXb8fyVZux5633oZvwEBOwDwzPQdf/FvGd2gcAmtPTCiCvuwN3PnE7aopyDQyFQXLYuoYJ8t1gKiUD5DwXrdGHYV96l8csaij3kX+68leB01OoMrbgTGGeOQCSvh42FWv0V63djPUbtmP7zjcRTMGOqyXF+Zg+ZQwWLZyJaVMmXjbR2fP2Xnz/X36ZERUFk5oAaM7SH4HLj4NxqxHncznteOxz9+NTD9whVMCHc4733tuLl1asw+q1O3D8pOFl8rulaQpGXTsUs2dMwtJbF53bwcpMp041Yc36bVi9bht2vZ7UwkPn+wCMv3hmu9Bh3TX+8yfnYtaQfuZEwgDJngM5zwUpzwVmSXr9E9IH8HAUelvXeL7uDyR1RJbZbadyH/pG2fl/ZnWXDOC6fCsHlgCYACDpk1muGTEEC+bWYt6caUlZo9/S2o6167YkcY3+pTylhZg2ZQxuWjgLU6dMEJrHxTnHS8vX40c/fgon6w2bfBhljP8y3NnwFSTptzFpCYDq9LzBgBsMOZcq4967bsGXH38Y+XnuHp6F49139+Llleuxeesb2H8g+ePnkiThmhEDsWBeLW69aSE8HvP32Wht78D6DTuwau0WbN+5G+FwxPRr9sQPFk3Ap5O0IyDVGsgeomv0zSa5nbvd9391rOYoGQkoSyDxW8ExKulxSBJuGD0S8+fUYsG8WlSUl3V/UC+drKvHshXrsXLNFrz7/gEDx9XFVVeVYe6sSbh54Rxce+2IHvduhMMR/PYPf8Mvn/wf45ZqM7wd6awfg64hVVMlJQHQ3KX/Bl0yZNOLebOn4Ztf+xwGDqg04nTnHDx8GCtXb8SatTvw3r5DKSkccbbWwNJbF2JQjfnZt88fwKbNr2LVui3YtPnV1BQeAtD1EL7wV/H+cUPx41uSvyCEag1knp6s0TcL58DbdU347e6P3n3+9Q+sAAYnOwZVlTFx3GgsmDcd82ZPTUov5P6PDmHVms3YsGkn3nk/+YV5JIlh5LABmF47DjcvnIOhQ439sbe2deA/fv47/PmvLyEa7X0PK2P4Vbiz/lEDQrv6dcy+AABoTk87gJ5+qgMACgvz8OTP/xmTJow2KKorO378BNas34INm17Fa7vfS0m3VP8qD2ZMH4/5c2dg4njz/87hcATbdryBVWu3YMPGnWhtT/5cifNdU1aADV9YktIYmKZCcjsh5Togux2AyWOgxCAc0P0BxNu8XTP3UzCWfL64zvHa0VNYufcoVn1wFPXtyS/qZbVaMH3qeMybW4vZMyYj1+00/ZoffHgAf1+2FivXbMXRY1dcHGQaSZIwctgAzJs7BbfdPA8VFSYNKZ7n0OHj+Pzj38b7+3o3p49zBKO+egdM7gVIVgKgG3EtWZYxZPAA3HPXTbj/E7eYvuYeAJqaW7Bq9QasXLMVr+/Zi2gKNqrxlBZheu04LFk8BxMnjDF9Ms75tQZWrd2CU6dSUGuAATMH98Mt1w7EvGFVcFlTPE6vKJDzunoGZIcdkCgZ6FN0jrjPf2aNvhfKYamzAAAgAElEQVSIpXZDqbjOsft4I5a9dwQvv38ETd5A0mOwWa2YPGl00tbo67qOXa+/hTXrtmDthh04WZf8wncWi4ox1w/DgrnTcNOiOSjIN793AwD2vPk+fv3bP2P7zj3w+oxJ8GQFVcG2+uOGnOwKkpUAGN7fI8syhg4ZiDtvX4hP3nNLUtbc+/w+bNy0HStWbcaW7XsQCCa/oFNRUR5qp9yAebOmYdbMWqiquevcdV3Hm+/sw+o1W7Bq7TYjt9AUZlEkTB5QjoUjqjFveBUK7YbMIe0xqjXQN5y/Rj/e4QVSM7n1nEA0hk37T2Dl3qPYsP84OkOGbaMhrCA/F3NnT8X8ObWYMukGaJq5iXNXYZ638NKydVi9fgdaW5Pfc+iw2zDuhhGYdeMk3HLTPLjdvepsFrbjlTfw5G/+gtd2v42gCUNLDGxI2Ftnak3jtE0AzidJDAOqq3DH7fPx6QfvgKaZv2ImEAhg/cat2LBpJzZt24329oQr4/ba2VoDNy+chdmzak2/2QFg3wcHsWrdFqxesxUffnTY9OtdTJYYxleXYuGIaiwYVg1PbtKXRF+Iag0kVTLW6CeiPRjB+g+PYeXeY9h84ARCBoz/JsrjKca82bVYMKcW48ZeC9nkhPT8Nfpbtr0Onz81a/Qnjb8WC+dPx/w5M2BNQp0VANi243X85nfPYtcbbyNo8gdgxFsvweRZqhmRAJxPYgz9KjxYcvNsPPbZT8JmMz8ZOL/WwPrNu9DSktpaAzcvmg2nw/wX44mT9Vi3YQeWr9qcqsJDGFych5uu6Y9brhmAQcVG1g3oCao1YIpYDPF2X9LW6HenNRDGhv0nsOy9w9h64CQiKag62q/Cg9kzJyd1jf6mLTuxdv12bNq8C4EUzKsoLsrDjVNvwJzZ0zBj+pSkfOgBwNbtr+HpZ57FrtffMf2lf76It97093PGJQDnY5KEAVXluH3JAjzy8F2wJmFv+Xg8jt1vvoO167dg1ZrtOJGCcTBNUzD+hmswe+YU3LxoDgoL802/ZkNDE9as34pV67bitdffQdzAkqmihpbkY+HIKiwYVo2RnuSM/V0RA1iODXKuA3J+LlgSfvcyCQ9HEW/vKr+rewNd0+dT6ES7F6v2HsOqvUfx+rFG6CmIZ8TwQVgwZzrmzZ2GoYPN35H0/DX6u15/x5DZ7Yk6u0Z/8YKZmDplPGQ5OUn1+k078Ps/PI/Xd7+DUIqWSlMCYCCJMVRXVeC2JfPwyEN3IyfHkOrDV3V+4aEt297A/gOmzue4rPNrDdx280KUlSWh1kBbB9au34ZVa7dixyu7Eenlpik9UZXvwsIRVVg4oj9G9yuClOIZ/CzHCjm/q/CQZDX/dy8d6aFwV2Ge1k7wQOo3TDtwuh2r9h3FyveP4p365qRfX5IkjB41AvPn1mLB3Gmo7Gf+Bn8n6xuwbPk6bNj8Cna/+UFKEvnqyjLMmTURNy+ag+uuHWl678ZZL6/cgGf++DzefvdDRKPJf2ZdjBIAkzDGUHlmmODzj9wHe5ImlR08fAgrV2/CmrXb8d6+wylZCzukpgozbpyIO25bhJqB1aZfMxgKYcfOPVixahPWbthu2AzZRBTYrZgxuB9uuqY/pg+qgCandrdAqjXwsb60Rh8A9je2Ydn7R7DsvSP46HTyd5qTZRmjR43A4gU3YuG8G1Faaki19Ks6dvwkVq7eiJWrt6Rsjf6IYQNwY+043LRgNoYNG4xk3RNrN2zD08/8Dbv3vJeSFV5XQwlAEjAGVFaUY8nNs/G5T98Dh8PcpTJnHTl2DOvWb8XGzbuw6433U5Jp96/yYP7cqVgwbwauv878qntnaw1s2LwTq9dtQ0tL8h+wuTYNs4dWYc7QSswa2g85KR6nz7paA31sjb7OOd5raMG6D47jxbcP4nBL8jcOs1g0jLvhWsyeMRk3L5qVlCG7s2v0V63dhiNHk7+y59wa/TmTccuiuaiqrkratZev2ojf//F5vPn23lSVRReSdQnAd5/fiU1/eRrvbluL9qYGs8O6BANQUJiHubOn4Wtf/jQK87vds8YQTU1NWLVm05laA++nZqytrAjTp43DksWzMXHCDUmtNbByzWY0Nia/i9Wqypg6sBw3XTMA84dXwimwn4SpFAWy23GmLLEdYKntqTAOh+4Lnlmj3wmegiGh852/Rn/53iNo7EztGv15s6eaPmlX13X8f/bOMy7O61r3zwzDDL2DAAlRJEA0IQQSEr13garjJnfHjuOadlLOSXxSzrk3OTnJdZw4imtcZVm90HsVQogiRO+I3nuZdj8g5JEixAvMu98B9v+XL5H2vGsxFrOe2XuvZxVfK0dSahZSMwrQwdEcFK/dzggN2oeEuEhYWJgTiSuTyXD2Yio++fQMKm/VQcpB0dfQ1sGOPb6IfuYt/PczUYxes+EEwLsF356Rjwz0IuPLEyjLvMK5GPjRmy/AjIAqB4ChkRGkp+ciLSOfM68BMzNDBPjOew2EhwWw7rEgk8lQVV2PtMwCnL+YhuaWDlbjPQiRgA9vGwtE7Jg3HzLV4XgmgEANavo6UDPUB09fGzwCplfKRC6TQT46CenwKKSjE5z36M+Ipcht6kRabTsSq9swMEG+dc3QQA+hQT4ID/VDSPA+1keEK/boJ6fnc9ad5OnhhNioQCQciIKBAZkefVUq+rHP/gAW27+df/aqLzMb+w0tABQZHexH+hfvoSInGcM9nZCTHuDBA0yM58XAD994DptMTYiEnZycRHpmLi4nZiG34AZH/bba8PfxRHxsKMLDgiAUsr9lXtfQjMtJWUjPKERlVS3r8e5Hjc+Dp5UZ4t1sccDFDub6ZI6FFmWNeA2oWo/+tFiCvKYuXLzZgqRbrZjgYOfB2MgAwQH7EBcTgqCAfawbdy306F+8lIHsvGKMcyB09HW14bPPHbHRQYgMD4aWFpnfH7FYjNPnkvHFyYuorKqFlIP2TE0dPTh67UfM8z+CpZ3jA9dQAbAIiwkARSbHhpH19Ye4nnoBg13tnIqBt157Bhab2L9VD9zrNZCaWYShIfJnlZoaInh5uiA+JhTxB8Kho72xvAYO7bTDdlPqNXAPKtyjn9t4G7MczPHYstkCEWF+xHr0p6ankZ1bhAuX0pGZXcyZQ6nfPneEh/ohKjwUIkJtr2KxGF98fQlfnLyI2romyDgQndp6BnDeH4ToZ9+CmdXSQ9yoAFgEJgJAkanxUWSefF8lxMAb338Wmy3Yv7ELAFKpBPkF15CakYe0zCJ0dpH36heJ1LHX0xVxMSGIiwknMlykq6sPmTlFSMvMR05eMSd3JRzMDBHptBXhjlbwtiFzhrko93gN6INHqL1Q1Xr0u0YmkV7fgdTadmQ3dEAs5UAk2tsiPMQXYSG+2Ou1k/V4Q8MjSE7htkffYpMJAvx2Iy4mBIH+Pqw7EC6gWPRr6po42WlaKPqxz/8AJpttlvVaKgAWYbkCQJF7xUAb+SnfPMBAXw8+3rvwkx++DPttZG61KnoNpKQVorWd/H0JPp+PnS7b570GDsbA3JyA18DIKDKyinA5MQO5+SWceA1YGegi0mkr4t1ssdfanPML/HxN0Z0LhLrgaSv3fFk+Oze/tT80BtnENFh2KF2S9uFxpNS04eLNFpS093KiQRzsbREXE4yE2DBsJ/D73tnZg+T0HKRl5KPwKjdmWws9+pHhgfDew/5gsgWmp2fw0adncPZ8MuobW8l/0+cBugYmcPYJRvSzb8DEYuXj6KkAWITVCABFpsfHkXPmY5SknkdfexMn28a6Otrw9/XET976Luztl94WUg5yNDQ2ITEli1OvATfn7QgN8cHBuEhsI/DBqOg1kJyWi4lJ8re6TbQ1EHzHayDY3grqatyqAb7GHTFgsHIxIJ+c/rboc9yuB3zbo59W086JMQ8XPfrtHbdxOZHbHn37bVYICtiDIwdj4OzkSKzoT01N4+PPzuLU6Stobmkn7754p+jvDIhE9HNvwsBkk1IeSwXAIihLACgyOz2FnDP/RHHiN+htb+Jku3JBDPzojRfg6LiNWNzm1lZcupKGzJxrKCuv48ZrwMYS0RH+OJwQDacd9qzHUwWvAUNNEcJ2zO8MBG7fApGAa+MhdfD1GHgNqHCP/vmKJjQOkL/FLhSqw3uPOyc9+plZV1FT38J6vPuZ79G3RWS4Lw7GRcHGllyP/uTkFD75/BxOnb6CppZ28l/eFIp+zAtvQd9I+buZVAAsAhsCQJG5mWkUXPgSVxO/QVdzLSdnRwti4K1Xn4ez83ZicXv7+pCcksW510BwwF4cio/CPm+PDeE1oKkugN82S9X0GtDTAfhQ2R79y9Ut6Bklv5ujoSGCn48n0R79yqoaJCZn4VJiFto7eliN9yAUe/TjYyNgaWlBLPbY2AQ++vQ0zl1I5aTo83iAvok5dgZEIeq516FnwG6XFxUAi8C2AFBEIplD4cWTKLjwJedi4I1XnoWrqwOxuAODQ8jIzEN6ZgGycq9jmoNvepvMjBAatA8xEcHw999L1Gvg3IVUtLTeZjXegxCpqyFg22ZE7NiKGGdrmKiA1wAAlejRv9bWg5Sadly42Yx+DlrXDPR1ERbsS7RH/1pJGc5dTEVKRgEGBkZYjfcgFnr0o6MCER8bDmMjMl4nwPx0wfc/+hrnLqShvaOL+AVuHnjQN90Ej5A4RD3zOrT1yHX3UAGwCCQFgCJSiRgFF79SCTHw+veegZvbg/tH2eAer4H8UkxwMITFQF8Hfvt3c+I1cDkxC/UN5LdZFb0G4l3tsEmPY68Bwij26CdXt2Gcg4lrRob6CAncT6xHf3Z2DhnZ+UhJy0NG1lUMj5Bv5dXT1YLvvl0IC/FBTHQY9HTZ795ZoH9gCO9/+DUuJ2VxU/R5PBhusoR7YDSin30DWrpkTInuhwqAReBKACiiCmJAQySCh4cz3nr1Wfju9yQWd3Z2DkVXS3ApMQOpGUUYGib/AaWro4V9e90QERqAhPgIaBMwEWnv6ERaRgFnXgN8Hg9uFsYId9qKw+7bsM2Emw8mthmenkVabQfSatuQXtuBKQ6Gr2yxNEdEuD8OxITAa7cr+Cw7LE7PzCArpxAXLqUjK+caJqe42N3QgY+3O2KjghAVGQoNgtMo+/oH8bcTX+JyUga6e/uJN4/weDwYW2yFV0QCwp94BSJCpkQPgwqARVAFAaCITCLB1eTTKLj4FTpqKyHj4BKdUCiE524XvPHKM/D39SIWd8Fr4OKVdGTkFKO/n/wWpaLXwIHYCOjr6bAes7OrF8mpOUjLLEBRcRknw0IWjIcinLbC3ZKM6yRbDEzOILP+Ni7ebFaJHn0SxjxDI6NITs6606NfycmUOXMzYwT67UZcbCjRHn0A6O0bxHv/UJGi/+T3IWL5OGe5UAGwCKomABSRy2QoST2HnLOfci4GXn3pOIICvInFVfQaSEot4OSSkqLXwNFDMdhEwIHxXq+Ba5ibI/9BvtVQFxE7VMdrgAkdI+NIrp7v0b/e3ke+fQvf9ujHx4TCfrsN6/EGBoeRnJaDy4kZKCouh4QDB0KbrRYI9PdCZFgAAvz3E2vXA4Du3n6ceP/kfNHvIW9Mplj0I596FeoiMiPeVwIVAIugygJAEblMhrLsROSd+xTNldchlZAvDAti4HsvPI7QYB+CkeWorLyFlLQcZOYUc+41cDghGrY2VqzHHB2bQF5+CdIy8pGUmsPJVq6lgTbCHKwQvmMrQhy2QKBCA4LqeoeRWtuO1Np2Tox5+Hw+PD1cER7qi7joYFhv3cx6zI7bnbh0JZ2zHn0AsLG2QGSYDw7GRcDNzYVo0W/r6MJfT3yOtIx89PUNEou7AJ/Ph6mVHfZEHETo4y9BXUjuaGM1UAGwCGtFANxPZV4qsk59gObKUkgl5NuoFsTAS889hvBQX6Kxm1pacDkxHckp+aiqaYKMAy/4Ba+Bowdj4OjIfmvlzMws8gqu43JiJtIy8zE6NsF6zPsx0hIh1HF+ZyDIfguEauTFwIIxz/nKZjRycESkaMwTHxsKU1Nj1mPW1DYgMSULGVmFqLjZwHq8++GyRx8AWto68d77XyAlLRcDA+Q9NhaK/r6YYwh59AWoCdSJ57BaqABYhLUqABS5KwZu3oBUTP5ms7q6Olyd7fHsU0dw5CCzudPKoqe3Fymp2biSnIPi6zc52Qa1tbZESJA3oiOCsc97N1GvgctJmZx8E9JSF8D3jtdAjIs1dITsfCgq9uhfqW5F9+gkK3EehmKPfmSYP/R02R9ItWDMczkxC20cHH+pqwvg7maPkCBvHD0Yjc2btxCNX1vXjL+e+AzZecUYGiJvxsRXU4OFrSP2xRxDwNGnoaammtMwmUIFwCKsBwGgyIIYaK0qg3iOfK+9QE0ABwdbPPFoPJ5+4hDR7cH+gUEkJqUjI7sQBUWVmOGgzcvczBghQd44GB+B/d6erN/4lslkuH6jCumZBbiSnIXWtk5W4z0IDXU1+G/bjHg3O0Q6bYX+KqeyzUpkKG7tnu/Rr2pB/zh5Yx4DfV34+XohLMQPMZGB0NYi16OfmlGAfg569EUidXh5OCE6MgDxcREwNmJ/d0OR6tpGvPePL5CZXYSR0XGisQGAz1eDhZ0jfBMeh9/BJ1n/3SUJFQCLsN4EgCI1xdnIOvUhGsuuYW6W/PmxmpoAjnfEwFOPHyT6CzUxOYGMzDxcTsxCTn4pJjnwGjDU14Xvfg/Ex4YiIjyY9Z5v4FuvgUtXMtHQ2Mp6vPtR9BpIcNsGM11mhXNGLEVuUycu3mxBSk0rxmbIH2sp9ugH+nuz7g0xOzuHgqISJKXmICk1H8PD5L/p6upowm+/x3yPflQo9PT0iMa/VdOAv7//JXdFX00AC1uHdVn0FaECYBHWswBQpOZaDrK+/gBNFSWYnSb/jUpNTQ2ODnaciIGpqSnk5l9FanoeUjOvYpgjr4EAP09EhQUiKiqIddc3QDW8Bry2miFix1bEutrCzvje4jIyPYfcxk6k1rYj8VYrJjmwBF7o0Y8I9cN+712su0OqQo++vp4OfLx3IjY6CNERIdAg3LJWVV2PEx98pRJF3//QcaK7lFxBBcAibBQBoEhjxVVkn/oQtSUFmJkkf5mMSzEgkYhRUFiCi1fSkZ59FQMcDHvREAmxx9MFcTEhiI+LgJ4u+14Dt7t6kJKay7nXQNgOKxhqinCtrRc5DbcxJyV/Z2Or1WaEhfjgQEwIkR794ZExJCVnIjUjF/mF5ZzZYAf5eSIuNhQBfvsgIHyRrfRGFf7+wRfIL7qBMQ4usKoJhLBycEHAkaexN+ow8fhcQwXAImxEAaBIU8VVZHz1PuqvF2JmmvwFKzU1PhwdtuGJR+Nx/LEEouYhcrkcFZW3cPFKKpJS8tF+u5dY7AXU1QXwcN+BsOD9OHY4FmZm7I977esbRHJ6HpKSs1FYfIMTMUASHo+Hna6OiI4MRExkELbZrXyuOlNUoUff0twEAX6eOBATCn8/b+IX2fILruPvH3yFqyXlmJ4mfwQnEIpg67IbIY++ADe/cOLxVQkqABZhowsARVqrSpH+1d852xng8/mws7HCoYQIfO/FxyEiOMVuwXgoKS0bWTnXcPNWE7HYC/D5fLg5b0NMdCAOx8fA0lI5s8AfxsjoOPILriMlPQ9JKdmcfDtlAx6PB08PF0SE+SM2Khg21uz36N/u7MLFy2m4kpSNylsNnLSn2my1QETYfhyMi8TOnWR79AEgt+Aa/vHhSVy9VsFd0Xf1QNjjL8Nlfwjx+KoKFQCLQAXAg2m9dQPpX76HutIiTI+TPzPn83iw2mKJQwnhePXlp6CpSdZwo7G5GVeSMpCckseJ8RDwrdfAI4fjYG9vp/TnL3QQXErMxIXL6RgcJN9jzSaaGhoIDdmPowejWRu8o9ijX1nVyIlBlYuTHYID9yIhNgI7dtiD0EfsXXLzr+EfH51EUXE5ZjgQkAtFP/zJV+DsHUQ8/lqACoBFoAJgaW43VCPjqxO4VZSJqTEOenIVxMD3X34aWppk59u3trUjJS0bGVlXVcJrYP++1Q1rGhoZxZcnL+KTz8+gu5u8hSoXmJoa4/jjCXj68UMwMVndCNqFHv0ryTlobetSUobMmTfmsUNUhC8Ox0fBaiv7Rxr3k5NXjPc//przoh/51KvYsSeAePy1BhUAi0AFwPLoaqpF2hfvobo4B5MjQ8Tj3yMGXnoKWlpkdwYGBgZwJSkDV5JzcK30FidDVyw2mSA4cC8OxkfAZ58X423e7u5+vPO3T3DqbBInH9qqgFCojoMHwvGD15+F1RZLRq+RyWS4eq0MyalZSE7LR2cXedEkEqnD08MJMZEBiI+NgLEx2R59AMjOvYoPPjmFoqtlnHhsqIs0YOOyC9FPvwEHL7Luo2sdKgAWgQqAldN3uwUZX/4DlbkpGB8eIB6fx+Nh6x0x8L0Xn4SODtl2JkWvgey8UkxxcOZpqK8LX5/diI8LRURo0AO3uYeGR/GX9z7FPz8/i1kOPrhVEaFQgMcficcb338GZmb/WkylUimKS8pw/mIqktLyOXGj09HWxF4vF4QF++BgfDT09cn26ANASnou3v/4FK6X3uRE7Io0tbHN3QvRz7wJWzdyY8rXG1QALAIVAMqh/3Yr0r88wZ0YAA/m5iaIiw7Fm689CwN99lvrFJmamkJaRg7SMwuQmXsdIyPk+5v1dLXh77sbCbFhCA8LhLq6AKfPp+DXv3sHQxyYzKwFtDQ18eZrz+DlFx6DWCxBZk4BLlxKR3buNUxMctGjrw0fb3fERgchKiIEmoR79GUyGc5eTMUnn57BzVt1nHSIaGjrYMceX0Q+9QasHF2Jx1+PUAGwCFQAKJ/+rnakf/4eh2IAMDc3RWR4IN56/RmYGBkSja/oNZCWdRWDg+SLr0ioDpGGEGNj5Fs71yIGerqYmZ3lZGvbzNQQwf5eiAgPQEigH4QEu1+Ae4t+5a06SDks+jHPvAVLe2fi8dc7VAAsAhUA7DLQ3YHMr95HZW4KRvq7icfn8QBjY0NEhgfgx289D1PCZ6dSqQQlpeVITc9FYnIeOjr7iManqCaW5ibw9919x3bYh6j/BTB/xHHuUtqdol8LKQcXWxeKfuxzP4DFNifi8TcSVAAsAhUA5Bjq7UTqZ39FZW4Kxob6AcKddTwApmbGiI4IxJuvPQuzVd4GXy4LXgPnL6ciO6cEdY30395GYqFHPyEuAu47XYn36IvFUnx95hI+/+oiqmsaIOXAhVFLVx9O3oGIef4tbNq6jXj8jQoVAIugTAEwPTmO/tutEGlqwWyLLXjrdLCEMhgd7Ef6F++hIicZwz2dkHOgBkzu7Ay89dqzsNjEvgPfvcjR0NiExJQsTr0GHgaPx4fQwBQaJlugYbIFIiMLCLT1oCbUgppIA3yhJniE3OXkUimkc9OQzU1DOjcN6eQ4Zoa6MNN/GzODnZgb6YNcplqOhnw+D65OdggK3Iu4mHA473DgoOiLcfpcMr44eREVVXWQScm/R5o6enD02o+4F38Ccxt74vEpVAAsijIEwHBvJ8688xtU5qVCJp2/KaujbwT3wCh4BMfAfrcP1FgeMrKWmRwbRtbXH+J66gUMdrVzJgZCgnzw5qvPwNqKWXuYMmlta0dyahYys6/iasktSDn4oAYANZEmdLa6QNfOHTo2zlBT1+Akj+Uik8xiorUa4y2VGG+tgnSW/MArYKFH3xaR4b44HB+Nrdbke/RnZmbx4T9P4+z5ZNQ3tkImI/xNnwfoGphgZ0AkIp95HUZmFmTjU/4FKgAWYbUCYLi3C398+RBG+hY/39bWM8DOgEh4BMfAwdMPAnWygzjWElPjo8g8+T53YgDzs+BDgvbjh2+8QMRC9n76+vuRlJx5x2ugCmLxKsSAHAx+43jQ2eoEY/cgaFs5rfmdK7lMhsnbtRisyMZEWzXYPmsSCgXw2u2M0KB9iI+LgKUF+YI3PT2Djz49g1Onr6C5pR0y0rtJCkU/+tnXYWBKi74qQQXAIqxWAJz4t+dxMz+N8XotXX24+YXDIzgWO/b4QyAke+N3LXGvGGjjQAoAeno68Nu/Gz/5wXdhv92WePzRsTFkZuXhSlI2cvJvKNVrgKemBv3tXjDeHQYNY/K7HiSYG+nHYGU2RqrzIZMor49dQySEp4cTYqMCEX8gEoYGBkp7NlOmpqbx8WdnVaLoxzz/JvSN2Z9dsZaorSzHtYzLePKNX4DP53bkMBUAi7AaATA60It/P+QN+Qq32DS1deHmF45dwTFw2hsIdRFZV7u1xPT4OHLOfIyS1PPoa2/i5LxcV0cb/r6e+NEbL8LRUfne/EsxOTmJ9MzcO8ZD1zE1vXI3P20rR1gEfAciw43xoT03NoDu3FOYaL214mfoaGvC38cDsdFBiAwPhpaWlhIzZMbk5BQ++fwcTp2+gqaWdvK/BwpFP/bFH0DPkPTdGdWmtrIc+YmnUV+UgamBTgDAs7//FJ6+QZzmRQXAIqxGANRfL8A7bzy24tcroqGlA1efUOwKjoHL/mCoi9bG2SsXzE5PIefMP1Gc+A1625sADsXAD157Hk5O24nGHhoexYHDL6C1ffk+9AIdA2zaFw+DHd4sZKb6jLfcRHfuNxCPDy77tZvMjHDpzAfYTGBKoyITk5P45+fnuSv6AHQN54t+3Hd/BF0D8jbEqsxC0a8rTMP04L8eBe8IOYxXf/NnDjL7FioAFmE1AuBmQTpO/OS5Fb9+MdRFGnD08oVHSBzcAyKhoUXW1W4tMTczjYILX+Jq4jfoaq5d8W7MalgQA298/1m4ujiwGmtuTozDj34PZRU1y36twQ5vWAQ9Cr5gYx87ySSz6M46iZG6a8t+rdOObbh4+gS0WHboGx0bx8efnsG5C6loaiZ/F4bH48HYYit2+kcg4pnvQ0ePbMusqnO36BekYXro4f4mQj0j/M+VMk6PAagAWI+mVMYAACAASURBVARVFACKqItEcPTymxcD/hHQ0NZlNd5aRiKZQ+HFkyi48CVnYkBTUwP79rrjze8/Cy9PN6U//xdv/y8++ezMsl7D46vBbF8cTHZHKD2ftczQrXz05J6CfJkdFwcPhOOvf35b6fn0Dwzhr3//ApeTMtDT2098Y2uh6HtFJCDsiVegwcERhyqzUPRr81MwM9y7rNc+98cvsXufH0uZLQ0VAIug6gJAEUUxsNM/AppUDCyKVCJGwcWvVEIMvP7KM9jrtXPVz7ucmIWXXvv3Zb1GoKUHq+gXoWVB/s7CWmCquxntSe9DOjW2rNf96fe/wCNHYlYdv69/CH87MV/0u3s5MMeiRf+hfFv0kzEzvHIXT+ewY3jlP/+oxMyWBxUAi7CWBIAiAqEQO/b4w9U3DO6BUfRc7iGoghjQEIng4eGMN155Gv6+e5b9+t7eAQRHPYHRsQnGrxFo6cHm0Jsb5qLfSpkd7kHruf8HyTJEgJamJjKS/omtVstvE+3pHcDf3/9qvuj3kB8trFj0I46/CqEGvW+0gEwqxfWCbFxNPo+WGzkQj48o5bkifRP84XIpZ8cAVAAswloVAIrw+WqwdfWAR0gsvMISoGNownVKKotMIsHV5NMouPgVOmorOXFGEwqF8NztgldfOo6gAGaX8V743s+RlJrDOIaapi5sD70OkdH6bO9TNnPDvWg5/2dIJpmLAJ/9u3Hqs3cYuft19/TjxAcnVaLoRz71Kr1krMA9Rb80B+IJ5RT9+3nxTyfhvteHlWcvBRUAi7AeBIAiimLAMzQeuka0TWcx5DIZSlLPIefsp5yLgVdefAIhQfsfuCY5LRfPv/wzxs8UaOrA5vBbEBmaKyvNDcHsUDdaz/4Zkhnmuyx/+sO/45HD0Q/8u87uXrz/4ak7RX8ApPf3eXw+TDfbYHdoHKKefhUCIS36C0ilEpQW5Nwp+tkQT7A/sdMl8lF875e/Zz3Og6ACYBFICAA9DW3IZDJMzJGdL85XE8Bh937sCo6hxwRLIJfJUJadiLxzn6K58jqkSjSNYYpQKIT7zh146vFDOJwwf2Fvbk6CwIjH0d7RyewhPB5s4r8PbSs6XW0lTN6uR9uFv0AuZ3ZMZGxkgIKsU9DV0QYA1De04i/v/RO5BSUYGBgB8aKvpgZLW0fsizmGgKNPQ43QrIa1gFQiRmF6MkrSL6G9PB+SaeZCTxlomVji9xeuEo25ABUAi0BCAOyzdsXbUS+guqcVuU1lyG66gZHp8RXHXQk8Ph92rrvhERKL3cEHoGdiRjT+WqMyLxVZpz5Ac2UppBIx8fjqAnW4utjDxmYLzl1IZfy6TT4J9Lb/KhkoTUFv0UXG65968jAmxieQmV2EkVGyv9fA/K6fhZ0jfBMeh9/BJ8Ff41bOykTxm37z9axlHfEoAx6PD30rezj7hSP86HGYbuLGIpkKgEUgJQB+Hf3du/9fJpd9KwaayzCyzBvIq0VRDHgEx0HfhF4Sexh3xcDNG5CK57hOZ1F07dyxNeZFEPoVW8fI0Z74PsabK7hOZFH4agJY2DrQov8A7tneL8mEeIqsKOML1GGyfSfcg2IQdOAI9A2491CgAmARuBAAiiiKgZzmMgxzJAZcfcPgERILE0trovHXGqUZl5Bz+hO01VSotBigrD/UBOrY6rQTgUeegVd4AtfpqBQz01MoSEtEafoldN68Cinp41aFoh8SfxS6+oZE4y8FFQCLwLUAUEQml6O6pwW5TWXIbS7DEGExAADmtg7YHRKLPRGHYLrFhnj8tURNcTayTn2IxrJrmJsl+4FD2RgoftP3P3ScUcfBRkGVin5wwjHo6ZEfCMUUVRIA9FbKIvB5PLha2MHVwg4v+x6+KwbyWsoxOMn+LVUA6GmpR+KH9Uj88E8KYuAgTLeQn4Sn6jh5B8HJOwgAUHMtB1lff4CmihLMTnMzi56yPhAIRbBx8UDIIy9gZwC9z6HIzNQkCtKT5ot+ZRGkYuVNx2SCYtEPPfgIdHT1icZfD1ABwIAHiYHi9irkNpWje2yASA4PEgOeYfHYtHUbkfhrCae9gXDaGwgAqCvJRebJD9BQXoy5GbozQFkagVAEW9fdCHv0Rbj4hnGdjkpxb9EvhFS88imYK4EvEMJkuxst+kqCCoBloigGnveOR9tQN3Kby5HRUIKuUQ7FQOgBbLImOwlvLeC4JwCOewIAAA1lhcj48h9oKLtKdwYo9zBf9D0Q9vjLcNkfwnU6KsXU1ASK0pM5K/oCkSbMHD3g4hOKsEOPQluH2q4rCyoAVom1kQWOG1nguFf0XTGQ1VCK26Mr96peDg8SA7uDY2Fuy+4kvLWIvYcP7D3m3b9aq0qR/tXfUVtSgJlJsj3IFNVgoehHHH8VTnsDuE5HpRgZHkRRWhJu5qfhdkUhZBLSRV8Llq7e8Aw7AL/wOIg0qXESG9BLgCxxVww0luL2CBkxoIi5rQPcfMPg6huKbTuX73e/kWi7VYa0L/+GutIiTI+Tv+xJIcdC0Y986jXs2OPPdToqxfDgIHITz6IiOxH9DRWQS8kacAk0tGHpsne+6EcegEgkIhqfFPQS4AbgQTsDOU1laB/uIRK/p6UePS31SPv8bzCxtIaLbyh2h8RSMfAArF088MLv3gcA3G6oRsZXJ3CrKBNTY2Que1LYRaihie279iLq6Tdgt9OL63RUiqHBfuQlnr9T9MuXPY55tSgW/YCoeKgLhUTjb3ToDgBhFsRAblMZ2giJAUWMzK3g5h+O3SGxsHPzoq1MD6GzsQbpX/4dJSnnuE6FsgJ2BUUi4snXsNVp9eOf1xP3FP36MuITOQWa2rB03rhFX5V2AKgA4JDusQFcbZvvJrjV00w8vpH5Frj5R1AxsATf/sLKQZ39VJ1v/xut5vNkvTHU34e85AscFn0dWDrvgWfYAQTFJEBNoE40viqhSgKAHgFwiIWeCQ65BeGQWxB6xgdR1HqTqBgY6rmNnG8+Qs43H8Fw02bsDIikYuChPPw9ee7ddEJ5bGw+evVhrXn03+0Cg329yE+5eKfol0MuI7u9L9Q1hM3uAOwOjML+0IgNXfRVFSoAVARzXeO7YqB3fBCFd8RAdU8L5ASmmA33diqIAUvsDIiaFwOunuBRb3MKZU3Q2daCnMvfoO5aDoaaq8kXfT0j2Hj4Y1/UQXj5hYDPp4JMlaECQAXZpCAG+iaGUNBSSVgMdN0VAwZmFnDdHwIX31C47AsCn440pVBUis7WZuRcOY3q/DSMtNeD9NhjkZ4xrD38aNFfg9BPcxXHTMdIQQwMo6ClgqgYGOnrRv6FL5B/4Qvo6BvBeX8wPEJiqRigUDiko6UReYlnuSv6+iaw3uVLi/4ah36CryHMdAzvioH+iWHk3xEDNb0tkMnZ/wCYGB3CteQzuJZ8Btr6hnDZHwKPkFg4ewdBTUD/KVEobNLe3ID8pHMcFn1TWO/yoUV/HUE/tdcopgpiYGR6AiUdNchtuoHrHbWQEjj3mxwd/lYM6BnAxSeUigEKRcm0NdWjIPk8d0XfwAzW7vuxL+og9gaEEo1NYR/6Sb0OMNDUQbjDHoQ77MHozCSutVcjt+kGSjtqICHQ7jM5NnJXDGjp6sPVNwweIbFw2hsIgTq9+UuhLIfWxloUply8U/TriMfXMtkMh/2h8I89Cke3XcTjU8hBBcA6Q19D+64YGJuZRDFhMTA1PvpgMbAnAIINZvhBoTCltrIc+Ymn0XQ9D+PdLcTjLxT9gLhjcHB1Jx6fwg1UAKxj9BTFwOwUittuIbfpBm7croWYgOXnPWJARw+Oe/3h6huGXUHREGlosR6fQlFlFop+fVE6pga6iMdfKPqBCd+BvZMb8fgU7qECYIOgJ9K6KwbGZ6fvOBASFAMTYyjLvIKyzCv4+vc/h4OXDzxC4rArMAoiTW3W41MoqsBC0a8rTMP0YDfx+AtFP+jgo9i+w5V4fIpqQQXABkRXpHlXDEzMTaOodUEM1EFMYALY3Ow0qgoyUFWQgZO//xkcvXypGKCsW+4W/YJUTA+Rn/+xUPRDDj0BO0cn4vEpqgsVABscHeG3YmBGMofyznrkNpUjv7kcM5I51uOLZ2ceKAbcAyKhoaXDenwKhQ0Win5tfgpmhnvJBufxoGtug21e/gg78iRs7HeQjU9ZM1ABQLmLhkCIfdau2GftitcDHrkrBgpaKjAtnmU9/j1iQCSCo5ffvBjwj4CGti7r8SmU1TI7O4ufH/LB7Gg/2cA8HoysneDsF47AA8dgsYXZwJmNQk3FDZRkJuLJN35B/QsUoAKA8kAUxcCs5Dso66xDblM5ClsqMSWeYT2+eHb2gWJgp38ENKkYoKgoIpEIOiYWZAQAjwcDKwc4+4UjOOFRWvTv40GXLN32BcJjvz/HmakOVABQlkQkUL8rBuYkEtzorEVuUzmKWioxSVgMCIRCbHPfCzffUHiGH4SugTHr8SmU5eDqH4mcpkpWns3j8aFvZQ9nv3CEHXwMZputWImzVlnqkmVh8jkqABSgAoCyLIQCwYPFQGslJufYFwOSuTnUleSjriQfZ9/5LWxdPeAREguvsAToGJqwHp9CWYqQhEeQ++n/Km0S3z1F//ATMLPYrJTnrheWc8myuSQbMpmcHgPcgQoAyopRFANiqQSlt2tR3HYLBS0VGJmeYD2+TCZFU+V1NFVev0cMeIYcgK6xGevxKZQHYWy2CYY2OzDUfGvFz1As+uFHnoSpuaUSM1z7rPSS5ezoAG5eL4L7Xh8Ws1s7UAFAUQrqat+KgVd8j9y9M1DUWonx2WnW498jBv7yO+wJT0Dcd38Mw030g5NCHhe/SOQtUwDw1AQwtXeH074QBMUfhekmC5ayW3vIpFLcvHENJRlXUJuXjJmRvhU/qzDpLBUAd6ACgKJ01NUE2LvVBXu3ukAiewzlnbXIa6pAQWslxmYmWY8vk0pQnHwGdTcK8ea7p2Cy2Zr1mBSKIsHxx5D/2Z8hlz/cfpsvUIfJ9p1wD4pB0IEj0DcwIpSh6iOTSnG9IBtXk8+j5UYOxOMjSnluY3GWUp6zHqACYA0zMj2O8s4G1Pa1om2oBz3jgxibmcDk3HzLnrZQBD0NHZjrGsPGyAI7NtnA3dIeBprk+usFfD68rJzhZeWMN+TfQXVPK3KbypDTXIbhqTFWY4/0dePz3/0Qb/7tNKtxKJT7MbPYDEPrHRhqrf6Xv1Ms+iHxR6Grb8hBhqrJPUW/NAfiCeUUfUVmR/tReb0YO728lf7stQYVAGuMybkZZDWUIqOhBDW9LZDJFx8POj47jfHZaXSO9qP0di0AgM/jw9ncBiH2exBs7wltdQ1SqYPP48PVwg6uFnZ42fcQKrsakdtchvyWmxhhSQw0VlxDd0s9LGwdWHm+smkty0N1zlkMtDdAQuBSJQkEQg2YbHWAS9AhWO/aODewnXzDUHBHACgW/eCEY9DTM+A4O9VBKpWgtCDnTtHPhnhilPWYRUlnqQAAFQBrhqGpMXxTnoEr1QWrcuiTyWWo6m5GVXcz3i86j1hnXzziHgIDLT0lZrs0fB4fuzY7YNdmB7zqdwxV3c3zYqC5AkNKFgNdTbVrQgBcPf03VGef5ToNpSOZm0FPYyV6GivhEnIU3odf5jolIgTFP4K2W2XwCIlFYHQCNLSozfUC4rk5FGUmoyTtIjoqCiEhcGlYkebSPKLxVBUqAFScWYkY52/m4MsbKUp345sWz+J0RSYu38rHE55ROLYrBHweX6kxmMDn8bHTcjt2Wm7HK75HUd3TguL2KuQ2laN7bGDVz5+eHFdCluzSWpa3Lov//dzKPA3zba6wdvfjOhXWsdiyFT/96xdcp6EyKH7Tby7JgoTlI8D74akJYGTrBMe9gQg/epxobFWFCgAVpqq7GX/I+lwpRfBhzEjm8GHxReQ1l+PNwEex3WQLq/EeBp/Hu3tM8Lx3PNqGupHbXI6MhhJ0jbL7PnDJrewzXKdAjOrscxtCAFCA2ekZlORm4EZOMlpKMiGeIivG6SXLh0MFgAoihxxflqbis+tJkC1xi1iZ1Pe347Wzf8RTXtF4dHc4eODeLMPayALHjSxw3Cv6rhjIaijF7dGVtwGpIoMdjVynQIyB9nquU6CwyMz0FArSElGafgmdN69COsd+G7Ai9JIlc6gAUDHmJBL8KecrZDSUcBJfKpPi42uX0TzYiR8FPwmRQJ2TPB6Eohio72/HewVncKunheu0lMJ6ufDHBDEBXwgKWVSp6NNLlsyhAkCFGJoaw9vJ/0BtXzvXqSCnqQx9E8N4O/IFGBK+IMgEB9OtsDGyXDcCgEJZa8xMTaIgPWm+6FcWQUpgLogiikU/9OAj0NHVJxp/PUAFgIrQPzGMH1x4B73jg1yncpea3la8ef7P+N+EN2CsTX+5KJSNzr1FvxBSAmPCFeELhDDZ7gb3oBiEHXoU2jp0MuhqoAJABRiZnsDPrrynUsV/ge6xAfz44l/wvwmvE28VpFAo3DM1NYGi9GSUpl/C7YpCyCRki75ApAlL131w8wtHYNxBaGmRMzJb71ABwDETc9P42ZW/on344VOsHoa1hhm89Zzgqm0DS5ExdNQ0558tnUbX7CCqJltRPFaDtpmVXZy7PdqHXySewO/jX4O2kJxxEIVC4YaR4UHkXD6LW4UZ6Km+DtkqvEdWgkCkBUtXb3iGHYBf5AGIRCKi8TcKVABwiFgqxX8knkDTQOeyX8sDDwEGbjhi5g9LofED1xgIdGAg0IGztjUeMQtE1+wgTvfnIW/kJuRY3EHwQTQMdOCXSSfwfw+8BgGfvFcAZZ7Trr/kOoWHcrTq11ynQFkhw4ODyE08i4rsRPQ3lEMuVc44Y6YINLRh6bKXFn2CUAHAISeKzuJWT/OyX+emY4tnzSOxVWN5I28tRcZ4fctBJJj44KOeZNyaaF3W6292N+Efhefwit+RZb2OQqGoJkOD/chLPM9d0dfUhqXzfNEPiIqHulBINP5GhwoAjshuvIGLVcuzo+Tz+Dhq6o9jZgGr6tG31jDD2zbHcaG/EF/2ZS3La+B8VQ4cN1kj1N5rxfEpFAp3DPX3IS/5wnzRry+DXEbOawQABJo6sHTeQ4u+CkAFAAe0D/fgTzlfLes1umqa+JHVMbjo2CglBx54OGjqi+2am/HHjm8wLmXet/uX3FNwNN2KLQbL24GgUCjcMNjXi/yUi5wVfXUtXVg4ecEz7ACCYhKgpkL+IhsZKgAII5ZK8bv0j5fl66+npoVf2hyHjeYmpefjqmODX9ocx69bP2MsAqbEM/ht+sd49/CP6X0ACkVFubfol0MuI7u9L9Qzgo2HP/ZFHYSXbxD4ampE41OWhgoAwnxTno6WwW7G6/UF2vilzXFYL/O8fznYaprjVzZP4detn2FMOsXoNc0DnThTkYHveISzlheFQlkenW0tyLn8Darz0zDSUQ88ZFw4Gwj1jGHj4Tdf9P1CwOdzbydOWRwqAAjSNTqAr8pSGa8X8gX4uc3jrBb/BWw0N+FnNo/jVy2fYE4mYfSaz0uTEbDNAxZ6JixnR6FQFuN2axNyr5yZL/rt9cAyO3xWi0jPGNa06K9JqAAgyDt5pzArETNe/4JFDLZpWLCY0b3Ya1riJcs4/OX2eUbrZyVivJN7Cv8d9wrLmVEoFEU6WhqRl3iWu6KvbwLrXb606K9xqAAgRGbjddy4Xct4fZyxN0IMd7GY0YMJNNiJpuluJA4WM1pfersWWY2lCN7uyXJmFMrGpr25AflJ5zgs+qaw3uWDfVEHsTcglGhsCjtQAUAAsVSKj4uvMF6/TcMCx825O1t/2jwcNVNtaJlm5k74cfFl+Nt50AuBFIqSaWuqR0Hy+TtFv454fC2TzbDd7QvP4Gha9NchVAAQIKmmkLHPvxqPj5c3H4Aaj7tiqsbj4/uWCfi35vchZeAR0DM+iOSaIsS5+BLIjkJZ37Q21qIw5SKnRd9hfyj8Y4/C0Y38LiSFHFQAsMycRIKT5WmM1x8x9YetpjmLGTHDRnMTDpn64nQfM7OiL24kI9xxL0S0v5dCWTa1leXITzyN+qIMTK3AGny1LBT9wAOPwN5lJ/H4FG6gAoBlLlXnYWBihNHaLSITHDb1Yzkj5hwxCUDhSDW65pbevRicHEViTT4OuQUTyIxCWft8W/TTMTXQRTz+3aKf8B3YO7kRj0/hHioAWGRGMoevy5h/+39iUygEPNUxy1Dnq+EJ8xD8of0bRuu/KstArJM/hAL6z4pCeRALRb+uIA3TQ8z9QJTFQtEPOfQY7BxdiMenqBb0k5pFMhuuY2R6gtFaB63N8NJzYDmj5eOt54QdWlaonepYcu3I1BiyGksRucObQGYUytrg26KfiumhlY/9XinfFv0nYOfoRDw+RXWhAoBFrtwqYLz2KfOIVQ34YZOnzCPwi+aPGI0QvnAzhwoAyoZnoejX5idjZriPbHAeDwZWDrDfE4DA+GOw2b6DbHzKmoEKAJao6m5Gw8DS35oBwEPHHju0rFjOaOU4aG2Gu842lE80Lrm2cfA2bvW0wMXclkBmFIpqMTM9hV8c9sXsGLOuH2XB4/FhYLMDrr4RCDpwDJu2qO7nCUV1oAKAJS5U5TBee9BkP4uZKIcEk/2MBAAAXKrKowKAsiHR0NSCtok5EQHA4/Ghb2UPZ79whCY8Ros+ZdlQAcACQ1NjKGipYLTWTsNCaSN+2cRNxxa2muaMzIHyWsrw0tRBGGrpEciMQlEtXPwikdd8i5VnKxb9sIOPwWwzLfqUlUMFAAtkNZZCwnDedryp6n/7X+CA8T68w2BOgFgqRXbTDRxyC2I/KQpFxQiOP4b8z/4MOQMTLSbcU/QPPwEzi81KeS6FQgUAC+Q03mC0zlBdB/v1nFnORnn46rvi0550jEiW7mzIaaQCgLIxMbPYDEPrHRhqrV7xMxSLfviRJ2FqbqnEDCmUeagAUDLdYwOo62tntDbQwJ1Ty9/losbjw9/ADZcGipZcW9Pbht7xQWzSNSaQGYWiWjj7hSN/mQKApyaAqb073INiEHTgCPQNjFjKjkKZhwoAJZPdeINRuxwABOivPfetEAN3RgJADjlymsrwyK4wAllRKKpFSPwjyP/iHUD+8M8CvkAdJtt3wj0oBiHxR6Grb0goQwqFCgClk9PEbPvfXtMSWzXMWM5G+VhpmMFOwwLNM0u7mOU0UgFA2ZiYbbaCgZXDA4f5KBb94IRj0NMz4CBDCoUKAKXSNTqA5kFmnt6BBu4sZ8MeQYY70dy9tABoGOhAz/ggzOkxAGUD4uwbhsI7AoAWfYoqQgWAErneUcNoHQ887NNfu5ac+/Wc8XF3KqOjjusdtYhzpmOCKRuPwAOPoL32JjxD4uAfdQAaWtpcp0Sh3AMVAErkRiez2d32WpYwEOiwnA17GKrrwk7TAk3TS+923LhdRwUAZUOy2doWP333c67ToFAWZe1cQVdxZHIZbnY1MFq7R9eR5WzYx0uX2eCi8tt1kCmpH5pCoawtZmdnMTs9w3UalEWgAkBJ1Pa1Y3x2mtFapsVTlWH6M0zMTaO+n9lMBAqFsvaZnZ5BfsoVvPPz1/DTuN1IPv0Z1ylRFoHIEYAc8pfu/7PHfvJ/TpCITYobHbWM1pmpG8JqDd7+vx9bTXMYq+thUDy25NobHbXYYWZNICsKhcIFM9NTKEhLRGn6JXTevArp3Ldfhiqyk5Bw/EUOs6MsBhEBIB7v/sf9f+aX8MS6EgAV3cy2/1111k8hdNO2QfZI5ZLryrsa8LhnJIGMKBQKKR5W9BXpbyjH6MgQNTZSQeglQCUgk8vR2Mdsm9tZe/0IACdta0YCoKGvHTK5HHwej0BWFAqFLWamJlGQnjRf9CuLIBUvfb4vl0qQe+UcDjzxPIEMKcuBCgAlcHukF5MMfhEAwFl7K8vZkIOpmJkUz6BrtB9bDNb+0QeFstG4t+gXQiqeXfYzKnKSqABQQagAUAJ1DC+5GavrwUx9/Vh9WgiNYKiug2Hx0sOB6vrbqQCgUNYIU1MTKEpPRmn6JdyuKIRMsvyir0hfXRnGR4ep1bGKQQWAEmhgOPzHSWv9fPtfwFnLGgWjS88+r+/rQKi9F4GMKBTKShgZHkRRWhJu5qcppegrIpOIkZt0AbGPPqO0Z1JWDxUASqC+v43Rum1a62+kp52mBSMB0DDA7D2iUCjkGB4cRG7iWVRkJ6K/oRxyqZS1WOXZSVQAqBhUAKwSmVzG2P/fRrSJ5WzIY6PB7Gdq7L9NLwJSKCrA0GA/8hLPEyn6ivTWlGJyYhzaOrpE4lGWhgqAVdI/MYwZyRyjtdaa61EAmDNaNyOZw+DkCEx16BkghUKa/t5uZF88jar8ZAw1V0MuI1P0FxBo68N2tx+mqABQKagAWCWdo/2M1hmr60FPTYvlbMijL9CGgboORhhcBOwc7acCgEIhxFB/H/KSL8x/068vg1xG1pJboKkDS+c98Aw7gKCYBKgJ1InGpywNFQCrpHN0gNE6plvlaxEbkTnKxY1Lrrs92o9dm9e+DTKFoqoM9vUiP+XinaJfTvybvlDXEDa7A7Av6iC8fIPAV1MjGp+yPKgAWCVdDHcANotMWM6EOzaLTFA+sbQAYPpeURbnaNWvuU6BomJ0trUg5/I3qLuWw8n2vlDPGDYefvNF3y8EfD6957NWoAJglTA9AlhP/f/3s0moz2gd0/eKQqE8nM7WZuRcOY3q/DSMtNcDkBONL9IzhjUt+mseKgBWCdOitknErEiuRTYJmXl80x0ACmXldLQ0Ii/xLHdFX98E1rt8adFfRyhHAGzapK0xqb5HypNt4/GwlSfnzV8N58lkchmvR85Dh1wua5Lo8UvQ1TWllJgqQv/EMKN163sHwIDRut7xIZYzoVDWF+3NDchPOsdh0TeF9S4fWvQ5QKS7+YScJ79bOHhyjMrlvDbw5U1qaiiYHu5iBYISlwAAIABJREFU5kD3EFYsADQMLKxlEv5T4MniMMXbLePJBDwAkAPyhX+kch4w/z/weHwIxyGGrkUZwM9oqiyBretu8Plr95LItHiWUQsgDzyYqjMrkmsRM3VD8MD79r/7IsxI5jAjmYOGQEgoMwpl7dHWVI+C5PPcFX0DM1i778e+qIPYGxBKNDblW+SQf1fxP70cAHhyQA5IJYBQ17JNLscFqMk/FY92l64kxrIFgEDX0o8nxy9lUoSCJ+fPl3fGqAO8vYB875++dwRauvpw8g6A8/4QuHgHQsdwbV2UG51ZuvUNAAzUtSHkr9/TFiFfAH2BNkYkS78fo9Pj0NA1JpDV2kJdpAnx7IPHqa43hBraXKegcrQ21qIw5eKdol9HPL6WyWY47A+Ff+xROLrtIh6fsiKseTy8DhnvdaGOZRl4+M+58a6LWIZiZFyVRHpb7OUy2bsAIpZX8xdnanwUpemXUJp+CTw+H1sd3eDiEwLn/SGwdnQDj89XTiCWGJlmKAAEOixnwj16Ai1GAmBkZgKbqAD4F4yt7NHTuPRo5fWAkdV2rlNQCWory5GfeBpN1/Mw3t1CPP5C0Q+IOwYHV3fi8TcKs9OTqCvJx62iLNy6msVOEB48AJwX6lqWyvnyl8Wj3deZvIyJAOCJ9Cxel8tk/wUeWHOykctkaKupQFtNBRI//BN0DE3g7B0Il/3BcN4fDE1t1XOPGpkeZ7ROZx0aAN2ProDZzzjKUDRtNFyCDm0YAeAafITrFDhjoejXF6VjaoCZhbgyWSj6gQnfgb2TG/H4G4WBrjZU5qbi1tUsNJUXQyIWkwrtyZPxioS6lv8zN274K+DWQ8+oHy4ALC21hOO8T+Vy+RFlfetnysTwAK4ln8G15DMQCIXYsccf3tHH4B4QAb6aamynDzMUAHoCTZYz4R6mLofDU1QAPAjrXf5wCTmKW5mnuU6FVdzCHsHWnT5cp0GUhaJfV5iG6cFu4vEXin7QwUexfYcr8fgbhdnpSRQnncHVK6fQXsupmBcA+KlId9hnFpZHMN61qFvd4pVUx9xUOI5EQM75DFfJ3ByqCjJQVZABAzMLhD/+EnwPHodAnVtrybHpSUbrdDfADgBTATA6w0w0bUS8D78M822uuJV9DgNtdZDMzXCdklIQCDVgYu0I1+AjG6b43y36BamYHuohHn+h6IccegJ2jk7E428kZqYmkHnyfWR//SGmJsa4TucuciBACF4xT98qYna0o+lBax4sAIyM9IRifhIATzYTXAkjfd345s9vI+Pkhzj21ttw8wvnLJcpMbMP6PU4A+B+9BgeAUyJlTdjfD1i7e4Ha3c/rtOgrJCpqQn8x9FAzJL2vODxYGDlAGe/cATGHcNma1uy8TcoxclncP4vv8X4yCDXqSyC3E4uk6Zpam7xn56+3Xn/3z5AAHiqi8Q9F+WQq1zxV2SopwMn/u157A6Nw6M/+T+c5CCWShit01LTYDkT7mH6M85JiJ2FUSjE0dLSgaaeIRkBoFD0g+O/Awsra/ZjUgDMH1F/+tsfopqtS33KxVYqkKXCxGQfBgbu2YL9FwEg1O3+rRwIJJfb6riRcRntNTcReOxZ4rHnGAoAAdau1wFT1HnMfkYJodnjFApXOPmGo+hkPTsPVyz6CY/CYstWduJQFqWp8jo++o/vYXSgl+tUloOzcEb43hzwpOIf3iMARPqW4XIZfrSSpxvoaCLAwwGejlbYbGoAdTUBxFIJugdGcaO+A/mVTegfZuf8d6CrDRffI78LIGEoANTXsNkRU9QYihyxjNl7RqGsVYLiH0HRyb9BWQY+PB4f+lb2cPYLR9jBx2C22Uopz6Usn4qcZHzyn69BPMveUaalqQH2udjCw34LTA31oClUx9jUNDr6hlF4swnXa9owM7eCz1EenhDqWSTPjXV/vvBHCgLAU10u6/4LgGU13zvZmOOHj4Uh3t8dIvXF7xTKZHJUNN5GanE1Uq9V40Z9B2Qy5TlciTm4MCWWMtvOFjD8dryWUWdodMT0PaNQ1iqbrW2ht9kOY50PvHfFiHuK/uEnYGaxWYkZUlZCafol/PM/X4dMydMWBWpq2Odii/C9OxC+1xkuthYPXT80NolPrhThr2dzMTCyzC/Vct4fYGJyYeEo4O6ntkiv6xW5nOfI9DlCdTX84ulovHYsGGoMDHv4fB48HKzg4WCFfzseiYHRCWRcr0VqcQ0yrtdieHztjQgQM/yHoM5TjbZFNmF6BMD02IRCWcs4+YSj+JvlCQDFoh9+5EmYmluylB1ludwqzMSnv3lDacXf1FAXEXucELHXGUGeDjDQYd4qbqSnjR88FoZnYvfjp387j68zGHn+LGAunBX9dA74BXBXAHiqy+XdP2b6BENdLXzx9nPw3bltOYHvwURfB98J9cJ3Qr0glclQUtOG1Gs1SCuuxs3mLsjlZP2vVwLjOwA81XY0VAZMBYCY3gGgbAAC44+h+JsTWOoYgKcmgKm9O5z2hSAo/ihMNz382x+FPD0t9fj47dcglaz8ywufz4On41ZE7HVGhLcT3LdvAY+3OnMdIz1t/OOnT2Cfqy1+/O7ZZdyvkn8fpqb/jf7+CQEACHW6jwBgtMekoyHCmf9+CZ6Oyrt8osbnY5+LLfa52OKXz8agZ3AMl/Ir8UXqNZTVdygtDoVCoZBgq509dC1sMd7d/C9/xxeow2T7TrgHxSDowBHoGzAbp00hz9zsNN7/xcuYmVz+/TUejwcfNzs8HrEX0ftcYKzPzgyM5+J8oCkS4nt/+JLpF2d99Wnhk2Lg7wIAkPPxPI/hF+7/ef2oUov/gzA31sOLCX54McEPVc3dePuDS0grqWE15koQMnQklMhlLGfCPWI5w+MQtfV/H4JCAYAdPqEoOTMvABSLfkj8Uejqr9/x4OuJ8+/+Dr1tjct6DY/Hw6HAXfiPZ2NgZ0lmwN1j4V6oau7Eu6ezGa3n8eRPA/i7AEZGejwxApi8KMzLCY+FkzUGdLWzwOn/+i5Siqvx+p++Rs+g6jgtMb3dL5av/3NvpgKAqWiiUNY6gQeOobOxGh5BsQiISYC2jurNM6EsTkvVDeSd+2xZr7GzNMG7P3x0VcfjK+WXz8UisbAKzYs7/yqyFzrmpnzhnCgcAKMB7b96PnZVCa6GSG9nZL/7A+xmefdhOairMbMiljAsjmsZpu19TN8zCmWtY2O/Az//21eIfuRJWvzXGHK5HKf//Ktl3UUL3u2IzHff4qT4A4BIXYBfPBPNdDlfyOdF8sHjMfpK7+1sg53buW1FsTDRR+IfX4WfOzdv8P0IGH6bZdotsJaRguERAMN2QQqFQuGKqsIMtNVUMF5/MNAdp//rRRjqcmv7nuC/C2ZGeozWyuXw4ANgNBMy1kc1RkdqitTxxdvPw8nGnOtUmN8BYFgc1zJMdwAE9A4AhUJRcVI/fZfxWh83O5z4yZMq8dmmLuAjdj+ziY88Oc+VD8CByeK9LjarSEu5GOho4uSvn4eWiNHJBWuoMxQAU9L1MdXtYUzKmP2MQgE9AqBQKKpLZ2MtWqpuMFprYqCLz3/1HDSEqrOzud+N4SAoHuz4PMCAyVr7LaaryQkAUNfSjSklWSjaWJjg509HKeVZK0VLndkAnDHp2jM5Wi7jkmlG67TURSxnQqFQKCvn6pVTjNf+31cOKrG9T47BodXb5TtYbWK0jgcYCOQAowMDPe3Vn20cf/sjtPYPw3v7ZgS72yMm2AM77FZ+r+B7hwPwz6SraOjoW3VuK8FAk9nFnvENIACYihwDTWbnUxQKhcIFFbkpjNb5uW/D0eDdq4olnROj4mYTkgqrkFJaj9q+ITSd+S10NVc+QdZIj1mtlgN6AgCMvpIJ1Vd3vnG7bwh1d9oTcmvakVvTjv88mQFrY30E7bRDtI8bQnxdIVJnvkUsUFPDSwcD8KO/nF5VbivFQFOH0boxht+O1zLMBQCz94xCoVBI09NSj6EeZuZz3z8StKIYgwMjyC6sQvaNeiRVNqH/Phv8nNJ6xPntXNGzASynhpI7uEjKrXzgn7cNjuKfWWX4Z1YZNNUF2Lt9M6K8nREf6oUt5ks7ZD0W4YXffHQZo5Pkz9n1Ge4ATGyAHYBxCRUAJPjo1TBG6557N31dxKVQSNJcVcponbW5MaK8XRitlctkqKlpRXJ+JbIqm1DY2AWJbHFzuJSiqlUJgOVATACkXL215JppsQQ5NW3IqWnDzz5JgqO5EaK8diB4rzP89jhBXfCvnvo6GiL4ezjgcv6DBQabGGgyO/sZkUywnAn3jDEUAPoa7NhhUigUymppr2VWRyK9ncHnL+7lPzE2gZyiKqRcrUbKzSb0jDL/EphyrQZyuXzVswKYQEQAzMxJkF/duuzX1fUMoe5yIf7f5UIYaokQ4GyDwN2OiAvejU0m+nfX+e2040gAMNsBGBFPQiyTMnYOXGvMySQYlUwyWst014RCoVBI09vxr7MbHkTAru33/YkczU2dSMotR3JpPa42dmJOujIL+N6RCVQ1dcGNgO8OEQGQd6MW0+LV2eEOT83iwvU6XLhehx+9fwluW0wRuGs7ov3d4eloraRMl4eGQAgNgRAzkrmHrpNDjn7JCCyFxoQyI0ufeATyJaaeAd++XxQKhaKKDHV1Mlrn6bgV05PTKLpWg8zSWiTdaEBj/4jS8ki9WrV+BEBy/k2lPk8ml6Oiow8VHX1451IhDLVWfmNytZjpGqF9uGfJdX1z61gAzA0zWrdJb33+/BQKZX0wNcbss+wnv/8CmdVtmJwTs5JHytVb+OGTkaw8WxEig+rTb9Sx+vzhKe6Mdiz1mE176p1TnjpUNXrFzH5pNuuv3kuCQqFQ2GJullnH1qXyRtaKPwBcb+jE0BizY9XVwLoAqO/oRWv/KNthOINpUWP6LXkt0jvL7GdjKpYoFAqFC6QS1ZjcKpXJkHG9lvU4rAsATYEaXo/yhpPF0i19axFLhgKgc5bRiMY1ye3ZQUbr6A4AhUKhPBwNdTUEu9jCSEeT9Vis3wGwsjDBb374KH4DoK93EKn5N5FyrRpZt9owPvvwy3NrgS0Mi1rrTC/LmXBH6+zSdyAAYIu+GcuZUCgUytrDVFcLIW7bEO3rhlA/V+hpsV/8AYI+AABgtskYTx4JwpNHgiCZnUNxaT2Si6qQUtaAut4hkqkoDUt9ZtvaA+JRjEunoatG5j8sKUYlkxgRM/M5YPpeUSgUynpGjc+H6xZTRO1xRHSgB3btsCbS938/nI0wEoiE8PVxha+PK34jB1paOpFZfAvJxbXIqWvDrGRlPZSkMdUxYtQKCADtM31w0eamZZEt2meYzWHQEAhhrM1o7tT/b+/O46q8z/z/v+4Dh8O+KCoCKpu4gQKuEUUk7ks2YxqbzLeTZtrOd9pf22Tafh/TmWmbmfTX5ZfOpJm20187zbRJJk1qNhdcEEFUxAXEhU0EEQUEZN/POXDu7x8oOSYoh+Xch4PX8/HIHyH3OddlQs71Pvfy+QghxIQz2cudVfPD2LQihi1r4/H3Gf3+OqM1PvYwVCA8IoQXI0J4cdcGujq7OX22mAM5BaTmX6WmZfyupKdTFCIDQymsHXoBies9tyZcALjeY9vp/+gpM9E5IOEKIYSjzJk+mY1L5rB59SJWLJr9wNUDHWF8BIDP8PTyIGVtAilrE3jtMyss5ZRVYe4betEZLUVPmWlTALjWbduwdCYVNv6ZIgNn2LkTIYRwLE83PavmzmTTigVsSY5j+pQAR7f0QOMyANxLISIylK9HhvL1F6CpoYVjOYUcO3+Fg5fKqG9z/E570VNtG27FnbbtMuVMirpu2HTcnGkSAIQQE8+syX5sXBzNllWLSFwyd9Q752rJCQLAvSYF+vPU9kSe2p5IX28fFwvKOXamiFc+yHJYT9FTZtp0XL25mQZzK4F6v6EPdgJ3/zy2sPXfkRBCjGeKAklzZ7Fp+Xy2pSxm5nTnXeHU6QKANRdXFxLiokmIi3ZoAAj1n4q3mwcdpqHPRhR13SDJL1aDruyvsNO2b/9ebu4E+8oaAEII5zc1wJe9b3zb0W2MCU2WAp7oFBQip4TadGyxjUPTGRR3Vtp03Gy5AVAIMUFMpI8yCQBjJC442qbjCjuu27cRDRV02BYA4oJn27kTIYQQw6VpACi+VkOX0ahlSc0khM6x6bgaUyM1Ni6dO57d6Kmn3sZNgBJmzLNzN0II4exUmjV+5F3TewCe+8F/UdXUxvKoENYums3m5HjmRdp/z2MtzJk6Ex+DB+027CZ1rv0KjxtWatCV/eS227bDo4/Bg2gbL48IIcTDxGLq5cLlMjLPlXA47wr5VfWUffBj/Ly02eJeswBw/VYD5XX93xiPF9/gePENXnnvKLMm+5G8MILNK2NJSYzBoNdr1dKY0ik6FgZHk11xcchj89pLeTzQ2QNAqU3HxYXOQafIlSYhhID+R9kzTxVw7Hwphy5//lH2rPMlPLY6TpNeNAsAh05cGvTnlY2t/Ckznz9l5uOhd2VZVAibls/nsUeXEBrkXDsIJoTOsSkAlHRV0dbXha+L45eCHIm23k6udtXYdGxCiG2XRoQQYiJSLRYqyqs5eOIih/KukFNe/cDF7A6fKpx4AeBwTuGQx3Sbe8kqriSruJJ/+OPBexZYWLV0HnrX8f1NcsmMuTYdZ1EtnG0rYV1Agp07so+cthJUbFuN0dZ/J0IIMVF0tnVyJreEAzmFpF4opaal0+bXpp0rQVVVTTYH0iQAdBvN5JQO//G3ysZWfpd2jt+lnSPA00DS/DDWJMxh29oEpgWOv8V0pvsGEjU5lLLGqiGPzWq+5LQBIKvlgk3HRU+ZyTQf510kQwghbNO/ZH1GTiGHc0vIunJjxBva1bd2cKm8mkVR9r93SpMAcCy3hG5T76jeo7nLyJ7cK+zJvcJ3fr+P2NAprImLGthkYbxYE5VgUwAo7rpBjamRYDfnGpA1pkabT/8nRzlnwBFCiKH0dPVw6kwRGXklHM4vo7TetqeibHH4VMHECQBp2YNf/x8pi6py8WY9F2/W88a+UwR6e4zp+4/G2tmLefPMPptOkZ9oucwXpibbv6kxlNl80aY/m4JCUqQ217GEEEIr3T0m/up7vyaz6AbtxqG3gR+JI6cL+d7/2mSX97amyUX1tDzb7hgfqYYOx28IdNdU7wDmTrNty99jzZewqCM7TeQIfaqF4y22hbn5QWFM9XaumziFEGIorZ097M0vs9vwB8gtq6ahpd1u73+X3QNAUUUNVU1t9i4zriRHxdt03G1zC+dsfJ5+PDjdVkyj2bb/lnL6XwghRsaiqhzNK7F7HbsHAB93N761eTnzg53rWvdoJEcuRu9i25aQextO27mbsbPfxl71Li6sibAtBAkhhPiUm6uOpHmzCPC0/2Pidr8HYMb0QP7l5Wf5F6C+rpG0k5c5fLaIzMJKu55CcaQAT19WhceRWZY35LFXum5ypauKOZ7je7W8os4bXO2utunYpIgE/D197dyREEJMDIE+njwaG8nmxP4F8fy8tLmvTdOlgKdOm8zzO5J5fkcyvUYTZ/JKOZRTQFbBNS5W3dayFbt7LGa1TQEAYF9jDnM8d9q5o9HZ32j7mYrHYlbbsRMhhHBuOkUhdsZUkuMi2bQ6jkcWRWny3P9naRoA7ilscCNxZQyJK2NAhYqKajLOFHLoTAlZpTcwmvsc1dqYWBAUQfSUmZTeHnr9gzOtJZRPuUWk+3QNOhu+su5qzrXZdq/C7MAZzJsWZt+GhBDCyUzycmf1/DCSF89hW3I8Uyc7fi0bhwWAeygQHhHCixEhvLhrA92d3eScLeZATgEH8q9SrfEOSWNl24JV/Nuxd4c8TkXlrVtpvBL+JQ26Gr7/qcuweeW/JxYm27cZIYRwEnOmT2bjkjmkLF/AqsVzx91qtuMjAHyGh5cHKWsTSFmbwGt3Vlg6ePwCh/JKOV1WjanPOR6dWxvVvyZAS/fQj3MUdlZysaOcRd6RGnRmu/PtZVzuqLDp2ABPX7n5Twjx0PLQu7J63iw2rVjA5jVxBE8NcHRLDzQuA8C9FCIiQ/l6ZChffwE62jrIying8OkiDl0qp66ty9EN3pfBVc+z8ev57amPbDr+7bp0YrzCcRknu+f1qRbeqUu3+fhdCetxc3WCXykhhBgjsyb7sXZhJBsTY3l0ZQwGvfN8BjpPp3d4+3qzdeMKtm5cgWqxUFx8nUMnL/HKB1mObm1Q2+av4oNLGTR0tAx57PXuOvY15PDElEQNOhvax7dPcqOn3qZjJ3v5sXmuc29xLIQQQ1EUSJo7i7Xx0WxZm8CcsCBHtzRi4+Or5ggpOh3zF0Tw8teecHQr9+Xm6squ+A02H//+7WNUGR3/RES1sYGPGk7afPxzizdhcNXbsSMhhHC8qQG+7H3j27z0whanHv7g5AHAWWya+whBNu6KZ7b08dvq/TbfdGcPFtXCr6r2YLLYtoHTdN9ANs19xM5dCSGE4zngaT27kQCgAb2LCy8s32bz8SVdN/lz3TH7NTSE/6nLsHnRH4AXlm3DVSe/SkII4Uw0/dQuKquis8eoZclxY23UYpbNXGDz8R/fPsmp1iI7djS4M23F7G3Isfn4xTPmybr/QggxaiqtrZ2aVtT0JsAv/vAP3GxoY3F4EJuWzmNzcjzzIkO0bMGhvr5qBxf/Uoqx1zzksSoqv6neS6ghkJnuUzXoDiq6a3nj5ic2X35wd3XjW0nP2LkrIYSYoHr7KCqs4GBOAYfzrpBfVc/V3a/ir9EW95oFgLKqeirq+++EP1New5nyGl557yizJvuRvDCCzSv710A26CfujWTTfQN5LmEjb57db9PxPRYTr1x/hx+GPW/3EFBtbODHN97FqA4dTu56fskmm+9tEEIIcedR9lMFHDpdRFpBObWt9z7KnnW+lMeTFmnSiytgwYZLAUZz76iebzx88vKgP69sbOVPmfn8KTMfD70ry6JC2LR8PtsfXcyMoIk3XJ6OW8exa/lca7DtGntrbwevXH+HV8L/ilDDFLv0dKOnnh9df5u2XttPP0VNDmXHwrV26UcIISYK1WKhoryagycucijvCqfLax64mN3hU5dHFQDMfbbdvA30ugJdgPdQRza3dRE0eeQ7vKWdLhzymG5zL1nFlWQVV/IPfzzIrMl+bFwczZZVi1i1dN64W0ZxJFx1Ov5p3Qt848PX6DL32PSa1t4OflDxFt+duZN5njPHtJ+izkp+cfODYQ1/L707/7jhBVx0tm15LIQQD5Outk5O55ZwIKeQgxeuUjWM5ewPnyvBYlHR6Ub2uEFDi82f5Z2uqDShDB0Artc2jjgAdPaYyLky9KY4n1XZ2Mrv0s7xu7RzeLnpSZw7k00rFrB1bTxBgf4j6mU8CPWfykvJu/jxkf+2+TVtvZ38qOItdkxZzc6pSSiM7lkUFZWDjWf5U+0R+lTbl1ZWUHg5+YuE+NnnbIQQQjif/iXrM3IKOZxbQlbpzRFvaNfQ1sml8iriZs8Y0eur65ttLuWqKFSqMOTXylOXylmxIHxEDR07V4yxd3S7+3WazKRdKiftUjnf+f0+YkOnsCYuis2rF7Fi0exRvbcjrImMp/DWNT4psH0Fwz7Vwl/qs7jSVcVfB61nxgjvC7jRU89/16ZxuePasF/7RGwyqyPjRlRXCCEmil6jkTO5VziYU8DxgutcrB67BdwOnyoYcQA4edm2z3VV4bqrRSVfURhyA/dDpwt5ede6ETV0OHvw6/8jZVFVLt6s5+LNet7Yd4pAje6YHGtfeeQJyhuruHyrfFivu9hRzt+XV7DGL5anpq5mutskm15XY2rko/oTZLVcHtFCQwuDo/jKI48P+3VCCDFRdPeY+Kvv/ZpjxZW09dh+0/RwpJ0u5P98afOwX6eqKkfO2vb4uKKS56oo6jFQvjnUwWeKrpNfepP46OGnkvT8q8N+zXA0dHTb9f3tRe/iwr9s/hrf3fMGZY1Vw3qtRbWQ2XKRzJaLzHKfynLfeSzwmkWIIRAvXX8g6uzrptrUSEFnBWfaSmxe138w0VNm8srmr8qCP0KIh1prZw9788vsWuN8eQ0NLe0E+vsM63VH80ooq7LtTISiqJmuJsUly0212PQkwE/fPsT7//qVYTV0ubya6qa2Yb3mYeLl5s5Ptn+d7+z5JZXNtSN6j8qeeipHMdyHEuo/lVc3fxUvvbvdagghhOhnUVWOnCth1/qltr/GovLzt9NsPdxsNPSe1NFW1QRqri2vOHS6iI+zLtjcEIC/p4GXtjxCTEjghFpDeSz5uXvx021fH5fP1Af7BfLaY9/E33PkT4AIIYSwjd5Fx6q5MwnwGt6l7TdTT3Gm6LpNx6pwktu3O1z7/0b5rQLLbHnh//OL94kKmUJslG0r+M2YHsiPXnqGHwG365o4fPISh88Wcazout2unzijyV5+vP7kS/zo0O8pqa90dDsAzJsWxisb/0aGvxBC2FGgtweJ82ex6ZFYtiTH4e/tOazXn7p8jX/87Sc2H6+o6q/gzkqA5na3Pxt8TD9TYchnu9q7e9jxT7/jw1e/anMIuGvKtEk8vyOZ53ck02vu5UxeCYeyC8i6fG1M76B8kFvtjRTcusb8oHB04+yUxCRPX37x+Lf496z3SC8969BekqMS+Pvk52SLXyGEGGM6RSF2xlSS46LYvCaO5TGRI37uP6fgGrt+8F/0mGxeAKjS1HFrLwwsBXy9R1WCf4vKP9vy6rrGNja+9Aavv/QMz6QsHknPuOpdSVwRQ+KKGAAqrteQkVPAsQtlHC24TqfJPmcHKptu8fKe1/Fz92LpzAUkRcaxdMa8cbOojd7Fle+mPEeo/1Tezj1In2V0j08Ol4vOhb9euoUvxK/XtK4QQkxkAZ7uJC0II3nJHLYmJTAtcHRnVi0WlT/sP8X3f/sxpmGsOaCg/AfQC1Z7AZhce15yaz+xAAAe7ElEQVRzM7u/AITa8iadPSa+8pN3eOvgaf75ha0snx82vO4/IzwsmBfDgnlx1wa6O3vIOVfMgZwCDp6/SlVL+6jeezCtPZ2kl54lvfQsvu5eLLsTBpbMmO/wO90VFL6YsIEVs2J4PevPml0SiJocyreTnyV6ytiuNiiEEM5A0enovyd+bMwK9GfjkjlsTYojMT56TFaztVhUjl+4yitvpnJ++AvslRjbPX51928+Xdy/qakNn+BvALZfSABOXChjw7d+ydxZQTy9NoH1y+ayKCoUZRSn1z283ElJjiclOZ7XVKio6F9H+eC5Ek6XVT9wHeWRaLMOAwZPls2KGRdhIGJyMK8/+TIHi0/x+5w9Ni8dPFzurm48t3gTO+NS0CnymJ8Q4uFk8PCip3PkXzg99K4siw5l0/L5PJ6yhJBpAWPSV5/FQl7JDQ6fKeKDzHyu32oYyduoFlX9GpQZ7/7gnt19TO01e9x8pn8AytPDfeeSylpe/eMBXv3jAaZO8mXD0rmsXzqf5MXRo9vaUIHwiBD+LiKEv/vSFjraO/t3UjpTRNqlcmrHeP/kNmPXPWcGEsMWsjpyEXEhcx0SBnSKwtb5iSSGL2T3xQxSC7PHLAh46d3ZFrOaHQvX4u8x5GrQQggxoXn6+A87AMwK9Gftokg2JcaSsmLBqDbNs9bQ2sHR3BLSzhSTkXeFprbRzToF9Xe9HbeOW//sc52aXD3+xq23JxpYONJC9U1tvHP4LO8cPouriwsrFoSzftlc1i2dT0zE9JG+LQDePl5s3bicrRuXAyrFxZV85bX3uHyjblTvO5i2nk4OluRwsCQHX4MnK8JiSYqMIz5kLnoXbe8Z8Pfw4SsrHue5xRs5VnaejNJcCmqvYRnGOv4AOkVHzPQIHp29lOSoBDz0Bjt1LIQQzmXarEiaam8OeVyQnzd/u30lm5PimBs+upl2l8WicuHqTY6cLSbtbBHnS29isQx/xdbBKChZxnbPb33255+PKs3XWl08Qrf06S05qIxsMWIrvX19nLxUxslLZfzwv/YTMtWfDUvns37pXNYsjsbbfTQDSKFbp6PIxpWPRqPN2EXalTOkXTmDt5sHCTPmsHxWLKsjFuHu6mb3+nd56t3ZMm8lW+atpK2nk0s1Vymqu871plpq2xto7W6ny2y6c6wbfh4+BPkEEjYpiPnTwlkYHIWvu5dm/QohhLMInT2f4jPH7vNPVbizCVtzVw9bUxKInjFtVPVaOrrJyC3hyLli0s6W0GCH+92AQqPO5UnrU/93DXquoru7qtrNZdoWFJc0YGzizR3V9S38d+op/jv1FG56Fx6JjWDjsvmsXzZv2P8ya2638Dc/eYe+MbxpwxYdpm6Ol1/gePkFfnNiNyvCYlgdEcfiGfM0fWzO192LVRFxrIqQzXmEEGK05i1L4sg7v7nPP/30vjajuZcv//gt9v7875jka/sXKlVVKSivuTPwizlbdN3e86vEpZfNdN8YdIvA+16sMHXUFXh4hCzrc1U/AUb2rN8QTOY+ss5fJev8Vb7/2z3MCprMhmVzWb9sPqvjovA03P+b9cmL5fzv/+9dbtQ12aM1m3Waezh6NZejV3Px0BtYPmsBSRFxLJk5X9MzA0IIIUYnctEyvP0m0dE69Fy5XF7D1u/8ml///bMkzLn/k1NtXT1knS/lyNliDp8torZRs6XxD5lc3HbRfr3lfgc88G6F7u7qKoKDk9w6+AMqz459f/eqrG3k93uz+f3ebDwMehJjo1i3bA4LI0MJmeJHR7eZi2U3+fjYBY6cK7Z3O8PWbTZyrOw8x8rOY3DVExcSTVJkAonhsXjKOvpCCDGuubi68shjuzjy9q9tOr6o4haPfvN1Nq9YwNbEWObOCsLbw0BVfXP/N/3cYk4XXMPcq+lZaosK/25ur/k/wAMXCBj6dsWami4T7DL4hPyPivpvwOwxavKBuo1m0nOLSc8d/aB31evZ+fKrlF88y8WsQxi7x/bJgcEYe82cqSzkTGUhv3R1JT5kDkmRCawMj5VNdYQQYpxK3vElsv7yJiajbbvMWiwqqacKSD1VYOfObJKj6tRvmltv2bS/j83PKxjbq/dD1BE3n65vK/AdFQJH3qO2knb8NYmP7SLxsV2Yv/cTSnJPkp+RyqXjh+np6rB7fVNv70AYcLMOA2GxeLlJGBBCiPHCb0oQjz73NQ6++bqjWxmOK6qi/tjcdusd+u9WtMkwH1gsM5ra+RmE/VLvY35WUdVdKKQM/320MyU0jC0vvjTw93qDO7GJ64hNXIfZaKQk90R/GDiRNqoFIGxlHQZ0io5508JIioxjbdQSeRZfCCHGgQ3Pf51Lxw9RXVbi6FYepAXYo+h419hac4RhDP67Rji4r/eY2/kj8Ed8Qye5WSwbUJQtKupGBaaO7D3Hnt5g4IVXfoW75+CDVW8wODQMWFQLhbXXKKy9xv9/6pNPw0BkguzAJ4QQDtI/O37NL776BN0azIJhuAQctKiWg70dtdncWdN/pEb/zb2tqskE79H/F27eQQtQdNtUhXWKSvKY1BgBnc6FL/3gl8yca9t6RtZhoNdkovjccfIzUrl8Ik2TX4D7hYHkyAQCJAwIIYSmgsJm83f/9ja/+tYXMfZ0OaYJlS5Vxykd6n6di/Jxd3PNsBf/f5AxH86mjtpCoBD4Gd5BU/Q6ZZOiKm+NdZ0HMbh78qUf/pKFSRtH9HpXN7eBMGCx9FFRcJ7zGamcP7KH9pbGMe728+4XBtZEJjBJwoAQQmgiPCaB//2LP/H773+VztZBH6W3G51FWdfT6X8CCk32qmHfb+cdtbfN8LabT7BmASAobDb/6wevM3NO7Ji8n07nQuTCpUQuXMqOb/7zQBjIS99LR/OINmQYlnvDwMfMmxZOUmQcSRHxTPbys3t9IYR4mEXFLee7v9/L26++RPklm26uHxM9ndVHodquNcbtzXvDZfDwYvML32TtF76Ci6t9/lj3CwPnM/bT3lhvl5rWLKoqYUAIITQWGDKLb//6A7L3vsve3/6MrvZWR7c0JsZVANjy4ksUnEznZmkBqmrbDY1TQsNYuf1ZVm7fhZff2Gy9aIv7hYH8zP20NWgbBv4z+yNmBQSRFBnPuuilTPd1mic0hRDCKSg6HaueeJ6lG5/kXNonHP/gj9Rcu2LTa3UuroQviCMmcR17/vOndu7UduMrAHz5JbZ8+SVa6m9RdvEMFYUXqLlWTFdrM8aubvQGA97+kwiYGkxYTAKz41cQFDYbRVGGfnM7sg4DT3/zB1wryON8RioXMlNpbRj7XQoHU9lcy9u5B3k79+BAGEiZvYQQvyma1BdCiIeBwcOLVY8/x6rHn6O2opSrF85QcTmP5voaOlqaMBuNGLw88fKbxMw5C5mz+BEiFi3D4O4JIAFgKP5Tp7Nk/RMsWf+Eo1sZNkWnGzwMHDtA6+1aTXoYLAysnb2YUL9x84SmEEI4vaDwaILCo1n95F85upURGZcBYKL4bBi4ebWQgux0zh76iIbqSk16GCwMJEclMMN/dNtYCiGEcG4SADSi6HTMnBPLzDmxbPnyS9yqKCU/M5Vzhz/mdtV1TXoYLAysiYxnZkCQJvWFEEKMHxIAHGR6eDTTw6PvCQO5aXuov3lNk/qDhYEVYTHMDpyhSX0hhBCOJQFgHBgsDOQd2UvdjXJN6luHgem+gSyfuYCkyHhipkdoUl8IIYT2JACMM4OGgfR91FWWaVL/VlsDnxRk8UlBFkE+k1kxK4akyHgWTA9HwbFPWwghhBg7EgDGscHCwPmMVGorSjWpX9veOBAGpnpPYmVYrIQBIYSYIMZVANjznz8lfu0WmzfweZgMFgYKTqZz48plTerXdzRZhYEAVoYtlDAghBA2aq6r4eLxg45u4x7jKgAceec3HHnnNwRMC2Fh0kYSUrYSEbvE4Qv9jDfWYaChppKC7HTyM1I1W6e6vqN5IAxM8Q4gUcKAEEJ8zt2hn5+RyrXLeTavcKuVcRUA7mquqyZr95tk7X6TgGnBLEza1B8GYhaj6HSObm9cCQyeRfLOF0ne+SKNt25w+eQRTX/ZbluFgUBvf1aFLeKRsBgWBkfhonOxe30hhBhPmmqruHTi8Lgd+tbGZQCw1lxXMxAGfPwnM29FMvEpW1mwIhmdy7hvX1OTp88cCANNtTe5dCJN01/Cho6WgTDg5+7F0pkLSIqMY+mMeRIGhBATliM+b8eCJhNUgQYVRr1DTXtLI2cPfcjZQx/i7TeJ+Y+slTBwH5OCZliFAe0TaWtPJ+mlZ0kvPYuvuxfL7oSBJTPm4ypncYQQTs6eZ1wVuD1mb/YAmkxNFXKBTWP5nh2tTQNhwGfSFOLWbCQ+eStRCSvQybfNe0wKCh0IA464JtVmHQYMniybFSNhQAjhdGorSsnPPED+sVRqym3bCXAkVJV8u725FU0CgEW1/FSn6DaCfe4Qa2+6zYmP3+HEx+/g7TeJRWs2Eb92C9GLV8qZgc8ImBY8EAZa6m9xIetAfxgoOI9qsdi9fpuxa9AwsDh0HnoXCW5CiPGlpvwK+cdSyc88oNkj2IoLv9CijibTsbejNsvgO/1lVVX+DTuFgLs6WpvI3vsu2XvfxcsvgIWrN9wJA6tw1evtWdrp+E+dPhAG2lsaKTp9jPyM/RSdzsLS12v3+tZhwMfgwfJZsXfCwFz0EtyEEA4ysO7K0f3UXr+qbXGVHxpba9K0KKXZp6yx7dbret+Q04qq/hBYp0XtztZmcva/T87+9/H08SN21Xri125l7tLVuLq52bu8U/Hxn8zyTTtYvmkHHa1NFOZkahoG2o3dA2HA282DhBlzWD4rltURi3B3lf9WQgj7unHlMvmZB7iQmarZBm1WeoF0nar7WU9H1TGtimr6NcvcVn0a2Ixv6CQ96jZFVXcCGwC7f8J3tbdy5uAHnDn4AW4GD6KXrCQ+ZRtxyZsxuHvau7xT8fabNBAGOlubKcjJID9jP8VnsujrtX8Y6DB1c7z8AsfLL/Afx99nUchskiITWBW+EA+9we71hRAPB0dsxGalT4HTKOpu176+9zo76+u0bsAx51nbqprM8BbwFn4zA/Rq33Ytw4DJ2E1B9lEKso/y/s+//2kYWLMJg4eXvcs7FS+/gE/DQFsLBaeOahoGenpNnKks5ExlIW+46okLiR4IA0IIMVyfbsX+CberKrQuPzD09RbLnzs66uoBjFp3cYfjL7S23mgeCAP+Yf5uveb1KGwH9SnA7tPYOgy89/N/YM6SROJTtrEoaSPunt72Lu9UvHz97zkzcPH4YfIzD1Cad1KTMGDsNQ+Egf9wdcPDzd3uNYUQzk21WLh5tZCC7HTOHvqIhupKrVswAkdU1H1mVf2Yjtrbd3/oaI4PANZarreYYDewm+DgvzW086iKslOrMGA29nwaBgwG5ixZ1R8GVm/A3cvH3uWdipdfACu3P8vK7c/S1d7K5ex08jP2U3LuBL0mk93r9/Sa6Om1fx0hhPNRLRauFeRxPiOVC8cO0Hq7VusWeoB0VVF2m10Me2i+1qp1A7YYXwHAWk1NlxH2Afsg9GsGH8u6O2HgScDuX83NRuOgYWDh6g14SBi4h6eP38CZga6ONq6cPcHl7HQuHjuIsafL0e0JIR4C9wz9zFRaGzS/pP7p0Hft/oSmpjatGxiu8RsA7lHVbWwfCAMeVmHgCcDu09g6DLi6uTF36WpiEtexaM0mfPwn27u8U/H09iU+ZSvxKVsxfe//5UpuNvkZqRIGhBBjzmLpo6LgPOczUsnP3E9bQ73WLXQDR1VF2W12M35MQ0O71g2MhpMEAGvWYSDM3eBjWn8nDDwO+Nq7eq/JNBAG/vLaPxEeE098ylaWrHsc74BRr3Y8obgZPIhNXEds4jrM3/sJJbkn+8NA1iGM3Z2Obk8I4YSsh/75o/tob9Jk1Vxrnw59g+kjbt/u0LqBseKEAcDa9Z77hIHHAD97V7dY+ii/lEv5pVw+euPVgTCw+NHH8Jk0xd7lnYre4D5oGLh0/DA9XU77/48QQgPWQz8vfS8dzQ3aNqDShUKGqii7zR69H1JXNyG+wTh5ALBmHQaiDO5eXav7FLbrFHapYPdpfN8wkLIdn8lT7V3eqdwTBoxGSnJP9IeBE2n0dDrVGTQhhJ30mkyUXzzLpex0zh/ZQ3tLo9YttICyD5V9Jl81lZqa/muY4/7Kvu0mUACwVmbs6SQdSAdedvUJfkRR2YnCswrYfRpbh4EP3/hXImISiE/ZSsLa7fgGShiwpjcYrMJAT/9yxJkHKDh1dMzCgMFDFnoSwhlYfyG4fCKNbu2/EDSDsl9B3W1sDzgMhf2PGk3Qk5QTNADco6+3veYkcBKrMKAoPAME2bu4arEMGgbik7fiN8Xu5Z2K3uDOojWbWLRmU/8Hwbnj5GceGPUHQXD43DHsUggxlsbBWcAmUFI/N/Sp0boPzT0MAcDa/cLATmC6vYsPFgZiEtcRv3YrgSGz7F3eqegNBmJXrSd21Xp6TSau5J4kP7P/A6Kr3fZHasPmxxEye54dOxVCDJfZ2OPo+4AaQTnQP/SnH4I8c/+PJ/7Qt/awBQBr1mHgJVef4JV3wsDTQLC9i1uHgT3/+VOCwqNJSNnK0g1PMiU0zN7lnYqrmxsLVqawYGUKvWYzpXknyc88wKUTaXS2Nt/3dV6+/jz//dc07FQIcT/WQ99BTwLJ0P+MhzkAWLPcJwzsAEK0aKC2opQDfyjlwB/+fSAMLFn/OFNnRGhR3mm46vXMX7GW+SvWsut7P6E07xT5mQe4mHWIjtamgeMWrEzhya//I0Fhsx3YrRAPN5Ox26FrgSjQoKIc7B/6NQfp33WPh3noW5MA8Hn3hAG93/R4RVW2o/I8EKlFA4OFgcXrHmPaTE3KOw2diytzlyUxd1kSX/juj6kqLcTY3cX0sChZk0EIB+nqaOPyySMUZKdTmJ2ByditdQtVqspHLir7ejprMoE+rRtwFhIAHsxibr2VB+QBP3LzDlqATrcTlS8Cmny1HCwMJKRsk2+2n6HTuTBzruwQKIQj3LMfyNnj9JrN2jagcFO18LGqsLu3vSYbUDXuwClJABgGU0dtIVDIvWFgFxCtRf1Bw8DarQSFa1JeCCEGWG8P7pChD5Wqyh5VYXdvW//Q17oBZycBYITuEwa+AGjyzJl1GAgMnsWCxEdJSNlK5MKlWpQXQjyEOlubKcjJID9jP8VnsjTZBvwzrqsqe62/6WvdwEQiAWAM3CcMPANo8vxZQ00lWbvfJGv3m0yePpOYVetISNlKROwSFEXRogUhxAQ1DoZ+haqyT4b+2JMAMMbuEwa2AYu1qN9468ZAGJgUNIPY1eslDAghhqWjtYnCnEzyM/ZTdDoLS5/WQ1+5pqrq/jtD/6TGxR8aEgDsyDoMuPtNi1BV3XZUZacKiVrUb6q9aRUGQoldvUHCgBBiUC31t7iQdYDL2Ue5mpeDxaL5zfNFKOzGYvmLqaO2SOviDyMJABrpaa27BvwS+KW737RwVdU9dicMrATsPo2baqsGwkDAtBAWJm2UMCDEQ665roaLxw+Sn5HKtct5qKrmZ9fvDH31fVPHrWKtiz/sJAA4QE9rXQV3w4B/UJhqUR7XMgw011UPhAH/qdNZtGZzfxiIWYyi09m7vBDCgZpqq7h04rDDh76i8mdje80VrYuLT8lXv3HEIyB4pqVPfVLLMGDN228S8x9ZS3zKVhasSEbnIvkQ4BuJM2067su/SrdzJwLgzW+ss+m4X2XfsHMnzqOp9iaXTqSNg6GvvGtsry7VurgYnHzCjyPdzTU3uHNmwMMjeIZFrz6lZRjoaG3i7KEPOXvow3vCwPzlybi4yq+KEM6k8dYNLp884vihj+4dY1tVmdbFxdDkU32c6u6uuUn33TAQEmrRW3ZYULYpKslo8N/NOgx4+QWw4JEUCQNCjHMNNZUUZKeTn5FK+aVcrctbgHwU9iuKy9vG1pvlWjcghkc+yZ1Ad3d11d0wgE9woF5RtiiquhPYhAb/DTtbmz8NA77+LFj5KPEpW5m3bA2uer29ywshHuBWRSn5mamcz0iltkLzs+sWBXJQ1N06s8sH3d1V1Vo3IEZOAoCzaa9pMMNbwFv4hEzWK2y9EwY2Anafxp1tLQNhwNPHj5jEdRIGhNDYwNA/up/a61e1Lj8w9F16XXd3dd2UrfWclAQAZ9Ze3TgQBnxDJ+lRt2kZBrraWz8NA96+xKxaT2ziOhYkpuBm8LB3eSEeKneHft6RvdTd0Pzsep8Cp1HU3a59ve93dt6u1boBMfYkAEwUbVVN9wkDGwA3e5fv6mgbCANuBg+il6wkPmUbccmbMbh72ru8EBPS3aGfm7aH+pvXtC5vNfT73uvsrK8DMGrdhbAbCQATkXUY8JsZoFf7tmsZBkzGbgqyj1KQfZT3fv4PzFmS2B8G1mzC4OFl7/JCOLW7Q//c4Y+5XXVd6/IDQ19vsfy5o6OuHmToT1QSACa61hvNA2HAP8zfrde8HoXtoD4F2H0am409g4aBRUkbcff0tnd5IcY91WLh5tVCCrLTOXvoIxqqK7VuwQgcUVH3mVX1Yzpqb9/9oZjYJAA8TFqut5hgN7Cb4OC/NbTzqIqy0yFhwGBgzpJV/WFg9QbcvXzsXV6IcUO1WLhWkMf5jFQuHDtAq/aX1HuAdFVRdptdDHtovtaqdQPC8SQAPKxqarqMsA/YB6FfM/hY1t0JA08Cdv9qbjYaBw0DC1dvwEPCgJiA7hn6mam0NtRp3cKnQ9+1+xOamtq0bkCMLxIABFDVbWwfCAMeVmHgCcDu09g6DLi6uRG5aBmxiY+yeP0T+PhPtnd5IezGYumjouA85zNSOZ+xn/bGeq1b6AaOqoqy2+xm/JiGhnatGxDjlwQA8RnWYSDM3eBjWn8nDDwO+Nq7eq/JxJVzJ7ly7iQfvfEq4THxxKdsZcm6x/EOCLR3eSFG7Z6hf3Qf7U23tW7h06FvMH3E7dsdWjcgnIMEAPEA13vuEwYeA/zsXd1i6aP8Ui7ll3LvCQOLH30Mn0lT7F1eCJtZD/289L10NDdo24BKFwoZqqLsNnv0fkhdXae2DQhnJAFA2Mg6DEQZ3L26VvcpbNcp7FLB7tP4fmEgYe12fAOn2ru8EJ/TazJRfO44hdlHuZh1iPaWRq1baAFlHyr7TL5qKjU1XQDIlX1hIwkAYgTKjD2dpAPpwMuuPsGPKCo7UXhWAbtPY+sw8OEb/0pETALxKVuJX7sNv8Bp9i4vHmJmo5GS3BPkZ6Ry+UQa3Z2aX1JvBmW/grrb2B5wGApNAMhJfjECEgDEaPX1ttecBE5iFQYUhWeAIHsXVy2WwcNA8lb8pti9vHgIWA/9SyfS6NF+6DeBkvq5oY8swS9GRwKAGEv3CwM7gen2Lv7ZMDBj9gJiVq1j2canCAyZZe/yYgIxG3soyT3ZP/SPH6anS/Ov2I2gHOgf+tMPQZ65/8cy9MXYkQAg7MU6DLzk6hO88k4YeBoItndx1WLhxpXL3LhymQN/+HeCwqNJSNnK0g1PMCU03N7lhROyHvoXsw5h7Nb8PjoZ+kJTEgCEFiz3CQM7gBAtGqitKOXAH0rvCQNL1j/O1BkRWpQX45TJ2M2V3Oz+oX/sIMaeLk3rK9CgohzsH/o1B4He/n8iQ1/YnwQAobV7woDeb3q8oirbUXkeiNSigcHCwOJHtzNtVpQW5YWDdXW0cfnkEQqy0ynMzsBk7Na6hSpV5SMXlX09nTWZQJ/WDQgBEgCEY1nMrbfygDzgR27eQQvQ6Xai8kVgthYNDBYGElK2ERSmSXmhka72Vi5np5OfsZ+Ss8fpNZu1bUDhpmrhY1Vhd297TTagatyBEJ8jAUCMG6aO2kKgEHhF7xu0RFF1TwM7AU0u2luHgeDIOcQnbyV+7RYtSgs76GxroeDUUccNfahUVfaoCrt72/qHvtYNCPEgiqMbEGIoVmcGvgDMdXQ/9/PlX6U7uoWHwpvfWGfTcToXVyx9vXbu5nPKgA9UnfrBnbNbQoxbcgZAjHtWZwasLxM8A8xzcGtiHNNw+FeoKvusT+9rVViI0ZAzAMJpWYWBbcBiR/cjHibKNVVV998Z+icd3Y0QIyEBQEwI7n7TIlRVtx1V2alCoqP7ERNSEQq7sVj+YuqoLXJ0M0KMlgQAMeG4+00LV1XdY3fCwErk91yM3J2hr75v6rhV7OhmhBhL8sEoJjR3/6Aw1aI8LmFADEMRCrsVlT8b22uuOLoZIexFPgzFQ8Pdb1q4anF5WkV9GpSlyO+/+NSdoa+8a2yvLnV0M0JoQT4AxUPJwyN4hkWvPiVnBh5q/UMf3TvGtqoyRzcjhNbkQ0889D4TBh4BdI7uSdiFRYEcFHW3zqx81N1dc9PRDQnhSBIAhLDi6TkjuM+1bwcqT6uwCgkDzs6iwEkUPnDpdfmwq+um7LIjxB0SAIS4Dy+vKUEmRf8UCk8rkIz8/+IsVBWOofKBm2r+qLPzdq2jGxJiPJIPNCFs4O09baoR3SsoyjMKBCD/74w3qgrNqLxvoO9HHR119Y5uSIjx7v8CE2tDTDKorGIAAAAASUVORK5CYII=;" vertex="1" parent="1">
          <mxGeometry x="270" y="90" width="180" height="180" as="geometry" />
        </mxCell>
        <mxCell id="BahWNx85lN9U7c0tWjsk-4" value="" style="shape=image;verticalLabelPosition=bottom;labelBackgroundColor=default;verticalAlign=top;aspect=fixed;imageAspect=0;image=data:image/png,iVBORw0KGgoAAAANSUhEUgAAAgAAAAIACAYAAAD0eNT6AAAABHNCSVQICAgIfAhkiAAAAAlwSFlzAAAOxAAADsQBlSsOGwAAABl0RVh0U29mdHdhcmUAd3d3Lmlua3NjYXBlLm9yZ5vuPBoAACAASURBVHic7N1neFTl9jbwe9ImvdETpAbpAtKrShMriBS7iIIoCFIVFJSOoKhIE1DQIyBIFUVBQKT3TqihJ4EASSYzmT6z3w85+OfwAinP3rNnZt+/L+e6zvFZex0T2Gs/ZT0AERERERERERERERERERERERERERERERERERERERERERERERERERERERERERERERERERERERERERERERERERER3Uknd8CIuEq1dZLuLZ0bbaCTKgC6CLmfQURE5P+kXEi6CxKwAYGYZ8pKOSZndBkLgCR9dAy+lCC9DSBAvrhERESa59LppNk52WGDgON2OQLKVAAk6aNipD8APCZPPCIiIrqLTUZD6BNyFAGBcmQTHRM3HUBXOWIRERHRPVUMCXPG2a1Zf4gGEp4BiIirVDvArTsETvsTERF5gksK1NUxZZ49LhJE+KWtk3RvyRGHiIiICiRQ53S/KRpEvAAA2orGICIiokLQ6dqJhhD/cpdQTjgGERERFUZ50QByTN1HyhCDiIiICi5KNADX7omIiDSIBQAREZEGsQAgIiLSIBYAREREGsQCgIiISINYABAREWkQCwAiIiINClI7gTaLl6mdAhERkcdtfLGLqs/nDAAREZEGsQAgIiLSIBYAREREGsQCgIiISINYABAREWkQCwAiIiINYgFARESkQSwAiIiINIgFABERkQaxACAiItIgFgBEREQaxAKAiIhIg1gAEBERaRALACIiIg1iAUBERKRBLACIiIg0iAUAERGRBrEAICIi0iAWAERERBrEAoCIiEiDWAAQERFpEAsAIiIiDWIBQEREpEEsAIiIiDSIBQAREZEGsQAgIiLSIBYAREREGsQCgIiISINYABAREWkQCwAiIiINYgFARESkQTrRAFExlSU5EiEiIqKCMxpShN7hnAEgIiLSIBYAREREGsQCgIiISINYABAREWkQCwAiIiINYgFARESkQSwAiIiINEiOAsAkQwwiIiIquBzRAOIFgA6XhGMQERFRYQi/e4ULAMmNv0RjEBERUSFI0nrREOIzAIGYB8AlHIeIiIgKwiW5A74TDSJcAJiyUo7pIH0rGoeIiIjyJ+kww2Q6mywaR5ZTADmGsIEANskRi4iIiO5OB2w0ZYcOlSNWoBxBgOsuuy3h59AwRzygqw8eLyQiIpKTS9JhutEQ2gM4bpcjoPB1wHeKjE+qqXO634RO1w5ABQCRcj+DiIhIA0wALkCS1ktBAd+bMs8elzO47AWA3KJiKksi4w/vXi5XKkREpCF1Gj8vNN5oSPHqdyyn6omIiDSIBQAREZEGsQAgIiLSIBYAREREGsQCgIiISINYABAREWkQCwAiIiINYgFARESkQSwAiIiINIgFABERkQaxACAiItIgFgBEREQaxAKAiIhIg1gAEBERaRALACIiIg0KUjsB0rY6jZ9HWKgewcHBAIDIyHBERoQjNjYKcbFRiI2NQvFi8UgsUxKJCSWRkFgKJYrFQqfz6mu2iYi8HgsAUp3FaoPFagMA5BhN+f7zoXo9Kld+AFWrVECVyuVQpUoF1KpeGWFhoUqnSkTkN1gAkM+x2mw4nnwWx5PP/vvfBQYG4MGkCqhXtzrq1K6KRvVrIT4+RsUsiYi8GwsA8gsulxsnTp3DiVPnsGjJ7wgICEC1qhXRomk9tGj6MGrVrILAQG55ISK6hQUA+SW3243kEylIPpGCOd8vQ2xMJFo0r4/2bZqhRdOHWQwQkeaxACBNyDaY8Nvaf/Db2n9QsngcOrRvic4d26BihbJqp0ZEpAp+BpHmZNzIwo+LfkWn7gPwxtsj8dvaf2Cz2dVOi4jIo1gAkKYdOJSMj0ZPw+Md38bXM35Cxo0stVMiIvIILgEQAcjKysH3P67EoiW/45knH0WPVzqibNnSaqdFVChnUi5ixeqN2L3nCNLSM/49XquWsFA9EsqURJNGddC5UxskVSqnaj70v7y+m0pUTGVJZPzh3cvlSoUUUKfx82qncFdBQYHo0L4F3nmzGwsB8np2uwNTvlqAZSvXw+12q53OXQUGBqBr5/YYMuANBAf7xren6N9PRkOKV79juQRAdBdOpwu/rf0HnV4YgImfz0VmpkHtlIjuym53oO/747B0+Z9e+/IH8o7q/vzLn3j3/XFwOJxqp0NgAUB0Xw6HEz//8ieefO4dzJ63FHa7Q+2UiP7HlC/nY8/+Y2qnUWB79h3F518vUDsNAgsAogKxWG2YNXcJnn9pILZs26d2OkQA8tb8l636S+00Cu2XFeuQcv6y2mloHgsAokK4dDkd7w2eiPcGT8S165lqp0Mat2L1Rq+e9r8Xl8uNFas3qJ2G5rEAICqCLdv24fkX38eyVX9BkoT2qRIV2e69h9VOoch27T6idgqaxwKAqIiMxlyMnTgbfQeOx42b7B9AnpeWfkPtFIos7ep1tVPQPN84i0F+6/Du5bBYbXA4HHC7JGQbcmAwmJCdY0RmpgFp6RlITc9AaloGLly4gmxD/tcFe9r2nQfR9ZXBGP3Ru2jVooHa6ZCGWCxWtVMoMrPZonYKmscCgFQXFqpHWKgeABAbG3Xff/ba9UycPXsRp06fx+Gjp3Ho6ElkZxs9keZ9ZWYa0H/IJHTv8jgG9++BkJBgtVMiIrovFgDkU0qViEepEvFo3rQeAECSJFy4mIo9+45j284D2LvvqGrdzyRJws+//InkE+fw+cQhKFWymCp5EBEVBAsA8mk6nQ4VK5RFxQpl0b3L47DbHdh34DjWbdiBTZt3I8fo+SWDI8dO48XXh2HyhMFoUK+Gx59PRFQQ3ARIfiUkJBjNmtTF6I/fxaY/vsP0L0agzaNNEBQU6NE8bmZmo3ffT3zyjDYRaQNnAMhvBQcHoWWL+mjZoj5u3MzCr7/9jaUr1iPdQ7uPXS43xk6cjdTUa+j/7svQ6by6LTgRaQxnAEgTiheLQ8/XO+P3FTMxaexA1Khe2WPP/v7Hlfhw5Jew2eweeyYRUX5YAJCmBAYG4In2LbB4wWR8+80oPFTrQY8898+/tuO9wRNVv56ViOgWLgGQZjVpVAdNGtXB1m37Mf3bRTh5+oKiz9u99wj69B+DGVM/QmRkuKLPIiqIq3OShMaX7n1WpkxIDZwBIM1r2aI+Fi2YglHD30F8fIyizzp0+CTe6vspsg3q9y4gIm1jAUCEvKWB5zu1xZpfpuPl7k8jMFC5PxonTqagT/+xMJnMij2DiCg/LACIbhMZGY5hg97AwvmTUb1qJcWec+JkCt4ZMNanW7kSkW9jAUB0F9WrVsRP30/C2292VWw24Mix03h/2Gew2x2KxCciuh8WAET3EBQUiHd7v4Af5kzAA2VLK/KMXXuO4KNPv/bJO92JyLexACDKR+1aVfDzD1PQrnVTReKv37gT02cvViQ2EdG9sAAgKoDIyHB8PnEIRg7vo0hb4e9+WIGly/+UPS4R0b2wDwDJzuVyIz09AxcupeH8hVRcvJSG1PQMmExmWCw2WKxW5OTkwmLN2wAXFhqK6OgIhIWGIjxcj4iIcCSWKYkK5RNRoXwCKpRPRJnSJRTdmV9QXTq1wwOJpTBk+BeyXzT02dTvUblSOdTnBUJE5AEsAEiYxWLF/gPJ2L3vKPYeOI6Uc5cKtbHN4TDl+zINCQlGUuVyaPhwLTSqXwv1H66BsLBQ0dSLpHHDh7BowWd49/1xuHQ5Xba4TqcLQ0d8gcU/TkGpEvGyxSUiuhsWAFQkKeeuYN2Gbdi19wiOHT8Dl0vZTWx2uwPJJ1KQfCIFPyxcjcDAANSqWQVNG9XB421boFLFREWff6cHypbGgjnj8N7giTieLF83tJuZ2Rg64nN8N3MMgoP5x5OIlMO/YajAcowmrN+4E2vWbsahwydVzcXlcuPwkVM4fOQUZs9bisqVyuLpJx5Fx6cfQ7H4WI/kUCw+FvNmfIr3Bk3AvoPJssU9fOQUpn7zIz4Y1FO2mEREd1J/UZW83r6DyRgwZBIe69ATYyfOVv3lfzcp567g6xk/of0zvfH+0EnYL+ML+X7Cw8Mwa9ooPNqyoaxxFy9diy3b9skak4jodiwA6J4OHj6B3v1G480+I7F56144nS61U8qX0+nC31v2omefkXi990f4Z9s+SJKk6DNDQoIxZcJgNG9aT7aYkiTh0/GzkJlpkC0mEdHtWADQ/2fTP3vwwuvD0KP3x9i994ja6RTZocMn0X/wRLz0xgfYvHWvos8KCQnG1M+GooGMO/hvZmZj1PgZihcwRKRNLADoX5evXMU7A8Zi4LDPcOJkitrpyCb5RAoGDJmEXu9+gnPnUxV7Tqhej2+mjkDNGmJXrN5u67b9WPPHP7LFIyK6hQUAwWqzY/a8pej84vvYseuQ2ukoZs/+Y+j6ykB8NvV7xS7hCQ8Pw8wvP5a1dfDnXy7Azcxs2eIREQEsADRv157D6PzCAMyau0QTl9I4nS4sWvI7urw8CLv2KLO8ERsbhWmfj0B0VKQs8Qw5Rkz+coEssYiIbmEBoFEulxuz5y3FOwPGITUtQ+10PO5K6jX06T8Gn039XpHNjZUqJmLKhMGydS/8c/1WbN95UJZYREQACwBNunY9E2+9+wlmzV2i6VvoJEnCoiW/o3e/T3Hteqbs8Zs0egj93n5RtngTP58Hh8MpWzwi0jYWABqzY9chdH91MA4c8sw5eV+w/2AyXnhtCHbtOSx77Ddeew5tHm0iS6zLV65iCS8MIiKZsADQkDVrN6PfoPHIyspROxWvk5lpwLvvj8PyVRtkjavT6TBmZF8klCkpS7zZ85by50dEsmABoBELl/yGkWOmK96z35e5XG6MnTQbs+ctlTVuZGQ4JozuL8t+AKMxF3PnL5chKyLSOhYAfk6SJEyd9iMmT53PhjIFIEkSZs1dgklffCfr/oh6darjzdc7yxJr2ar1uJZxU5ZYRKRdvAzIj7ndbowaOwNr1m5W5flxkQHIMom9RIMjo+AwGWXKqOAWL12LXJMZY0b1g06nkyVmn7e6Y8u2fTh5+oJQHJvNjnnzl+OjD3rLkpc/OZNyEStWb8TuPUeQlp4Bi9Wmaj5hoXoklCmJJo3qoHOnNkiqVE7VfIhuxwLAj33+1Q8effnrg3V4pHoYWlUPR7NqYaiWEIKEt8U6Crac8x1MFy8iK/kYso4fQ+bRI3A7PNOv4Ne1mxEdE4mh778hS7zAwAB8/EEfvNZrhPDswopfN6DHq52QmCDP3gJfZ7c7MOWrBVi2cr1XnWyxWG1IOX8ZKecv4+dla9G1c3sMGfAGr3omr8DfQj/13Q8rsHDJb4o/R6cDWlYLR+fGkXiybiSiw+VdVdLpAhBVoSKiKlREuSefgTPXhGs7d+Dqti3IPn0KUHhZ46fFv6FYfCx6vvacLPFq16qCF7o+gUVLfheK43S68MPCVRgxlLMAdrsDfd8fhz37j6mdyn25XG78/MufOHc+FTO/+phFAKmOewD80MpfN+KbWYsUfUZYcABebRWNLZ+Wx9KBCXihWbTsL/+7CYqIRGLb9qj/6Tg0mfIVyrR6FAFBgYo+c9rMhVj92ybZ4vV7+0UULxYnHGf1ms3Izvb88oi3mfLlfK9/+d9uz76j+PzrBWqnQcQCwN/s2HUIYyfNVmzDX3Ag8FabWOybVB5TXimJKmWCFXlOQUQkJqLGO/3QdOo3KNv+ccUKAUmSMHrCLNn6BEREhKFPr27Ccaw2G35e9ocMGfmuMykXsWzVX2qnUWi/rFiHlPOX1U6DNI4FgB+5dj0TIz79WrGjfk/Vi8SW0eUxrntxFItS9qu7MEJLlETVN3qh0cTPEVejpiLPcLncGP7J18i4kSVLvM7PtkXVKhWE4yxZ/idsNrt4Qj5qxeqNXrXmX1AulxsrVsvbc4KosFgA+AmXy40PP/5SkSYxJWOCMP/dMvjundKoWFK9L/78RJR9AA+PHI1qvfooEj8z04DhH0+VpcAKDAxA3z7ibYIzMw3YtHm3cBxftXuv/N0bPWXXbmUuoyIqKBYAfmLGt4sVae/bqWEktnz6AJ6oGyF7bCW4rFZc3fKPYvH3HUzG7HlLZIn1SIsGqF2rinCc5T44BS6XtPQbaqdQZGlXr6udAmkcCwA/sHP3Ycz/zypZYwYFAmO6F8fsXqURG+E90/3347JacWjSeGSfOqHoc+YtWIHde+X5enu31wvCMfYdTMaly+kyZON7LBar2ikUmdlsUTsF0jgWAD7OarNh7KTZsq6DxkcGYunARPRuEytbTKV56uUP5DVYGjPpW1hlWHtv1qQuqletJBRDkiSs/HWjcC5EpC0sAHzcvPnLkZqWIVu8UrFBWD44Ac0eDJMtptLcNhsOT5nokZf/LVeuXMUCmWZdXn/5WeEYa9dt9cnNcESkHhYAPuzS5XT8sPBX2eI9UCwYq4cmonqiXraYSnPbbDg0eQKyko97/Nnf/bACFy6mCsdp37Y5ypQuIRTj6rUbOHL0tHAuRKQdLAB82PjJc2C3y9MWNyEuCKuGJaJCCe/d5X8nl9WKgxPHqfLyB/I60E364jvhOIGBAejaub1wnD83bBeOQUTawQLAR23cvBu79sizES0mPBCLBiQgMc53WpN6cs3/fnbuPozNW/cKx3n2qceErwvesGknlwGIqMBYAPggSZIw9/tlssQKDgQW9C2DagkhssTzBG95+d8yR4afRYnicWjVvL5QjOs3spB8QuzyJSLSDhYAPmj7zoM4ceqcLLFGdimOplVCZYnlCWps+MvP8eSz2LlbvCFNp2fbCMfYtvOgcAwi0gbfmfOlf81bsEKWOI/XiUCv1r5z1E/NDX/5mTt/GZo2riMUo3mTeoiOikSO0VTkGNt2HkCft8TvGdCKq3OShMaX7n1WpkyIPI8zAD5m74HjOHhY/Ou3TGwQpvcsBZ1OhqQ8QO0Nf/nZfzBZuBNjcHAQHm3ZQCjG8eQUZGYahGIQkTawAPAx/5Hp2N/4F4sjKsw3fvxKrvk3TgrDF6+VlCXWjzL8bB5v21xovNvtxn4FWkITkf/xjTcAAQCysnKwfZf4Gm+7hyLwZL1IGTJSnpJr/o2SQrGofxm83CIarWuFC8fbuuMAsrONQjEaNqiFUL1YH4ZDh08KjScibWAB4EPWrt8Cp9MlFEMfrMPEF4vLlJHylJr2b5wUhsUDEhERmvdHYGy34ggSvPLA6XThz7+2CcXQ60PQoL7YlcYHj7AAIKL8sQDwIWvWbhGO8UrLaJQt5jvNfpT88o/Q/98GiMqlQ9C9abRw7DV/iN9E2KJpPaHxJ0+d8+lLcojIM1gA+IiU85dx4qTYGe/wEB0GPBEnU0a+6c4v/9sNeiYe+mCxXZHHjp/B+QtXhGI0avCQ0HiXy43kk/IcEyUi/8UCwEf8uV5sahkAXmwRjZIx2j352TgpDIsGJPzPl//tEuOC0LlRlPBz1m3YITS+UsVExMaI7dE4feaC0Hgi8n/afRv4GDnun3+tVYwMmfimu037383b7WLx844cSFLRn7VrzxGhs/g6nQ4P1a6GLdv2FTnGmZSLRR5LnlOn8fNqp0AaxhkAH2A2W3AsWazhSPOqYajqQ+1+5XS/af87VUsIQePKYlchH0s+A4vVJhSj7kNVhcafPssCgIjujwWADzhw8ARcLrFLXl5uIb7BzRflN+1/N883EVsGcDicOHBQ7Cx+1aQKQuPPplyGJDKNQUR+jwWAD9i976jQeH2wDu3rRMiUje8o6LT/nZ5tECG8GXDv/mNC45OSygmNt1isyMxiR0AiujcWAD5g7wGxc/AtqoUjsgDT3/6kMNP+d4oJD0SzqmLLAHsEC4DSpYoLbwRMTcsQGk9E/k1bbwUf5HK5kXLuklCMDhr7+i/KtP+dHqku1hkwJeUS3G6xZZvy5RKExqelXRMaT0T+jQWAl0tPz4Dd7hCK0aSK2NesLynqtP+dWtUQ+3dmtdlx9doNoRhlypQSGn+FMwBEdB8sALzchYtpQuNjwgNRubQ2TnuKTPvfqXqCHjHhYr2Bz19IFRpfNkHskqLrNzKFxhORf2MB4OUuXBIrAB6upEeAr9z5K0COaf/b6XRArQfEjk1euCRWACSUESsADAaT0Hgi8m8sALzchYtiL5FqGjj7L9e0/51EC4CLgsVbfLxY46as7Byh8UTk37QxN+zDUtPF1nHLF/edi3+KQu4v/9sllRa7ljc17brQeNFTANkGsauJici/cQbAy+XmmoXGVyjhvwWAUl/+tyTGi9XHJsGfXWyMWEMiLgEQ0f1wBsDL5eaKXeuaGO+fBYCSX/63JAgWAGbBn11UlNjxTdHTI0Tk3zgD4OVyzRah8ZFh/rcBUOkv/1viwsX+eOSaxWYAQkLEijeHwyk0noj8GwsAL2c2i31FRoT414+4UVIoFvdPkOWoX37C9aIFgFjxJloAcAaAiO7Hv94OfshsEXuJhAm+xLyJJ1/+ABAqWDyJFm/BQYIzAE4WAER0b9wDkI+Hm3UVuonvwI5fEBio3ks470Y49ZYBwoIDYHGItcQFPP/yBwC3m7fpkbKuzkkSGl+6t9g14aRt/vN5qJDgILEayeEUW4eNCA8VGp9rVfclllhcvMaUs8NfYeTaxAqXcMGfnegXvOgMAhH5NxYA+QgKFnuBOQU3YoWHi11KY7K5hMaLalVNrKe+J3b734tJsHiKCBf7/y66hi+6h4CI/BsLgHyovRFL9CWSa1N3BuCVVtFFbkWs5ssfEC+eIgSLN9HfnWDB4pWI/BsLgHyEBIsVADlGsWYs4eFi3egyDOoeBauRqMerraILPU7tlz8AXDcILgFEiC0B5OSoe4yQiPwbC4B8xESLtWMV7cYWESH2FXn2qvo7wUd3K45mDxZ8JqPZg+q//AHg7FW70PhIwZ9dtsEgNF60kyAR+TcWAPmIEfxLNDtHrB97ouCNcCnXxF5icggN1mHhgDJ4/ZGY+y4HBAbo8GbrGPz8vvovf0D8353obX7ZgsWj6O8uEfk3LhLmIy5W7C/RzEyxr7gKFRKFxot+xcolLDgAn71cAj0ejcbibUZsOWHGpRt5sxPligejVfVwvNIyGg960e2ForMnFcqXERqflSV2m5/o7y4R+TcWAPmIiSn8+vXt0q+K3QhXoVyC0Pijl+yQpLz77b1B9UQ9xnQX29fgCW5JwtHLYo18KpYvKzQ+Ne2a0Hg1ZgDOpFzEitUbsXvPEaSlZ8BitXk8ByIqGBYA+ShRPE5o/BXBv8RFC4BMkwsn0myokej9L11vcvyyHVkmsU2AFcqL/exS08WKx5Il4oXGF4bd7sCUrxZg2cr1cLvFGz8RkfJYAOSjbILYOm5qWobQ+ISEktDrQ2CzFX0qf+sJKwuAQtp2UqwFc6g+BKVLFReKkSZYPCaWKSE0vqDsdgf6vj8Oe/Yf88jziEge3ASYD9GNXOfPpwqNDwgIQKWKDwjF2HZS7DiZFm0V/HdWuXI5BASI/fE6f1HsdychoZTQ+IKa8uV8vvyJfBALgHyUEZwBMOQYce16plCMhg/XFBq/9YQZOWZOyxaUwezC9lNiMwCNG9QWGn/12g0YjblCMRIFf3cL4kzKRSxb9ZfizyEi+bEAyEeJYrEI1YtNn589e1FofKP6tYTGWx0S1hwQO1KmJav3mWBziHVQbCj4MztzRux3JiwsFPFxMUIxCmLF6o1c8yfyUSwA8hEQEIDKlcWm4E+dPi80vv7DNRAUFCgUY9lOsSNlWrJsl1jvhuDgINSrW10oxqmzF4TGV6lcDjoPHP3Yvfew4s8gImWwACiAqlUqCI0/fPS00Pjw8DDUrF5ZKMaus1acz1C/K6C3S7lmx94UseN/tWpUQVio2KzRoaOnhMaL/s4WVFr6DY88h4jkxwKgAKpULic0/tDRk5AksSnlJo3qCI2XJGDm+iyhGFowY102BH9UaNxQbP1fkiQcOSJWNCZVLi80vqAsFrFiiYjUwwKgAKoIfk1lZxtx8VKaUIzH27YQGg8AP2/PQWqmupcDebPULKfw9D8AdGjXXGj8uQtXYBBsIV0lSaxoJSL/xwKgAGrVSEJgoNi/qj37jgqNr1ypLKpXE1sGcLiAb//KForhz2b8mQW7U+zzv3atKqhYQawD4O49R4TGBwUFomYNsd8VIvJ/LAAKICxUjweTKgjF2LbjoHAezz75iHCMH7cYcOE69wLcKeWaHQu3iW+UfLqD+M9o206x35VqVSsJn1whIv/HAqCA6tapJjR+z76jsNvFXrxPtG8pfBrA6pDw4SKxFrP+aOSSG8JH/4KCAtGhndhSjdVmx/4DyUIx6gn+rhKRNrAAKKC6D4n9pWqx2rDvwHGhGHFx0WjR9GGhGACw+bgZaw+yL8Atq/eZsOmYeLfEVs3rI1bwBr69e4/CahO7QKfuQ1WFxhORNrAAKKDGDWoLt3Zdv3GHcB6vvvyscAwAGPnzDWTnumSJ5csyTS58skSeGZFXX3pGOMafG7cLjQ8MDECDh8WaEBGRNrAAKKC4uGhUfbCiUIyNf++GwyG2C79BvRqoV0esyQyQt+O93/wM4SNvvkySgEE/ZOCqQbwQalCvBh6uW0Moht3uwOYte4Vi1KyehFgVrgEmIt/D2wALoWWzejhxMqXI43OMJuzafRgtW9QXyuOtHp3Rd+B4oRgAsOFILr7dkI0+7WKFY/miGeuy8OdhsX77t/Tq2UU4xradB2EyiS1FNGtSVzgPT7o6J0lofOneZ2XKhOh/GXP9f5mUMwCFIMf6+6rf/hbPo9nDwkcCbxm/4gZ2ntFeM5ftpyz4bPVNWWLVqllFuFETAKxes0k4RqvmYsUlkdZJEmA0mWC1iO3F8QUsAAqhVs0qKBYv9rW8eese3MwUP4v/9ptdhWMAeb0BXp+RhuRU//9lv+X4FRt6zEyHQ6YtEG/L8PWfcSMLW3fsF4pRsngcqlerJJwLkXZJMJqMsFq18fchpZ7IJgAAIABJREFUC4BCCAwMQNvWjYViOJ0urJZhFuCxVg3Ropn4jAQA5JjdeOmrNFy64f9dAi/dcOKlaekwWuS5wa5p4zpo1aKBcJxff9sEl0ssp3ZtmgtvVCXSLElCjtEEm82udiYew78tCkmOlrxLl68T/sseAIYNfAMhIcHCcQDgqsGF7l+l+nURcOmGE92+TMW1bHn+P+r1IfhoWG/hOE6nC7+sWC8c53HBFsREWiVJErKNRk29/AEWAIVWr041lCoRLxQj/ep1WY4Eli+XgB6vdBSOc8v5DAee/uwKjl32vz8EJ9Ps6Dj5iqxdEHu+9hweKFtaOM66v7bj6jWxW/VKlyqOh2pVEc6FSGskt4RsQw4cgo3afBELgEIKCAjA44Ld3gDgx0W/ypAN8GaP55GYUFKWWACQYXCi8xdXsOO0RbaYatt+yoJnPruCdJm+/AGgbNnSeOPVTrLE+nHRauEYT3ZoBZ1OJ0M2RNrhdruRnWOA0+m/M5/3wwKgCDp3bCP8l23yiRTsErz0BQBC9SEYNbyPrGu/OWY3un+Zilnrxa/GVZMk5R316/5Vqmxr/kBeEfjJ8D7Q60OEY23bcQAnT18QiqHT6dD52TbCuRBpidvtRrYhB06ndhuisQAogooVysrSjGfarIWQZHjDNmlUBz1fe044zu0cLmD0sht4bUY6skzyvTw9Jcvkxqsz0jF2+U3I/ee7d88uaNSgtiyxZs1bKhyj4cM1ZVmKINIKl8uFbEMOXC7tvvwBFgBF9nzHtsIxjiefxXYZbgkEgHd7v4D69cQ60d3NX0dy0XrMJazZL0/DHE9Yvc+Ex0ZfxIYj8ufc8OGa6N1TniOYf2/Zi2PHzwjH6SzD7yKRVrhcLhj48gfAAqDI2rZpiri4aOE438xeKMuJgMDAAEwePwjFi8UJx7pTerYTvb5Nx/NfpOJMuvdulDmf4cCL09Lw9pyrsrT3vVN8fAwmjB2IwEDxPzYulxszZi8WjlMsPhatHxU7mkqkFQ6HE1nZBrjcvjerqQQWAEUUqg/BC12eEI5z8vQFrJKhAxwAFC8Wh3GfvCfLC+putp+yoO24Sxjx83WkZnnPppnUTCdGLL6OR0dfwt8y3Op3N4GBAZg4+n2ULC5PgbVs5V84k3JROM4LXZ+QZS8Ckb+z2R0w5BhkWXb1FywABHR/vgNCZfjLd/q3i4R7wN/StHEdjBreR7Ed4TaHhO83GdD0o4sY/GMGzl1Tb0Yg5Zodg37MQNOPL+L7vw2wOZT5g63T6fDpx33RpNFDssTLMZowc67413+oXo9unR+XISMi/2a12ZCTk+PTm5qVwAJAQFxcNJ558lHhOJmZBsyau0Q8of/q9Ewb9H/nJdni3Y3dKWHhthw0G3kR7cdfxtyN2cg0Kb+mZrS48csuI7p9mYYWoy5h0bYc2J3K/ql+v9+reFaGn/MtM75djOxso3CcTs+2Rmwsb/4juh+z2QKj0f8v9ikK3gYoqMcrHbFyzUbhoySLf1mLDu1aoLZMzVx6vt4ZNzMN+Onn32SJdz9HLtpw5KIN41fcRPNq4WhZLQwtqoWjRtlgBAjORLglCcev2LH9pAVbTpix/ZRFsS/9u3nlxadlbbZ0+MgpLF0u3vUvODhI1ryI/JEp1wyLxX96msiNBYCgsmVL49mnHsOK1RuE4rhcboyeMAuLf5iM4GB5fiyDB7wOQ44Ja9ZuliVefqwOCRuP5mLj0bzd93GRAaj9QCiSSgcjqVQIKpcOQfHoAETqAxETrkO4Pm8Cymxzw2CWYLK5cCPHjbNX7Th71Y6Uaw4cvWxV7Rjis08+iiEDesgWz+FwYvSEWXDLsAGpc8c2KFO6hAxZEfkjCUZjLqw2bVzqU1QsAGTw9ptd8dsf/8Au2EryTMpFzFuwHO/06i5LXgEBARg7qh+KxcdgwU/i3eYKK8vkxpYTZmw54fFHC3up+1MY+n4PWfdSzJ63FCnnLwvH0etD8GYP8RsIifyRJEkwGI2abO1bWNwDIIPSpYqjc0d5OrHNnb8Mhw6flCUWkLeBbeB7r2HYoDfYKrYAdDod3unVHR8M6ilrd8X9B5Mx/z8rZYnV9bn2wvdREPkj13+7+/HlXzAsAGTyds9uiIwMF47jcrkx4tOvkZsr77rVy92fxthR/RAUFChrXH8SGBiAUcP7oM9b3WSNazTm4qNPp8nS7yE6KhK93uDXP9GdbnX302pf/6JgASCT+PgY9O4pz1/MqWkZ+GTcDNnPqz7z5KOYPvUjWRoY+Zv4+BjM/Gqk7F31JEnCyDHfIP3qdVnivdOrG3f+E93BYXcgK9sAN7v7FQoLABm91O0plC+XIEusvzbtxA8L5bkx8HZNG9fBikVfoUmjOrLH9lUN6tXAkv98Ids5/9vNW7ACf2/ZK0usShUT0e35DrLEIvIXVpsN2Tk5bPBTBCwAZBQcHIQhA16XLd60mT9hz76jssW7Je9r92O806u7rOvcvkan0+Gl7k9hzozRsnX4u92OXYcwa+7PssUbNvBNLuEQ3YZn/MVo929/hbRq0QDt2zSVJZbL5cbADybj7LlLssS7XWBgAPq81Q2zvh6JsomlZI/v7cqWLY050z/BB4N6KtI6OeXcFQz7eKos6/4A8GSHVmjamLM2RHkk5BhNyDUr0/pbK1gAKOCDwW8iOipSllgmkxn9B0/EzcxsWeLdqUmjh7B88Vd4p1d3TfSUDwoKRM/XnsOKRV/KdqXvnW7czELfgeNgNMpzG2FsTCSGytiPgMiXSW4JBoMRNp7xF8YCQAHFi8Vh8IDXZIuXmpaB/kMmwWxWpqNVqD4Efd7qhhWLvkTzpvUUeYY3aNSgNpYtnIoBfV9RrNjJzbWg38AJsm36A4Ch7/dEfHyMbPGIfJXL5UJ2jgF2B4/5yYEFgEI6Pt0aLZo9LFu8Y8fP4L1BE2C12WWLeaeyZUtj5lcf4+vPP0SN6pUVe46n1apZBd98MRxzZ3yKihXKKvYcq82GfoMm4MSpc7LFfKRFAzz95COyxSPyVU6H87/H/LjTXy4sABSi0+kw+uN3Zf1y23cwGYM+mAyHQ9lzro+2bIjFCyZjwZxxiuyM95S6daph2hfDsfD7SWjVooGiz7LbHXh/6Gc4cChZtpjFi8Vh9Md9ZYtH5KusViuyDDmytNGm/8MCQEHFi8Vh3Kj3ZO3At33nQQwYOknRmYBb6tWpjm+/+QTfzx6Lx1o19Ikd6MHBQWj9SCPM/3YsfpgzHo8o/OIH8r78BwydhJ27D8sWU6fT4dMR77BnA2maJAG5ZjOMplwAPOYnN94FoLDmTeuhe5fH8fMvf8oWc/vOg+g7YCy+mToC4eFhssW9l/r1aqB+vRrIMZqwfuNOrFm7GYePnPKqc7eVK5XF0088ik5Pt/boenlurgX9Bk2Q9csfAF5+4Sm0bFFf1phEvkSS8nb62+3Kf+xoFQsADxjcvweST5zDkWOnZYu572Ay3ur7Kb75YjiKxcfKFvd+oqMi0aVTO3Tp1A7nL1zBug07sHPPYRw7fsbj63JBQYGoXfNBNG5YGx3aNVd0bf9ert/Iwnsyr/kDeTMvA/vJt4mUyNe4XC7kGI1c71cYCwAPCAkJxtTPhuHF14fi+o0s2eIeTz6LV98cjulTP0aliomyxS2IihXKos9b3dDnrW6wWG04cDAZe/Ydxd4Dx3E25RJsMi9R6PUhqJJUHg0frolGDWqjXt3qCAvVy/qMwkg5fxl93x8v625/IG/ZaPKEwT6x3EKkBKfDCYPRyPV+D2AB4CElisdh0rhB6N33E9mawwB5RwRf7zUCUyYMVm3DXlioHs2b1vv3CKHb7Ub61Ru4eCkN5y9ewYWL6UhNuwZTrhlWiw25ZguMRjPMlrxjjeFhYYiKCkdEeBjCwkMRER6GxIRSqFC+DCqWL4vy5RJQpnRxr+lauHP3YQwZ8TlMJnmbkAQFBeLziYMV6UpI5AusViuMJjO43u8ZXn8/bFRMZaHfhMO7l8uViixW/roRn46fKXvcwMAA9O7ZFb17dvGaF6W/kSQJ8/+zCtNnL5K1iLvlow96o1vnx2WPez91Gj/v0ecRyWnD73MUjd/2qd5C442GFK9+x/JN4WHPPdsGPV97Tva4Lpcbs+YuwdARU2X/MqW8K30HDvsMX8/4SZGXf683nvf4y5+ItI0FgAr6v/synuzQSpHYG/7eiedfGoj9B+Xdla5lR46dxguvD5XtVr87dWjXHH3fflGR2ERE98ICQAW3zng3bqjMmv3VazfQq+8nmDnnZ+6iFeBwODF99iL06P0RrqReU+QZTRvXwViZe0UQERUECwCV6PUhmPbFh6hfr4Yi8V0uN7797hd0f3WIrMcPteLw0dPo/uoQzJ2/XJEpfwCoU/tBfPnZMISEBCsSn4joflgAqChUr8e0z4ejetVKij3j7LlL6NH7I0yeOp97Awogx2jCxM/nokfvj5By/rJiz6lerTJmfjUSYWGhij2DiOh+WACoLDIyHLO/GYXq1ZS7fMflcmPhkt/wTNd+WLbqL8W+aH2Zy+XG0hXr8EyXfvj5lz8VPYNcvVplzJ42EpGR4Yo9g4goPywAvEBsTBTmzfgUdetUU/Q5mZkGjJ04Gy++PhRbtu1T9Fm+QpIkbN66F91fHYLxn81BdrZR0efVq1Md82Z8itiYKEWfQ0SUHxYAXiIyMhyzp43ySDOfU2cu4L3BE/HKmx/KeoGNr9m24wBe7vkhBgyZhDMpFxV/XtPGdTD7G375E5F3YAHgRcJC9fjmixF4on0Ljzzv6LEz6NN/DF54fRj+WL9NE0sDTqcLf6zbiu6vDUHfgeNxPPmsR577xOMtMe3z4QjVq9e+mIjodmwF7GVCQoIxccz7SChTEt/9sMIjzzxxMgUfjvwSX8/4Cd06t8ezTz+G4sX8qx3t9RtZ+PX3v7F0+TpcvXbDo8/u9cbz6Pv2izzqR0RehQWAF9LpdOj/7stITCiFCVPmeOwsf/rV6/h65kLMmPMzHmnRAB2faY2mjer47DE1u92B7bsOYfWajdiyfb/HZziCggIx8sO30emZNh59LhFRQbAA8GLPd2qLCuUTMOyjqbhxU75bBPPjdLqwcfNubNy8G1FREWjdqhHat22GhvVrQa8P8VgeRWG12bFv3zGs27Adm7bsUe3oY4nicZgyYTDq1amuyvOJiPLDAsDL1a9XA4t/nIIhw6fg8JFTHn++0ZiL1b//jdW//41QvR4NGtREy6YPo2H92qhUMVH1aW23243zF1Oxe88RbN91CPv2H4NV5quIC6teneqYMmEwSvBWPyLyYiwAfEDJ4nH4buYYTP3mRyxeuhaSpM5VmVabDdu2H8C27QcAADHRUajzUFXUqf0gqlWpiKSkcihdqriiOVy9dgNnz17CyTPncejoKRw+fAo5RpOizywonU6Hl194CgP7vYagoEC10yEiui8WAD4iODgIHwzqieaN62LUuBm4mZmtdkow5BixZdu+/+kpEB0ViYoVEpCQUAqJZUoioUxJxMfHIDYmEjHR0YiNiURQcCCCg4L+7YJnNlvgdLngdLiQbTDBkJODbIMJmZkGpKVn4EpaBtLTr+H8hTSvednfqXixOIwd1Q/NmtRVOxUiogLx+m3JUTGVhT53D+9eLlcqXiMz04BR42dg67b9aqdCAB5p0QCjP+6LuLhotVMh8gir1QaTKRcS1JmN9JS2T/UWGm80pHj1O5YzAD4oPj4G078YgfUbd2L85G8V715HdxcdFYkB/V7B8x3bqr4XgsgTJLcEo8kEm13dfTYkDzYC8mHt2zTFr798gy6d2qmdiua0b9MUq5dOQ5dO7fjyJ02wOxzIys7my9+PcAbAx8VER2Hk8D5o/WhjTPlqAc5fuKJ2Sn6tUsVEDBv4Jpo2rqN2KkQeYzZbYLaYodL+Y1IICwA/0bxpPTRpVAcr12zEN7MWcllAZtFRkXjjtU549cVnEBzMPzakDS63Gzk5RjidTrVTIQXwbzI/EhgYgC6d2qHto00w5/tlWLZqPWwqn4n3dXp9CLo+1x69enbhDX6kKTabHcZcEyQ3P/v9ldcvXvIUQNFdy7iJBT+txrKV62G3O9ROx6cEBQWi09Ot0futbihVIl7tdIg8xi1JMJlyYbPZ1E5Fdf5+CsCrkwNYAMghNS0DPyxchdVrNsPKP9T3FRaqR8dnWqPHKx1RpnQJtdMh8ii7wwGj0QS32/9vBi0IFgAqYwEgH5PJjNW/b8KCH1ch44bn7hbwBXFx0XihyxN4oesTnOonzZEkIDc3FxarVe1UvIq/FwDcA6AhkZHheLn70+jSqT02/r0LK1ZvwL6Dyaq1FlabTqdDw4dronPHtmj9aGOvv+iISAkOpxNGowkul2duHSXvwQJAg/T6EDzZoRWe7NAKly6nY+WvG7F23VZcvXZD7dQ8onSp4niyQyt0frYNHihbWu10iFTD433a5tXTEwCXADzpxMkU/Lr2H2zYuMPvlghiY6PQ9tEmePrJR1D3oWps3kOa5nTlffU7nfzqvx8uAZBmVK9WGdWrVcbQ93vg1Onz2LnnCHbvPYK9+4/B5fKtTUEBAQGo+mBFNG30EBo3fAgN69dCYCAbXxKZzRbkmi2An/fxp/yxAKD/T0BAwL/FQM/XnkN2thF7DxzDocMncfDISZw8dc7rCoLAwLyc69auinp1q6HBw7W4mY/oNi6XCzlGE5v60L9YAFC+YmOj0K51U7Rr3RQAYLHakHwiBWfOXsTpsxdw+uxFnE25DIvFMzuIw8JCUaVyOTyYVB5VkiqgSlI51KheGWGheo88n8jXmM0W5Fos4GI/3Y4FABVaWKge9evVQP16Nf7nv79+Iwtp6deRlnYNqekZuH4jEwaDCVnZOcjOzoEp1wKTKRdud97O41sFQ1hYKIKDghAQqENkRDgiI8IQGxuD2NhoxMZEokTxOJRNKImEhFJIKFMCxYvFqfF/m8jnOJ0umEwmOPjVT3fBAoBkU6J4HEoUj0Od2g+qnQqRpkkSYLaYYbFY+NFP98QCgIjIjzgcDhhNuTzXT/liAUBE5AckSUJurhkWqw3c4U8FwQKAiMjH2e12GE257OFPhcICgIjIR7ndbphyzby5j4qEBQARkc+RYLXakZubCzd3+VERsQAgIvIhPNpHcmEBQETkAyRJgtli4dE+kg0LACIiL2e322HMNcPNo30kIxYAREReyuVywZRrht1uVzsV8kMsAIiIvJDZYoHZbIHE+X5SCAsAIiIv4rA7YDLnwunkdD8piwUAEZEXyJvuz4Xd7lA7FdIIFgBERCqSJAkWi5XX9ZLHsQAgIlKJ1WpDrtnMFr6kChYAREQexmY+5A1YABAReYjbLcFszoXFaodWbuzLysrBoSOnkHzyHC6nXsXVqzeQbTDBZrMCAPT6UMTGRKJ06eIoV7YMqlerhLq1H0RcXLTKmfs/FgBERAq7tc5vtmjjWJ/RmItNm/fgr7934eSp8/f9Zx2OXJhMubiSeg379h8HVgM6nQ5VH6yAdq2bovUjDREVFeGhzLWFBQARkYJsNjtyzWa4NNDF72amAUuXr8Pvf2yB1Vb05kWSJOHkqfM4eeo85n6/DE8/2QpdO7dHsfhYGbMlFgBERApwOBzIzTVrYp3f5XLj19//xvc/robFYpU1ttVmx7KVG7Bm7RZ07/I4Xuz6JIKDA2V9hlaxACAikpHL5UKu2QybwBewL0lNy8DYSd/ibMplRZ9js9nx48I12LHrMEZ92BsJCSUVfZ4WBKidABGRP3C53TCZTMjMytbMy3/HrkN4Z8A4xV/+tzubcgl9BozDzj1HPPZMf8UCgIhIgCRJMJstyMrKhsVqUzsdj1m/cSdGT5gNs1neKf+CMJut+GTsTPz+5xaPP9ufcAmAiKiILFYrzLkWuCVtNfJZu24bvvzmP6qeaHC73fhq+kIEBATiifbNVcvDl7EAICJF3czMxp59x3D02Bmcv3gFqWkZyMrKgcWa9+UYFhqKuLhoJCaURKUKZVG71oNoWL+mF+/4lmCzOTSzs/9OO3YdwlfTf/KK44ySJOGr6f9BbGwUmjZ6SO10fI5O7QTyExVTWei37PDu5XKlQkQFZMgx4o9127Dmj39w7PiZQo/X6XSoVTMJT3d4FE883hwx0VEKZFl4eTf1meHUwM7+u0lNy8A7A8apMu1/PxERYZj19cdIKFNC1rhtn+otNN5oSPHqd6xXJwewACDyJRk3svDDT6uwfOVfsq2Hh4Xq0aVze7z+ckeUKB4nS8zCcjgcyDVb4HBo96Y+p9OFfoMmeHTDX2FUSSqP6VOHIzBQvq1t/l4AcBMgEQlzudxYuOQ3dOz6Hn5a/Jusm+EsVhv+s2gNnu7cF7PnLYXD4bmvb4fTiWxDDrINOZp++QPA8lUbvPblDwBnzl7EqjWb1E7Dp7AAICIhly6n46U3hmHy1Pkwmy2KPcdqs2HW3CV49c3huHzlqmLPAfLO8ucYjcjONmj+xQ/kdfj7z6I1aqeRrwU//YrMLIPaafgMFgBEVGR/b9mLF14fmm+/dzmdOHUO3V8bgn+27ZM9tsvlgtFkQmaWQTNn+Qti6fJ1Qq19PcVisWLZyg1qp+EzWAAQUZGsWL0Bgz+cjNxc5b767yU314KBwz7Dyl83yhLv/1782bBabdDKTX0FYTTm4vc/fOe8/a+/b4bJlKt2Gj6BBQARFdqK1RswZuJsuFzqnX93udwYPWGWUBHgdDlhNJmQlX3rxU932rR5j098/d9itdqw6Z+9aqfhE9gHgIgK5e8tezHus2+95hz42EmzER8fg0daNCjwOKfTBbNFO/36RazftFO2WFXC9eiSEIOmcRFIDA0BAKRa7diZlYtlaQacMctThP21aReefepRWWL5M84AEFGBXbqcjo8+/VrVL/87uVxujPjka1wpwMZAh9MJQ44RWdna6dcvIisrB6fPXBSOExygw8gqpbGyQQW8mhiPpHA9wgJ0CAvQISlcj1cT47GiQQV8nFQKwQHiJ+dOnjqPbINROI6/YwFARAXidLow9KMvVFnzz4/JZMaQj6beszBxOBww5OTt6rfb+eIvqENHTgnP9AQH6PBt7QfwYkIsAnT3frkH6nR4KTEOs2uXFS4CJEnCoSOnhGJoAQsAIiqQn37+zaO7/QvrxMkULF669n/+O4fd8e85fr74Cy/55DnhGB9WLoUmseEF/uebxkZgWCXxq35PyJC7v2MBQET5yriRhdlzl6idRr5mzPkZN25mwW63IzvbgOwcNvARcSVVrN9ClXA9upWJKfS4FxJikRSuF3r25dRrQuO1gAUAEeXrh59W+cRVt2azBXO/XwZDjhEOjfbrl1NqWobQ+C4JMQi8z7T/vQTqdHi+jNhlUKksAPLFAoCI7suQY8TylX+pnUaBrfrtb54Dl4kp1yw0vllsZNHHxhd82eBuTCax3LWABQAR3dcf67b5xNf/LTwHLh+LRezWvzKhRT9pnqAPFnq2aO5awD4ARHRfv67dLFssngPXFvU7RdD9sAAgonu6mZmN5BMpwnGCA3T4sHIpdC8T8/8dBUsK1yMpXI+XEuKwJC0bn53LgMMt9uq4dQ48NiZKKI7WhYWFwuEo+nLKVasTlSNCijQ2zSa2eTMsLFRovBZwCYCI7mnPvmM8B65h0VFFX8MHgB3ZpqKPzRRbw4+MFNtDoAUsAIjono4eOyMcg+fAfVdiYimh8cvSDHAVoYB0SRKWXc0SerZo7lrAAoCI7unCpVSh8TwH7tvKP1BGaPwZsw1L0rILPW5xajZScsUaNz3AAiBfLACI6J4uXk4XGs9z4L6tVo3KwjE+O5eBndkF30ewIysXk8+L/+xqVBfP3d+xACCiezIZi76GC/AcuK97qFYVBASIvSYcbgl9jl7BwtSs+y4HOCXgP6mZ6HPsMpyCd03pdDrUqf2gWBAN4CkAIrqnXLPYWerSPAfu0yIjI1DvoarYf+iEUByHW8L4s9ewJC0bz5eJRbP4cCT+9+ebanNgR2Yull0Vn/a/pXq1ijwBUgAsAIjIL0k8hS6Lli3qCxcAt5w12/BZyjVA/GTpfbVr3VTZB/gJLgEQ0T1FhIudpb5qLXo/fp4DV9/lK1fx8y9/qJ1GoYSFheKxVg3UTsMnsAAgonuKiYkWGq/mOfDi8XFC47XuWPJZ9B/yGa5eu6l2KoXy7FOPIDIyQu00fAILACK6p3LlxI6B8Ry4b9q8dR+GffQljEbfulQpPDwUXTq1UzsNn8ECgIjuqXKFskLj1TwHXqN6JaHxWvXLivWYMHku7HaxJRg19HjlWcTFic1aaQkLACK6p7p1qgvHUOsceF0eAysUt9uNb2YvxrffLYNb8C4GNVR9sAI6Pt1a7TR8CgsAIrqn+vWqIzDQ986BR0SEoXKlB8SCaIjNZsen42dj9Zq/1U6lSCIjwvHxB72Ff1e1hv+2iOieoiIjUL9uTeE4t86BP7fvAn64koUzZhvMLjfMLjfOmG344Uomntt/DhPPZgi//AHA6XBhw9+7xQNpQHa2EYOHf4Eduw6pnUqRBAYGYPiQnihTurjaqfgc9gEgojtIcDicsNlssNrsaNa0DvbsPypLZE+dA7fZ7Zg8dT4OHzmF/u++BL2+aFfS+rsrqdcw4pNpSEu/rnYqRaLT6TDovVfRuNFDaqfik1gAEBEAwOVywWqzwWq1we3O+wxPS8vALyvWq5xZ0a3bsAMnTp3HyA97o2KFRLXT8SonTp7DyDEzkG0wqp1KkQQEBGBA35fxeLvmaqfis7gEQKRhLrcbZosFWQYDMrOyYTZb/n35H0s+i76DJiI1LUPlLMVcupyO9wZNxPqNO9VOxWts2XYAg4d/4bMv/4iIMIwd+S6e6tBS7VR8GmcAiDRGkiTYbHbY7HbY7Xc/ard56z5MnjrfJ4+C3Y3VxiWBW5av2oCiYsY3AAAYRElEQVRvv/vFJ3f6A3m7/T/+oDfX/GXAAoBIAyRJgsPhgM1uh81qv2+f/F9WrMfc+ct99gVxP+s27MDJ0+cxangflBdscuRr3G43Zs37BStXb1TsGXp9CGw2eS70uVN4eCh6vPIsOj7dmrv9ZcICgMhv/e9mPimfjnxutxsz5izx2aNgBXXxUjr6vj8e/fu+jPZttHFpjM1ux8TJ32HbzoOKPaPLc23xxmud8OdfO7Dklz+RcT1TlrihoXo8+9Sj6Na5PWJjecOfnHRqJ5CfqJjKQp8hh3cvlysVIh9w66WfN8V/az0/PzabHeMnz/PZo2BF9XjbZn6/JJBtMGLkmBk4cfKcIvEDAgLwbq9u6PTs/zXhcThc2LXnEDb9sw+79x4p9FKSTqdD9WoV0faxJmj9SEPVevu3faq30HijIcWr37FenRzAAoAof//30rfb7XAV8KV/S3a2ER+PmY6Tp84rlJ93K1+ujN8uCaSmZWD4J9OQptBGTr0+BCOGvYXmTere858xm604fiIFJ0+dx6kzF3At4yaMxlwYjWa4JRfCwkIREx2FMqWLo9wDpVG9WmXUqf0gYmPU/9pnAaAyFgBE/z9JApxOR6G/9O+Uln4dIz6Zhiup4q13fZk+JATvvt0NT3VopXYqsjl56jw+HjMd2dnK7PSPjo7AmJF9UatGkiLxvYG/FwDcA0DkK6T/funbxV76t/j6OXA52ex2fPnNTzh6/Cze7/cKQn18SWD7rkOYMHmeYhvyEsqUwITR/VGWNy76NBYARF7sf3bvF2AjX0Ft23kQEyd/B9s9jgFq1YZNu3D6zEWfbhy08teNmDV3qWKnOKpVrYhxn/Tziil6EsMCgMjLSG4JNkfeC9/hcMj20r/F18+BK+1W46D33n0Jj7dtpnY6BeZ2S5g97xesWL1BsWe0bF4fHw55A/oQ354hoTwsAIi8gMvlymvM43DAoVDzHV8/Bx4bE4XXX3kWNWtUxvjP5uLipXRFngPkNQ6a8uUCHDl6Gu+9+5LXLwnY7HZM+nw+tm7fr9gzOndsiz5vdUVAgFcva1MhsAAgUsGtTXx2R95GPpfLpejzfPkceGREOJ56oiVe6vYkIiLCAAAzvvoI02YsVLy9ry80DjLkmDBq7AwcT1bmhqWAAB3e6dUNzz3bRpH4pB6vL+V4CoD8xf+s59vtkDw0Be+L58ADAnSoWT0JT3VoiZYtHr7nlPO6DTswbeYixWYdbgnVh3jlkkBa+nUMH/W1Yvc16ENC8OHQnmjZ7GFF4ns7fz8F4NXJASwAyLc5XS447HbY7Xlf+57m7efAoQNioiIQHR2JuLhoPFilPGpWq4wa1SsVuPnLxUvpGDNxtqJLAre0b9MU/fu+7BVLAidPncfHo6crdoojJjoSY0f1Q43qlRSJ7wtYAKiMBQD5EkmS4PzvUb2iNOWRU/KJcxg5ZjoMOSZF4sfGRGHcJ/1QrWpFReIXhtVm98iSAFD4xkFGYy6On0jB8RMpOH32IrKzjMgxmpCTkwsAiIwMQ3RUJEqWKoaqSeVRrWpF1KqRhPDw0HvGVPyYX0JJTBzdH4kJJRWJ7ytYAKiMBQB5NwlOpyvvC9/pgMPuBO5z0Y6nbN1xAJOmfK/YMb/EhJKYOGYAEsqUUCR+Ua3bsAPfzFwEq8JLAnp9CPrfZ0nAZrPjn237sfbPrTh+IqXQJzlCQoLRuEFtPPZIIzRtXAfBwYH//m+rft2EmXOXCveBuJfq1Sph7Ki+POYHFgCqYwFA3kZyS3m79R23GvKo/8K/ndLnwGvWqIwxI/siJjpSkfii1FwSMOWasXDx71i7fhtycy2yPKNk8Th07/oEOrRvhvk/rsKylcod82vRtB6GD3uTx/z+iwWAylgAkNokSYLD6YTD4YDdbofTqeyO/aLiOfD/Y7XZ8c3MRVi3YYfizypfrgw++qAXjh0/ix9++lWxJRclj1gCwHMd2+Cdt7oiIIBX7d7CAkBlLADI0yQJcLmcsNsd/7745W7GIzeeA787Ty0J+LKAAB3efrMrnu/UVu1UvI6/FwDsA0CEvEY8docTDkdeMx5PHdGTg9GYi1FjZ+Lo8TOKxNfpdHirR2d07/K4IvGV9HjbZqhetSLGTpqD8xdS1U7H64QEB2HowDfw2CMN1U6FVMACgDTp9he+w+6A28u/8O8l/eoNjPhkGi5fuapI/JDgIAwd1BOPtWqgSHxPKPdAGUz/cjjmLVipaBdEXxMVFYExI99F7ZpV1E6FVMICgDTB5XLlreE78qb0ldpB7UlKX/caFRWBsaP847pXfUgI+vbujgeTyuHr6Qs1vyRQulQxTBjdH+Ue8M7uhuQZLADI70gS4HbnfeE7nQ7Y7eq+8M1mK44dP4Mjx87g9JmLuHr9JnJycmE2mxEcFMxz4B7UrnVTPJhUwWOnBLxRtaoVMW5UP8TG8pif1nn1BgWAmwApf5Ikwel0wuFwes2mPbvdgc1b9+H3P7fgxMnzhS5AeA5cWTabHdM8dErAmzRrUhcfDXsLei/oZOgL/H0ToFcnB7AAoP+f2+3Oe+E7nbA7HHA6XPCG5jtA3oa8JcvW4Y/122Q7DsZz4MpZv3Enps3QxpJAx2ceQ9/e3XnMrxBYAKiMBQA5nE64nLe+7p2K35xXFJIkYcPfu/Dtd8sUW5PnOXBleLJxkBoCAnTo9cbz6Nq5vdqp+Bx/LwC4B4C8isvthsvpzGuv63TAaXdC8pKv+3u5fiMLkz7/DoePnlb0OUq9/LV+Drx8uTKY+dVHfrkkEBISjGGD3sCjLX33FAcphwUAqebftXunM+8/7U64Jd/anZ9y/jJGfjodGTey1E6lSHgOPI9eH4KhA3ugbp2qfnNKIDIy75jfQ7V4zI/ujgUAeUjepTn/vuy9dCq/MLbuOIBJn3+v+F30SomOjsCYkf5xzE8ut04JjJ34LS5cSlM7nSIrXaoYJo4ZgAfKllY7FfJi2lrsIw+R4HK5YLXaYDLlIstgwI2bWcjKNsBkyoXVavP5l//e/ccxbtIcn335J5QpgWmff8iX/12UL1cGM74acc+b/nzBC12f4Muf8sUZABJy+zS+y+WC87//6aON9Qrk7LnLGDPx2//X3r1Hx1Gedxz/vbu2tbquZGzANri2JWyDa5wUjLE5BYwvHG4mgAETAw2FAoW2pBwokJI0zTlpDpBASuBwOaE5uRVIfejpBWi5lQC13RAuNbaDsSRcsF3HF0krraRdaWfe/iGLSzG6vbM7uzvfz9+eZx4Lo/nNO/PMK88rrccVg5gDH97gI4EFxw88EghqW+Vjqiq0empSixuqNS0xMGmxK9OnDe3dWrc7pe092UDO8+prb+jcs04NpBbKFwEAI+b5vvycp37v44t9se6Mly9t7Sn95V/dr97eTNitjAlz4KOzfOkiPfjIE3Jd6BkfM7q98QhdOiWpmPn0i+FNVRVqqqrQl6c26MndHbqrda/6HfeieGvTNqXT3aqpqXaqg/JGAMBnWGs/dTff73nycl5ZfD7X1QMPP64Dbamw2xgT5sBHb3vzB+ru7nWqMT5m9Mj8o3VyfdWQfy5ujL48rUEzqyfo+nd2OoUA3/f1zpZmLV60YMw1UP4IABHned7Bi72n3Ed39r6K5cM6xWT9xrf1ymtvht3GqDEHPnabNruPdt7eeMSwF/9PWlxfrb+Ydbi+3fxbp/MSADAcAkBEfHb53pPn5cr6WX2QMgc/HVtqmAN3s2Vri9Pxx1RV6JIpyVEft2ZqvZ7c3aFmh3cCPviwPD9shOAQAMrI4NK95/ny/I8v8p7nh/5t/FL378+v1/4DHWG3MSrltJtfWHbt3ut0/OqpScXN6D8GFzdGF02p110tY18FcO0d5Y8AUIJ8a+UP3sX73kfL+OX+9n1YfN/qqX/K3/f384E58GDscwx9S+prxn7sxCrJYQGiM6C9KFC+CABFysrK++gC7x+8mx+8yHOVL6T/en1Tyd1NMQcejGzWbdrjyMTYf8VOrRjvdO5SnVRB4RAAhrFg0UVOxw+1GdHgnbzn+fI8T77vKef78j3/4Iy5dd6M4oWnH3U63vX8+DTmwAEUCwJAnnmeJ9/zBy7sHy3X+9zJRwxz4KWpsjKh/v7uMR+/J5NTY/XYvrmwO9s/5vNKA70DQ2EgOM/a2jvU0dmpdDqtnp5eZbN9yuVyXPwjZHAO/LKp9Z+5+H/S4Bz4w/OP0viY2y6ig3PgcOMaoNZ3jP05/Pq2Hqdz19SMfPQQ0UQAGILPRRoBGOscuCsCgLtpUyY7Hb9ud0reGH6PeNZq3R63HSanTTvC6XiUv8gGAN/3lcvl1NfXp0wmo+6eHnWlu5VKdaq9vUP7DxzQgQNtYbeJEucyB95UVeF0bubA3R01ze1Fyu09WT25e/STBI/v6lBLt9v3h48mAGAYZf8OQE9Pr3zfl299eb4v69uS34kOpYM58NJ23LGN+sd/ftGpxl2tezWzeoIW14/sccL69m7d/b7bVwClgd6BoZT9CkB3T496M5mBZ+9lsAc9SovzHLgD5sDdfWH+bJkxBLhP6vetrn9np36+q33IxwE5K/10V5uu3/yhco7bbhhjtGD+bLciKHtlvwIAhIk58NLW0FCnObNn6N1t7zvV6fetvt38Wz25u0MXTanXkolVmnbwv++ubL/Wt3Vr3R73Zf9Bx86dqfok2z1jaAQAABjCiqUnOweAQc092YHHOm5bDAxrxRmL83sClIWyfwQAhGlPJjfmY5kDLw5nnH6SEhVjm+UPQ2VlQktPZfMnDI8AAOQRc+Clr7a2WueeXTpfVVx1zml8AAojQgAA8og58PJw8YUrlUi4jWUWQlVVQqu/tCLsNlAiCABAHjEHXh4Om1ivP1h7XthtDOsrl69SQ0Nd2G2gRBAAgDy7q3WvNnSM/HvyzIEXpwtWLVNT4/Sw2/hcc2bP0PnnnhF2GyghBAAgz5gDLw/jxsX1jduvVVVV8b1cWVNdpTtvu1bxOL/SMXL8awEKYHAO/IJf79CPd7Zre09WPZ6vHs/X9p6sfryzTRe80arvNO91vvhLzIHny9Sph+uOW68pqgttPB7THbf8oaYcOSnsVlBi3D5xVQC1yUanHXleePrRoFpBRG341SZ9/a8fCLuNUbnpxrU67+zTwm6jbD373H/q3vt/EvqunsYY3XLTlTpzxSmh9lGulp9zrdPxXamWor7GFk+MBYrUohPn66gSeqGOOfD8O2vlKbr5z64MdSUgHo9x8YcTAgAwjFjM6MLzl4XdxogxB14YZ608Rd+88wZVV1cW/NzV1ZX61p03cPGHEwIAMAJnLl+iwyc1hN3GsJgDL6zFJx2vh/72Ts0+ZkbBzjln9gw9fP/Xteik4wt2TpQnAgAwAhUVE/TVP7k87DaGddUV5zMHXmBTp0zWD753u2687tK8TggkKiboyrXn6ft338YLfwgEmwEBI3TSwvlaeuqJ+o9Xfh12K4c0Z/YMrTpnadhtRFI8HtMFq5bp9N9fqF889Zz+5ZlfKpPJBlI7kajQqnNO1yUXrlR9PZMdCA4BABiFG65do81bW7Rvv9tneoPGHHhxaGio03VXr9baS8/Si798XS+8tFHvbnt/1NMCxhgdO3emli89WWectpB3OpAXRT2iIDEGiOLTumOnvnrr3erpyYTdiqSBu89v3XkDz4SLVEeqS29v2qbfvNuqD3fu0f/u2a9UZ5d6ewf+/VRWJpSsq9WUIydp+tFH6ti5jVowfzbfcSgC5T4GWNTNSQQAFKc339qqr33zB8rlvFD7YA4cyJ9yDwCsFwJj8HtfPE7fuOO6UPeJZw4cgAsCADBGS07+gu675zZNDmE8kDlwAK4IAICDYxqP1gP3fU1fXDC3YOdkDhxAEJgCABwdNjGpe/7mZm341Sbd/+DP8zYhkKiYoEtWn6nLLj5b48fH83IOANFBAAACsvik4zV/XpP+4ann9PS/vaqOjq5A6jIHDiAfCABAgGqqq3TVFV/S2jXn6tXX3tC/PvuKtr7bIs8b3R6/zIEDyDcCAJAHE8aP07Kli7Rs6SL19ma0eWuLNm1+T9u2/4/27WtTe0eXent7FYsZ5sABhIIAAORZZWVCC0+Yp4UnzAu7FQD4CFMAAABEEAEAAIAIIgAAABBBBAAAACKIAAAAQAQRAAAAiCACAAAAEUQAAAAggggAAABEEAEAAIAIIgAAABBBBAAAACKIAAAAQAQRAAAAiCACAAAAEWSCLljdMGu+seYa42uZjJ0hmeqgzwEAQPmz3bJmh5VeUFw/TLe3bA6yeoABoKmiLqn7rOx1YmUBAIAgecbYhzs7Km+WtvQFUTCgANBUUZu0z0paGkw9AABwCC91pRJnBREC4kF0U5dseEDSxUHUAgAAn2vmhMpcQ1+m/VnXQs4rANUNs+bHfPO2WPYHAKAQPBs3C9JtzVtcijhftI011wRRBwAAjEjc5PyrXYu4BwBpuWsNAAAwCsascC3hfuduNd25BgAAGI3fcS0QxNJ9TQA1AADAyNW6FuDZPQAAEUQAAAAggggAAABEEAEAAIAIIgAAABBBBAAAACKIAAAAQASNC7uBZY+vC7sFAAAK7sXLVod6flYAAACIIAIAAAARRAAAACCCCAAAAEQQAQAAgAgiAAAAEEEEAAAAIogAAABABBEAAACIIAIAAAARRAAAACCCCAAAAEQQAQAAgAgiAAAAEEEEAAAAIsi4FqhNNtogGgEAACPXlWpxuoazAgAAQAQRAAAAiCACAAAAEUQAAAAggggAAABEEAEAAIAIIgAAABBBQQSAdAA1AADAyHW6FnAPAEYfONcAAACj4XztdQ4A1tfzrjUAAMAoWPucawn3FYC4fijJc64DAABGwrN+7DHXIs4BIN3estnIPuJaBwAADM8aPZhON291rRPIFEBnqvLPJb0URC0AAHBoRnox3ZG4NYha8SCKSPu8vuzUJxKV/RMlc4IYLwQAIEieNXqgK5X4irSlL4iCztsB/381E5vmmZx/tYxZIWmGpJqgzwEAQASkJe2Qtc/ZcbG/S7c1bwmyeOABAMDHapON1uV41/2+wxb1vz9QzFiqBwAggggAAABEEAEAAIAIIgAAABBBBAAAACKIAAAAQAQRAAAAiCACAJBfTl/smjRpTm1QjRTaxIlNdY4lsoE0AuCQCABAfnW5HJzJeEcH1Uih9Vk73bGE088OwNAIAEB+tbscHBvnrwiqkUKLWePau9PPDsDQCABAfjW7HGytuUaBbdpVUHEre41jje2BdALgkAgAQB5Zq22OJX63rq7xjwNppoDq6hpvlNVxTkWsdf3ZARgCAQDIJ6MNriWs0feqk7OWBdFOIVQnZy23Rt91rWNNzPlnB+DzEQCAPLI5/2VJTjviSZoQk3mmrq7xT1XUjwNOH1dXP+ummMwzksY7FrPy9HIATQH4HGy1CeRZbXLWRsksCqSY1RYTM4/5xj5fOS6xY9++LelA6o7R5MnzanpzmRnGmpWSvdp52f9jG7pSLUsCqgXgEMaF3QBQ7ow1P7NGwQQAo3nW2nuNlTJ9GdUmGwMpO1aZvszBuwjXRY5Ps7I/CbQggM/gEQCQd9m/l2x32F2UkK64ck+G3QRQ7ggAQJ51du5sk9WjYfdRQh5KpT7gGwBAnhEAgALwct49kkJ9Xl8iOv2cf2/YTQBRUMRvFAPlo78/la5ITMxJKtkv+xWCMfa2dNf7L4bdBxAFrAAABdKVqv++ld4Mu48i9npnx/QHw24CiAoCAFAwb/THZS6RlAq7kyLUEVN8jfRyLuxGgKggAAAFlEo1tyhmrpDEhe5jOWPt5anUe61hNwJECe8AAAXWl2l7ryJx2G5J54mPcVkZ+0ddqdZfhN0IEDUEACAEfdm2txKVE9/XQAiI6kqcJ+n6rlTrY2E3AkQRAQAISTbT/t8VVYe9LauzJSXC7qfAUsbai7s6W58IuxEgqqK+/AiELplsavRln5B0Yti9FMjrMcXX8MwfCBcrAEDIstm29r7sgh8lKlNtklkiqSLsnvLDdhsT+05XKnFVNvvu/rC7AaKOFQCgiFRXzzwiNi52i6TrJdWE3U9A0pIesp6+m0637A27GQADCABAEUompzd4dsJlxtgrJC1S6f2/aiVttLI/jSv3BN/2B4pPqf1SASKnpqZpsuJaaqx/soyZK2mWpEmSaiVNCLc79UnqkrRfUqus/Y01sY3y9HI63bwv5N4AAAAAAAAAAAAAAAAAAAAAAAAAAAAAAAAAAAAAAAAAAAAAAAAAAAAAAAAAAAAAAACAUfk/dA0779X9AIwAAAAASUVORK5CYII=;" vertex="1" parent="1">
          <mxGeometry x="70" y="350" width="180" height="180" as="geometry" />
        </mxCell>
        <mxCell id="BahWNx85lN9U7c0tWjsk-5" value="" style="shape=image;verticalLabelPosition=bottom;labelBackgroundColor=default;verticalAlign=top;aspect=fixed;imageAspect=0;image=data:image/png,iVBORw0KGgoAAAANSUhEUgAAAgAAAAIACAYAAAD0eNT6AAAABHNCSVQICAgIfAhkiAAAAAlwSFlzAAALGAAACxgBiam1EAAAABl0RVh0U29mdHdhcmUAd3d3Lmlua3NjYXBlLm9yZ5vuPBoAACAASURBVHic7N13eFTF+gfw79ndNAKkkwAhARIgCYRAIFQFAQEbiCgKir38vLZrV+xeC9i714aKV7CgSBGVIk2aJIQAgYSSAAkhvfdkd8/vjxhECGT3lD1nd7+f57nPlXBm5j27WebdmTkzgiiKICIiIvdickQjgiB0ATAeQA8AXQF0++v/W//b1xFxEBER6UQtgBMA8v/6X+t/5wJYJ4pikdoBCGqNAAiCEAXgCgDTAIwEYFClISIiItdiBbANwFIAP4mimKVGI4omAIIghAG4Cy0d/wDFKiYiInJf6QB+AvChKIoFSlWqSAIgCEInAI8AeBAcziciIlJDLYA3AbwmimK13MpkJQCCIHgA+D8AzwAIkRsMERERtasYwH8AfCyKYrPUSiQnAIIgTAHwFoAoqY0TERGRZFkAHhBFcYWUwnYvzBNaPAdgGdj5ExERaSUKwDJBEJ4TBEGwt7BdIwCCIPgCWADgSnsbIiIiItX8COBGURRrbS1gcwIgCEIkWr71J0iLjYiIiFS0G8Dloiges+VimxIAQRCGA1gBLvQjIiLSs2IAU0RR/LO9C9tNAARBiACQDKCLMrERERGRiooBJLU3EnDORYCCIHRAy05E7PyJiIicQwhaFgeec1+e9p4C+BzAYMVCIiIiIkdIALDgXE8HnDUBEAThCQDXqBEVERERqe5KAM+e7S/bXAMgCMIkAL+CB/gQERE5MxEtTwacsVnQGQmAIAhGtBw8EKN0FIIgICoqCsOHD0fPnj3h7+8Pf39/+Pn5wWBgrkFERM7FbDajpqbGrjJWqxXV1dWorKxEZWUlcnJysGvXLhw9elSdIFt2DIw9fdvgthKA/wPwkZIt+/n5Ydq0aRg9ejQCAwOVrJqIiEhTTU1NqKurk11PWVkZduzYgd9++83upMIG94qi+P6pP/hHAvDXisHDAMKUaM3LywtTp07F1KlT4ePjo0SVREREulNfX4/GxkbF6vrtt9+wZs0aNDU1KVInWh4NjDr1FMHTE4BnATynREs9e/bEY489hpAQ7h1ERESur7a2Fs3Nkg/nO0NxcTHee+89nDhxQqkqXxBF8ZnWP5xMAARBCANwCEBHuS0MHz4c9913H7y8vORWRURE5BSsViuqqqoUrbOhoQGffPIJ9uzZo0R1tQCiRVEsAP65yv8uKND5jx8/Hg8//DA7fyIicisGg0Hxvs/b2xv33nsvRowYoUR1vmjp6wH8MwG4Qm7N/fr1wx133AEJpxISERE5PW9vb8X7QEEQcNNNN6F3795KVHeyrzf8VXkUgAFyagwKCsIjjzwCk8kkMzYiIiLnJAiCKiPgJpMJd999NwICAuRWNeCvPv/kCIDsb/+33HIL/P395VZDRETk1NSaAvfz88OsWbOUqOoK4O8EYJqcmmJiYjB8+HDZERERETk7QRBUGw1PTExEdHS03GqmAYBBEIQuAEbKqen666+XGwwREZHL8PDwUK3uGTNmyK1ipCAIXQwAxkPGnv+9e/dGv3795AZDRETkMtRMAKKiohAZGSmnCgOA8QYAPeTUMmzYMDnFiYiIXI7BYIDRaFSt/sGDB8utoocBQFc5Nehx7r+2tha5ubk4dOgQSkpKYLFYtA5JUbw/IiL903kC0NUEoJvU0gEBAejRQ9YAgmy1tbVISUlBcnIycnJyUFpaesZ+zIIgwM/PD8HBwYiPj8ewYcMQHR3tFPsVVFdXY+fOnSfvr6yszK3vLyEhAUlJSYiKinKK+yMi96Xmv1Hdu3eHn58fKisrpVbRTQCwEcAYKaWjo6Mxb948qY1LJooiNm7ciA0bNiAjI0PSN8SAgAAkJSVhypQp6NpV1iCI4qxWKzZs2IANGzYgMzMTVqvV7jr0fn/r16/Hxo0bJd9fYGAghg0bhilTpiA0NFSFKImI5GlsbER9fb1q9b/44otyjhDeJAA4CKCPlNLDhw/HI488IrVxSXbu3Imvv/4aubm5itRnNBpx4YUXYsaMGbrYxyA5ORkLFy7E8ePHFanPaDRi4sSJuPrqq9G5c2dF6pRjx44dWLhwIfLy8hSpz2QyYdKkSbjqqqt0cX9ERK2am5tRW1urWv3vvvuunDMCDhkBzAXgKaV0fHw8EhMTpTZul/z8fLz22mv46aefFD1sQRRFZGVlYfXq1QBa9jTQYmg5Pz8fr776KpYuXar4/R0+fBirV6+GyWRC3759Nbm/48eP45VXXsHy5ctRXV3dfgEbWa1WHDp0SPP7IyI6nSiKSh7ne4bMzEzk5ORILe5tBPCS1NIDBgzAwIEDpRa32e7du/HCCy8oeSTiGcxmM/bu3Ytjx45hyJAhDt3S2FH3t3v3buTl5SExMdGh95eamooXX3wRBQUFqrWh5f0REbXFEQlAdna21OKeRgDPSS0dExOjegLwyy+/4L333lP1RTxVXl4edu7cicTERPj6+qrenqPvLzc3F2lpaUhMTESHDh1Ub2/58uX44IMPFD0j+1wcfX9ERGejdgKQnp4uJwGQvgGQI3z33Xf4/PPPJS0Sk+PYsWOYM2cOioqKVG1Hq/vLzs7GnDlzUFpaqmo7X3/9Nb766iuIoqhqO6dz1P0RETkxUbcJwJYtW7B48WLN2q+oqMC8efPQ0NCgSv1a319ZWRleeeWVMx65U8qGDRuwdOlSVeq2hdr3R0Tk7HSZAGRlZeGDDz7QOgzk5OTgnXfeUfwbrF7uLzs7Gx988IHi93fgwAF8/PHHitYphVr3R0TkCnSXANTV1eGVV15x2Jx4e5KTk/Hjjz8qVp/e7m/r1q1YsWKFYvVVV1fjtddec9icf3uUvj8iIhehvymAJUuWoKysTOsw/uGnn35SLCY93t/ixYsVe/Twhx9+QEVFhSJ1KUXJ+yMichW6SgBKS0uxcuVKrcM4Q2NjI7777jvZ9ej1/urr6/H999/LrqewsBCrVq1SICJlKXV/RESuRFcJwLfffquboePTrV+/Xvbug3q+vzVr1iA/P19WHYsWLYLZbFYoImUpcX9ERC5EP1MAZWVl2LBhg9ZhnJXVasXy5csll9f7/VksFllz5UVFRdi6dauCESlL7v0REbka3SQAKSkpiq7WDuvQEQnBYfAwKHccY0pKiuRn9hW/v+AOSIgJhodJubcwOTlZcow7duxQ9P46hoQgLDYWRgV39JNzf0RELkbUzX6pycnJsusI9u6AV0ZNxKQe0Qjv2HIwTKPFjD2lhXgrbRu+ObRXVv3V1dXIzMxEXFyc3WUVub8AH7zy8GhMGh2B8LCOAIDGJgvSMorx+uep+GHVYVn1l5eX4/Dhw+jTx/6zoZS4v47BwbhwzqPoPXo0Ooe1nPBnbmpCwf4MbP3kU+z/5TdZ9cu5PyIiV6OLEYD6+nrs3Suvc76sZ1/su/Ye3BKbeLLzBwAvowlJXbpj0aSr8EPSZASYJJ17dNKOHTvsLqPI/V3QC/t+no1brow72fkDgJenEcMTwrD4nUuw6Kkw+PnKOwhHyv1VV1cjIyNDVruxF03GXat/xaArp5/s/AHA5OmJ8EEJuPrD9xH62BOAzO19pdwfEZEr0sUIQEZGhqzFY/FBofjxopnwNJ57uP/KiL4wNDZh+p71ktuScvSi7PvrG4Qf37sEnh7nvr9Zk0KBpjJc+6r0PQakJCr79++XtZ1xt/gBmPH+uzCYzn1/XSdNQmFdI/DeG5LbkpuIERG5CH0sApTzXLyHwYgFE65ot/MHAFituCIkArPDektuT0qsJSUlktvzMBmwYN6kdjt/AIBoxqyxRlx1nvR1D1JilbPnvsnTE9PeeK3dzh8AmixWYPT5wPBRktvT2x4MRERacfoEYEJ4LwwO6WrbxX99C384sr/k9mpqaux+lE/W/Y3sgcFxIbZdbK4DADw8XfrATmVlJSwWi11lysvLJbcXfcFYdOlr25x8VdNfr/uUaZLbq6io4EJAIiK9jADI6UCSunS3/eLmlgSgv28AfGQ8HWBvvHK+ISfFh7Z/UStzLQBgUG8DPCTmAKIo2n1/ct6/7gm2Hydd2fhXAhDZC7BlxKcNVqsVlZWVksoSEbkSXSQAcraOTQzpZtuFzc0nEwCTIGBgxwDJbdobr6z7s/Xbf3M1YK4GAHh5AHE9pL+19nbocu6v6wDbRmOK6xtR/df7Bw8PILyH5Db1tlUxEZEWdJEAeHt7Sy5bWF9j24XVdf8s1yT9mF9745V1f6X1tl1Yd+yf5SqkD3PbG6+Xl5fktmpsXHNwoPy0vfxlfIuXEy8RkYvQxxRAQID0b+PJRXm2XVj1d6JQ3NSAow02Jg5tsDfewMBAyW0l7y207cLqv/cAOF4ioqBcegJgb7xy7u/E7vafqhAB7C05pcMvKwUqpE87yImXiMhVOH0CsP74ETRb21m0Vl0LNDSe/OOashOS2zOZTOjYsWP7F55CToez/s/jaDa384hd7RGgsfjkH1enSn8kz8vLC76+vnaVkfP+Hdm6DdZ2Fh3uLalAYd0pIza7d0luz8fHhyMARESuMAKQXVWOF5I3nv0CUQSK/16FX9bciIcOpUhuz9/fH4Jg32Y7chKA7NxKvPDhOTavEa1A6d+78BVViHjsC+kHDkmJVc77V3w4C1s++uSsf2+2ilifW/T3D6oqgUVfSW5PTqxERK5EFwlAjx7SF3QBwNzUP/DHiWNt/2VhKfDX42PNohV3ZG5DQZON8+ptkBJrRESE5PYAYO7HKfgj5SyjFiVbgOaW4fEmM3DrO80oqZI+/C8lVrnv34a338XxtN1t/t3PR/JQ3vjXxkZmM/DRe0B1VZvX2kJurERErkIXCUBkZCS6dOkiubzZasX4ZV/imT/X/XM6oKIaqGjpLPbWlGN48kr8WHSWRMFGw4YNs7uM7PuzWDH+xiV45t3t/5wOqMps+R+AXVlWDP13I37eYd8z/KdLSkqyu0xUVJSsb9aW5mZ8cdU12Pju+7Ca/47/z4JSpBX/tWL/aDbwxENAqvTRG0Da/RERuSD9HAaUlJSElStXSi5vtlrxQspGLDy4B+PCeyHJNxChjRbsqi5DSlUp1pafQJOM7WoBQBAEDB06VFJZ2fdnseKFD3dg4YoDGDc8HEnRZoSajiI1y4LkgyJ+321pfcpRMoPBgCFDhthdrvV1WbNmjeS2LWYz1r/5Nvb8tBSRw4ehPqIXMi0G4EgWkHUYSN8N2LlB0emk3h8RkSvSTQIwbNgwWR1kq+yqcmTvL8d8BWI6XXR0tORvuordX24lsnMrVbm/mJgYdOrUSVLZYcOGyUoAWpUeOYrSI0dl19MWOfdHRORi9LEIEABiY2NlDZM7wgUXXCC5rKvfX3x8vO4fr5Nzf0RErkY3CYDBYMC1116rdRhnFRYWhgsvvFByeb3fX3h4uKwO0mQyYdasWcoFpDC590dE5Gp0kwAAwOjRo9G7t/ST+tR07bXXwihx//lWer6/6667DgaDvF+HCy64QPYTD2pR4v6IiFyIfqYAgJbFZNdff73WYZwhOjoao0ZJP4K2lV7vLzY2VpHV8YIgYPbs2QpEpCyl7o+IyJXoKgEAWuaSL7roIq3DOMnHxwf33HOPYvXp7f58fX1x1113KVZfYmIiJkyYoFh9cil9f0RELkJfIwCtbr75ZsTHx2sdBgRBwP3334/w8HBF69XL/RkMBjz44IPo2rWrovXefvvtiI2NVbROKdS6PyIiV6DLBMBoNOLhhx9GWFiYpnHMnj1blefG9XJ/N910ExISEhSv12Qy4ZFHHtH8qQe17o+IyBXoMgEAWoZun3rqKc06yWnTpuHyyy9XrX6t72/GjBm45JJLVKu/c+fOeOKJJzRLAtS+PyIiJycaATwntXRMTAwGDhyoXDin6dixI8aOHYusrCwUFRW1X0ABHh4euPvuuzF16lTV29Li/jw9PXHffffh4osvVr2tzp07Y8yYMTh06BCKi4vbL6AAR94fEdG5iKKIpqYm1epPT09Hdna21OJNuk4AgJZ/0M8//3zU1NTg8OHD7ReQwd/fH0899ZRDt4t15P0FBgbi6aefduiwuJeXF8aMGYPy8nIcOXJE1ba0uD8iorPReQLQqPsEAGhZzJWYmIi4uDjk5uaivLxc0fo9PDxw2WWXabZgrPX+YmNjVbu/qVOn4oEHHkBoaKiiddvCYDAgKSkJ/fr1Q25uLioqKhSt39PTU9P7IyJqi94TAAGA5LNjp02b5vDnvkVRxLZt27Bo0SIUFBTIqksQBIwdOxYzZ85EcHCwQhHKI4oitmzZgkWLFsmeFhAEARdccAFmzpyJoKAghSKURxRFbN68Gd98843s+zMYDBg3bhyuueYa3W9DTETux2KxoLq6WrX6v/32W6xdu1Zq8SqnSwBaWa1WZGZmIjk5GcnJyTYnAyaTCfHx8UhKSsLQoUN123FYrVZkZGRgx44dSE5OtrmzdPX78/DwQHx8PIYNG4ahQ4fC399f5UiJiKTReQJQ6bQJwOlycnKQk5OD0tJSlJWVoaysDA0NDfD390dQUBACAwMRHByM2NhY+Pj4aB2u3Y4dO4acnJyT9+Yu9xcQEIDAwEAEBQWdvD9vb2+twyUiapfeEwDdHAcsV0REhG73oVdCZGQkIiMjtQ5DNa5+f0REOqPPnQCJiIhIXUwAiIiI3BATACIiIvfDKQAiIiJ3xASAiIjI/XAEgIiIyB0xASAiInJDTACIiIjcD6cAiIiI3BETACIiIvfDEQAiIiJ3xASAiIjIDck6DMhsNqO2tlapWIiIiFyGxWJBXV2davWbzWY5xUVZxwETERGRUyrmFAAREZH74SJAIiIid8QEgIiIyA0xASAiInI/nAIgIiJyR0wAiIiI3A9HAIiIiNwREwAiIiI3xASAiIjI/XAKgIiIyB0xASAiInI/HAEgIiJyR0wAiIiI3JCs44D9OnkqFQcREZFrEUVAlHVk7znVN4pokl69KCsBqEi+U05xIiIi19VYChxfolr193/SjHeWSc8AOAVARETkfrgIkIiIyB0xASAiInJDTACIiIjcD6cAiIiI3BETACIiIjfEBICIiMj9cAqAiIjIHTEBICIicj8cASAiInJHTACIiIjcEBMAIiIi98MpACIiInfEBICIiMj9cASAiIjIHTEBICIickNMAIiIiNwPpwCIiIjcERMAIiIi98MRACIiInfEBICIiMgNMQEgIiJyP5wCICIickdunQCUVjQgI6sMZotV61D+obSiAZnZ5bLjqqlrxr7DpWhotCgUGRERuQjRpHUEjpabX41HX9+CzTtP4HhBDQDA28uI/tFBuPWq/rhzZjwEwfFxFZTU4Yk3t2JTSh6ycioBAJ4eRvTt6Y/rpvTDw7cmwmRsP1+rrG7CE29txerNOcjKrYAoAkajgJhegbhychSevDMJnh5GtW+HiIh0TgAgSi0sZt6nYCjqm//DPjw47w9U1TSd9ZrxI8Lx+csTEdmtk8Pi+mlNFu54Zh1KyuvPes3guBB8/tKFGBQbctZrfvvjGG576nfkFdac9Zr4vkH4ct5EJMZ1kRUzERG1o7EUOL5Eterv/6QZ7ywzSy1+yG2mAB6Yuwm3PfX7OTt/AFi3/TjG3fAjauqaHRLXzxuOYPq9K8/Z+QPArv3FmHDTTzhRVNvm3/+RcgKX/t/yc3b+ALD3YClGzVyM3/44JjlmIiJyeu6xCPCBuZvw9oI0m68/crwKj762WcWIWlTXNuGu5zfYfH1ZZQNue2rtGT+vazDj5ifWwGq1bTCnscmCaXf/zCSAiMiNuXwCYG/n3+qjb/ciLaNYhYj+9vz7O5CbX21XmV83HcOqzf/suF/7bOfJdQO2YhJAROTWXHsEQGrnDwCiCGxJzVc4or/VN5gx/8d9kspu3JH3jz9vTj0hqR4mAURE7stlEwA5nX+rtEz1RgAW/3YIFVWNkspuSyv4x5/TMkokx8EkgIjIPblkAqBE5w8ARaXnXpgnx2c/SPv2DwA1dX8vZGw2WyUnEq2YBBARuR3XmwJQqvMHWh6ZU0Nmdjn+SJE2bA8AA/sFn/xvD5MB/XoFyI6JSQARkXtxqQRAyc4fwDmfuZfjs8XSv/0D/0wAAGBQbPBZrrQPkwAiIrfhOiMASnf+4WEdMWl0hGL1tWpqtuCrZRmy6rh4TM9//PmWK/srtnshkwAiIvfgEgmA0p0/AHz24gR07uipaJ0AsOz3bBSXSV9bMCapO/r29P/Hz8aPCMedM+PlhnYSkwAiItfn9AmAGp3/vbMTMPm8SEXrbPXp9/KG/2+f0b/Nn7/6yHmIjQqUVfepmAQQEbk0554CUKPzv3l6HN5+YoyidbY6mleFtdtyJJf37+yFqyb3afPvOnbwwLoF0xHTW/6CwFZMAoiIXJfTJgBqdf6fvTgBBoM6xwHO/2EfRMlHLwGzp8TA2+vsJ/mFBXfA+q+uZBJARETtcc4RAGfs/C0WEV8skbf47/ar2x7+PxWTACIisoXTJQDO2PkDwK9/HG33pL5zSYoPPePxv7NhEkBERO1xqgTAWTt/QL3Ff2fDJICIiM7BeaYAnLnzP1FUi5Ubj0gu37GDB2Ze2tfuckwCiIjobJwiAXDmzh8AvvxpPywW6av/rrmkLzr5StuTgEkAERG1Qf8jAM7e+YsiMP+H/bLqsHf4/3RMAoiI6HQmrQM4F2fv/AHg9225yM6tlFx+QJ8gDE8Ikx1HaxIw7oYfkZldLrs+4O8kYOkHl+Gi89XZOOl02bmVKJKxk6KtDIKA6Eg/BPp5q94WAFitIg4cKUdlTVP7FxMpyMNkQEzvAPj6eGgdCjmYbhMAV+j8AXnH/gLA7VcPUCgS500Clv2ejfcX7sbO9CKUyzz62F69wjtjdGI3vPDvEejZvbOidYsi8PF3e7FwxQHs2l+M2vpmResnspXBICCmdwDGDQ/Hf+4b4bDElzQlCgAkT06LmfcpGMvfXKXzLymvR/cxn6Op2SKpvLeXEXmbblX8w1hQUqdoEgAAXp5GxZOA8qpG3PfiRny9PFOxOqXq2MEDrz16nmJnLhw7UY1bnliDdduPK1IfkVLCgjvgkxcmYMq4XlqH4vwaS4HjS1Sr/v5PmvHOMrPU4nt0twbAVTp/APhqaabkzh8Apk+MViUTd4Y1AaIITLv7Z110/gBQU9eMfz23Hu99vVuRusbd8CM7f9KlgpI6XH7XCqzdmqt1KKQufS0CfOrtbS7T+QNKDP/LW/x3LmomAZt3npBd17v/S8Om5DwFolLW469vwcGjFbLqeOTVzThyvEqhiIiUJ4rArU+uRXUt16S4Mt0kAJt3nsDcT1IUrVPLzn9Laj4yssokl4+O8MfYpHAFIzqTWknAjY+vkTWfXVvfjCfe3KpYTEqqazDj0dc2Sy6//3AZPv5ur4IREakjJ78ab3yxS+swSEW6SADqGsy4ac4aWK0yTso5zS1XxmH+Sxdq0vkDwKffp8sqf9uM/hAcELoaSUB2biUee32L5PJpGSWoa5A8r6W67WkFkstuS8uXdSAUkSNtSZU/mke6pY8pgD9S8pCVI/1RudPdPD0On74wwSEdaFsqq5uw+LdDksubjAbcND1WwYjOTY0kYP4P+yRvfpSSXqhYHGooLK1DfnGtpLIp6UUKR0Oknp38fXVpukgAUvcXK1aXlsP+rRb9fEDWN9gp43shNKiDghG1T+kkoKHRgswj0qZApHaujlRQXCepnDPcG1GriupGXY/GkSz6GAHYnVmiSD1XTIzSvPMHgE8Xyxv+v32Gcs/+26M1CQgLVib52HugVFK5QTEhirSvFpPRgNioQEllB8Xq+96ITtW3ZwA6eOt2uxiSSRcJQJdAH0Xq2fDncaRlKjeaIEXq/iLskjGi0aNrJ0w+L0LBiOzz7cqDKCiR9u32dCES39ek+FBF2ldLbFQAvL2MksomDdD3vRGdSu+fRZJHFwlAYv8uitRTXtWIC2/6Can7tZu3knvs7y1Xxmk2gvH2gjQ8MHeTYvVJ/bYbFeGHEQpsf6yW66bESC47JqkbwsM6KhgNkXqum9JP6xBIPfqYAhg5KEyxBXtaJgF1DWYs+vmA5PIGg4BbroxTMCLbKd35x/QOQJC/9E2Mvpw3UfK3bDWNHNQVD9+SKLl8J19PfPbiBAUjIlLHzdPjHHbGB2lDFwlAv14BuOe6BMXq0yoJ+P7XQ6iScZjLpNERiOjaScGIbKN05y8IwAfPjJNVR79eAXjvqQtgMuriVxRAy/TMglcmwmiUl61OPi8Sj98xVKGoiJSXEBOMt+aM0ToMUpc+RgAAYO5DoxAV4adYfVokAXKf/Vfy4B9bKd35A8D/XROP8SPkb2J024z+2P791YiLlrbgTkk3TIvF3uXXoU+kvyL1zX1wFFZ+PBVdQ3wVqY9ICUajgDl3DMWOxdfAr5On1uGQynR1GFD6oVKMv3EJihU87jWgsxfWfnkFEuOUWWdwNvsPl6H/ZV9LLh8a1AG5G2+Bh8lxOZkanf/4EeH4+aOp8FFw5XBDowXrtudiV0Yx0jKKFf39OBuDQUDvHn5IjAvB8IQwDFFoncrpKqoasf7P4yfvTc4IEpEUHh4GxPQKxOC4EJw3pBv69lQmySXo/TCgnbp6vmNAnyCsWzBd0SSgdSRA7SRA7r7/N14R6xKd/wqFO3+g5VTES8b2xCVjeyparx74d/bCFROjcMXEKK1DISL3op8pgFatSYDUR8jaovZ0QGOTBV8tzZBVx20z1Dv453RqfvPnM8NERM5BdwkA4HxJwE9rslBa0SC5/Nik7orNLbdHjc5/wsgeig/7ExGRqvQ3AtDKmZIA+cf+Ombxn1qd/4r/TmHnT0TkZHSbAADOkQRk51Zi3fZcyeUDOnvhyknRisRyLuz8iYjoVLpOAICWJGD9V9PRJUifScBni/fJOt519tQY1Te8YedPRESn0e8UwKn6R7eMBOgtCTBbrPjyJ30v/mPnT0REmTF5bQAAIABJREFUbXGKBADQZxKwcsNRWce7DhsYioH9giWXb48anf+Fo9j5ExG5AOcYAWiltyRAz8f+qtX5L/+QnT8RkStwqgQA0E8SkFdYg9/+OCa5zY4dPDDz0r6Sy58LO38iImqP0yUAQEsSsH7BlZomAZ//uB8Wi/TVfzMv7YuOHTwklz8bdv5ERGQD55oCOFVcdKBqScCu/cXnvM5qFfH5j/tltXXbVcov/lOj8584KoKdPxGRC3LaBAD4OwkIDeqgWJ3lVY2YdvfPqK49+6Esa7fl4mheleQ24vsGYXhCmOTybdmw4zgenKdC588Ff0RErsh5RwBaxUUHYt2C6YomATn51Xjk1c1n/Xu9HftbW9+MW5/8XdZ+BKdr7fzV3qOAiIi04fQJAKBOEvDxd+lIyzhzKqCyugnLfs+WXK+3lxGzp8bICe0Mr89PRXZupWL1sfMnInJ9LpEAAH9NB3ylbBKwJTX/jJ/tzixGs9kquc4rJ0UjoLOXnLDOsDn1hGJ1TRrNzp+IyA04/xTAqWKjlE0C0jLPHAHYc7BEVp1q7PyXliEvplaTRkdg2Yfs/ImI3IHLre5qTQLG3bAEhaV1suoqLqs/42c5J6ol19cn0h8XDAuXE9IZms1WVFQ1yq7HGTp/q1VEZnY5isrkva96ZBAE9O0VgLBg5UawTtXUbEH6oVJU1Zx9catURoMB/XoFKPpETqvGppa4z7Uo19WZjAbERQci0M9b61DIxbhcAgAolwTE9w0642cJMSGS61Pj27+HyYCY3gFIP1QquY7J50Vi6QeX6bbz/+6Xg3h/4R7s2l+M2vpmrcNRVffQjhid2BVzHxyF3j38ZNVltYp493+7sXBFJvYcKEVTs0WhKNvWo2snnJfYFXMfGo3Ibp0k12O2WPHa/FQs/u0Q0g+WyppycyW9e/hh3PBwvPzAKFWSLXI7rjUFcKrWJEDON6pBsWd29iMHSXt8z8NkwI1XxEqO5VzaitNWeu78i8vqMePfv2Dmg79h884TLt/5Ay07TH7/6yEMnLoIHyzcI7meA0fKcd61P+CBuZuQkl6keucPALn51fhm5UHET1ko+UmZfYdLMeLq7/HEm1uxa7+89TauJju3EvN/2If+l32Nxb8d0joccgEumwAArUnAlZKSgJ7dO2PyeZFn/Lx3Dz+MHNTV7vruuGaAogsUT3X7jP4QBPvL6bnzt1pFTLv7Z/yw6rDWoWiitr4Z97ywAR8usj8JKK9qxLgblmBb2pmLWB2hurYJdzyzzu6TMovL6jHuhiXYuU/+Md2urKS8Hlff/ytWbjiqdSjk3Fx3BKBVTO8Au5MAQQDmv3ThWbfq/fq1Sejk62lzfUH+3vjPfSNsvt5eY5K6497ZCXaV0XPnDwBvfrkLW3dp04HpySOvbsbhnAq7ytz7wgZZp1Qq5f6XN+J4QY3N1//rufVtrruhtt3+9O8oq2zQOgxyYi6fAAB/JwF9e/q3e60gAM/ePRzjR5x9sV7vHn749IXxNnWegX7eWPnxVNUX8Mx9aDRGJ9o2MjHjoj667vxr6prx9DvbtA5DF+oazJjzxlabr9+5rwgLVxxQMSLbVVY34fkP/rTp2i2p+fhxtXuO9kiVX1yLuR+naB0GOTG3SACAliQgbem1eOCmwTAY2h4v7xXeGesWTMez9wxvt75rLumLtKXX4rwh3c56zQXDwvHHwqsU3/a3LR28Tdj09VV47dHzztqxB/l7Y9EbF+H7ty/WbecPALv2F6OhUf05a2dhz0iI3kZNbI1Hb3E7C75uJIPokk8BnI2PtwlvPn4+bp/RH3/sPIGd6UUoLK3DoNgQJMaFYMLIHvD1sf2Evn69ArDp66uwdlsOUtKLkLqvCEajAbG9A3DxmJ4YNjBUxbs5k8Eg4OFbEnH1xX2wcUcedu4rQlZOJeKiAzGkfxeMHxGO4AD9rx5OSS/UOgRdOVFUi/ziWnQN8W332pR0fc2fZ2aXo7a+ud3PFd9zadIyimGxiDAaJSwCIrfnVglAq9ioQMRGBQJXy69LEFq2zp04KkJ+ZQqJ6NoJ118eg+svV3bLYUcp4jzwGYpK621KAIpk7n2hNKtVREl5Q7sJQFEp33Mp6hrMqK5tgr/Cu4uSW3D9RYDkfAbLeKzRFXl5GhEXHWjTtXp77QL9vG3aE2BwnL7idha9wjuz8yfJmACQ7gwd0EXrEHRlYL9geJhs+6gOjXfstFN7hvS37b3key7N0AH6er/JuTABIN3p3cMP5w89++JKd3OTHRtIXTiyB7qHdlQxGvvYuvnVRedHqrZPhiuz53eD6DScAiB9+uLliejg7ZZLVP7hwlE98K9ZA22+vnNHT3z6wgQVI7Ld1PG9cd2UfjZdG+jnjf8+N07liFzLrVf1xyVje2odBjkxJgCkS1ERfvjo+fHw9NDv44pq6xPpj89futDuXR4vHhOJx+8Yqk5QNoqNCsTH/xlvV5krJkbh/hsHqRSRa0mKD8Vbc87XOgxybhwBIP26/vIYpPw4U9ZZB85IEIC7rxuItGXXokdXaYfqzH1wFFZ/Pk1yeakEAXjgpsFIXTJL0hbcb80Zg+X/ncLpgLPwMBnw/L0jsPXbGXbtRkrUFgGAKLWwmHmfgqEQta3ZbMUfKSewK6MIaRklLrldrMEAREf4Y3BcCEYkhLU8pqqAmrpmbErOw66MYqRlFKO6VvkDlYxGAX0i/469X68A2XVWVDVic+oJ7NpfjN2ZJaipc/2DoM7GZBIQ0ysQg+NCMDqxK3p276x1SGSrxlLg+BLVqr//k2a8s8wstfgGJgBERERq0HcCsJ5TAERERG6ICQAREZH74SJAIiIid8QEgIiIyA0xASAiInI/nAIgIiJyR0wAiIiI3A9HAIiIiNwREwAiIiI3xASAiIjI/XAKgIiIyB0xASAiInI/HAEgIiJyR0wAiIiI3BATACIiIvfDKQAiIiJ3xASAiIjI/XAEgIiIyB2ZtA6AiFxTXYMZBcW1yC+uQ01dE0RR64iolX9nLyT0C4aPt/N0AY1NFuw5UILSigatQ7GJj7cJYZ2bENYows9X0DqcNjnPuw/AYhGxP6sMeYU1WoeiCC9PI+L7BiE4wEfVdlztddMrg0FAn0h/9ArvrHUomkk/VIofVh3GktWHsfdgqdbh0DkYjQL6RwfhhmkxeODGwTAY9NlJfbZ4H/77zV7sPViCZrNV63AkiQgRMG2kEVeMMmLsAAMEfbzUogBAcl4uZt6nYCxn98vGo3j542Ts2l+MugazQ9p0pJ7dO+PiMZGY++Bo+HXyVKxeV3/d9CrI3xsjB3XFvIdHoX90kNbhOMShYxV4/PUtWLImS+tQSIKRg7piwSsT0SfSX+tQTsorrMGtT/6OVZuPaR2Koob2MeD1Wz0wNl7+DPz9nzTjnWWS/23/VdcJQFVNE+5/eRO+WLJf1Xb0ontoR8x/aQImnxcpqx53e930ysvTiOfuGY5Hbxui229Xcoki8OJ/d+CFD3c47bczahHZrRP2rrgOnXyV+xIiVVOzBUlXfYc9B0q0DkU1s8Ya8el9nvD1ll6HzATgF10vArzx8TVu1YnlFdbgsv9bgZT0Iln1uNvrpleNTRbMeXMrXv88VetQVFFb34yr7luJZ97dzs7fBRw7UY2HX9msdRgAgGff+9OlO38A+GajBaMfbsTRQu0Wx+g2AViwNANL17rfcKLZYsUNj61GQ6NFUnl3fd307Jl3tyMjq0zrMBRltlgx5c4VHPJ3MZ98n44DR8o1jSG/uBavzd+paQyOsvuIFec/2oiCcm2SAF0mAKIIPDTvD63D0ExGVhk+XZxudzl3f930qrHJgiff3qZ1GIq694WNWP/nca3DIBVs312gafs79hTCYnGfR0aOl4i44sUmNDY7vGl97gOQnVvpNI96qGXHnkK7yxw8Wu72r5tebduVr3UIivlh1WF89O1ercMgleyUOQUpu/192ravhe2ZVjz5leMzAF0+Brgro1jrEDS3a7/9r4E7fnCcRUFJHU4U1aJbF1+tQ5Gl2WzFnDe2ah0GqeibrAikpNyvWfvZB58GsEOz9rXy/goz7p1iQmQXhy0YFnWZAPBbLFBaUW93mZJyvm56VlJe7/QJwOc/7sfhnAqtwyAVlXU9Hzuq5D2JJIcYOhbAQs3a10pjM/DcwmZ88YDjnsLQ5RRAQkyw1iFoLiEmxO4yiXH2lyHH8PYyIjYqUOswZFvwU4bWIZDaIoZq237kEG3b19D3f1hQ3+S49nSZAAzsFwyj0TWfm7aVlM58cFyIyz5v7uwSYkLgYdLlx81m+cW12L7bddYyUBvCYiD0HqFpCEK3eAiRSZrGoJW6RmB1qrQnwCTQ5yLADt4mXHNxX63D0IynhxHXTulndzlfHw/MvMR9Xzc9u+XKOK1DkG3V5hzu5+/KDEYYbvgcMHlpH8eNXwIe6m6Rrle/pjhuTw1dJgAA8P4zFzj9fKlU/7lvBAb0kbaFrDu/bno1cVQE7rh6gNZhyHY0r0rrEEgtBiMMV7wCoedwrSNpERYDw7X/1T4Z0YADNwbS5wgAAAR09sLC1ycjoLN7/QJcOSkaj9yaKLm8u75uetWvVwDmvzRB6zAUkV9Uq3UIpIYufWF4aBOECQ9oHck/CMOvh2FOMoQeg7UOxaHyHbgpkC6fAmh1wbBwpP88G7c+uRa//eFaB0KcrnNHT7zz5FjcdEWs7Lrc6XXTK0EA7p2dgHkPjXaqI1fPpaTc/idTWgm9RwIduUhVN3z8IPQYBIQPhtBrOOAhY0N6FQld+0N4dBvEozuA3F0Qc3cBtRrvqmkRITa1M09vNQNZqyVVX1LJBOCkbl188eunl2PnviKk7itC6v5i5Be7xjcRL08j+kcHIbF/CEYkhCl6LLArv256ZTAIiOrhh8FxIRg2MBTREfo5WU0JFqv0f5iES56GEDdZwWjIbRg9IESNBqJGQw9LnMWaZoil7Txy3VgJvC3tUUqL45YA6HMfgLYM6d8FQ/p30ToMp8PXjYiI2qLbNQBERESkGv0uAiQiIiL1MAEgIiJyQ0wAiIiI3A+nAIiIiNwREwAiIiL3wxEAIiIid8QEgIiIyA05zUZAROTG6ish7lkBMScFOLYTYm2p1hH9TRAgBEYAEUMh9BwGIf5SQFDmu5V49E/g4EaIx1KAgkyIVrPtYfmFtcQUmQRh4BTFtvsVT6QDmWtbYspLh2hx4AH2KhI8fYEeCS2vV/+LgEBpO/k5EefZCZCI3JO4fxWsX98OVORpHcpZiQWZwP7VEAEIUaNhuOELICRKeoUN1bD++BDELfOlx1R4oCV5AICucTDc+CWEiCHSYzI3wvrzcxDXvgFYHXZmvcOIAJCbCnHrF4BnBximzYUw9u6Wgz1cFKcAiEi3xJX/gfX9S3Td+Z9OzNoCy0uDIR5YJ62CqoKW8jI6/zPk74f11VEQdyyUVr6hGtZXRkBc/apLdv5naKqD9ft/w/rfqYDouM35HYyLAIlIn8SsLbD+8oLWYUjTVAvrgpuA+gq7i1q/vh0oPaJ8TFYzrN/eDZTl2F90ySMQ8/YoH5POiem/QFz/rtZhqIYJABHpj7kJ1v/d6tzfviryYF38gF1FxO0LIKb/olJAaPkmv/AOu4qIB9ZD3PypSgHpn3XZU0BJttZhqIIJABHpjnh8F1B0SOswZBNTf7QriRFTvlMxmr/ayFxr18iEmLpYxWicQHM9xL0/ax2FGjgFQEQ6dGyn1hEoo6kWYkGGzZeLOQ64b1GEmJNq+/WOiEnnxGMpWoegCqd5CiD9UCmS9xYiJb0IeYU1itfv5WlEfN9gDB3QBcMTwhDQ2UuxupvNVuzcV4SU9EKk7itGWWWDYnU7o5BAHwzp3wVJ8aEYHBsCg0HZVbaFpXXYnlaAlPRCZGSVw2yxbxjZx9uEhH7BGDogFMMTQtHJ11N2TEfzqvDn7gIk7y1CVm4lRFGUXefZGA0C+vYKaPldHhiG8LCOqrWlFpeab87bC3Tt3/51lflATYn68QBA3h6g3/j2rxNFiHl71Y9H71z0NdB9AlBQUof/e2Ydlq9Tfw7m+19bhhz9OnnirTljcPP0ONl1pmUU48bH12DPAQd9sJ3EZ4v3AQBGDe6Kz1++EP16Bciu02IR8er8nXj+/T/R2CRvpfK3Kw8CALoE+eDDZ8fhyknRkuqpazBjzhtb8N7Xu6Fin39WRqOAR24dgufuGQ4vT6PjA5BICOgBDV4udQSE23Zdp5CWZ/WbHfAFIaCHbdcJQkv8xVnqxqN3tr6HzkXfUwAbdhxH/0u/dkjnf6rK6ibc8sRaXH7Xz7BYpP8z9OGiPRg24zt2/uewdVc+Bk1bhP8ty5RVT3lVI0Zc8x2eeHOr7M7/VEWl9bjqvl9w/aOr7e7As3MrkTB1Ed79nzadP9CSFM37JAVDpn+L/OJabYKQInKo1hEoQzBA6DHYtmsNJgjdE9SN5y/27Acga+8AV+Eqv4+n0W0CUFHViNmPrNZ0uHz5umy8Ol/a/NfuzBLc//ImNJudeBWzgzQ0WnDns+uQlVMpuY77X96ElPQiBaP6p6+XZ+Kjb20fBrRaRdw0Zw0O59j/GJga9h0uxZ3Prtc6DJsJkUMV27lOS0LEEMDT1/YCfc5XL5hWAT2AoJ42Xy70GaNeLE5CiHbJ10C/IwD/fnmTKnP99nr+/T+RkVVmVxmzxYqbn1jDzt8OdQ1m3PLkWknflH/ZeBRfLbV9oZVUj762GcdOVNt07TtfpeGPlBMqR2Sf5euysejnA1qHYRvfIBim/EfrKOQxmCDMfM++Ihc9YfvwvESGmR/Ydb1w3u1uPQogDJ4Ood84rcNQhS4TgPoGMxaukDckrJTGJgu+snN4emd6EXbtL1YpIte1KTkPB4+W213u07/WE6itpq755NqA9nz2g2Nisten3+szrrYIEx6A0HuU1mFIJlz0OITIJPsK+fjBcMPnqm0/K4y4oeWsAnsYTDDc+KVLjMjYrWMIDLM+1DoK1egyAdh7sFTW3LvSUtIL7bxevaFoVyfltbP3/ZHDlrbqGsw4cMT+RMYRUvcXabYewW6CAYa7f4Yw6hatI7GPZwcYZrwNw6XPSSou9BsPw72rgMAI5WIymCBc/CQM134srXzXOBge/gNCt3jlYtI5oe9YGB/dCnQM0ToUtehzCiAtU1/fnlP32RdP6n4mAFLZ+9oVl9XjeIHjpopSbRjZSddZAnuqqpom3axLsImPHwyzP4Xh3t8gDLpC2U5RSYIBQtf+EEbeBOOTuyCMu1fWt3ghZgKMT+2BMPkxCL1GSPv2LQhASDSEoTNheHRry5SKSfojrUKPRBge3wHD5S+1zIl7Od/jpe3yDYIQNwmGaz+C4d+/A8G9tY5IVbp8DFDJZ/CVEOBnXzwBnd1wqEwh9r52nXw9YTIa7H7WXypbfjft/X1xNL19vmwhxE6EEDux5Q81xUCNvo4DRkC4fYv9bOHdCYbLX275b6sZKD0KWGw/Dhh+YYCPv7IxmTwhTH4cwuTHW3Y4LD0KmF3jOGB4+aq+/kJn9Hkc8OA4fQ25JMWH2nl9F5UicX32vnbeXkYM6BuEtAzHjBrZ8rsQHeGPTr6eqK7V3z+MPbt3RnCAj9ZhyNMxxJWHZdtmMAEh0vaiUI1gcPlvyK5Ol1MAUT38EeSvn2/RIwd1tev64QlhrnyEtGpMRgOGDrAv2QKAkYPCVIhGeluCoN8k0JGvFRHpmy4TAEEAXn/MAc/D2qBPpD9un2HDNp6n6Nm9M+6+1jEberiSx+8YIinxe/LOJPh1kr9db3sGx4Xg2in9bLp23kOjYTLq6+Pl423C8/eN0DoMItIHfS4CBICbrojFZRf00jQGg0HA5y9fCB9v+2dK5j08Cr3CO6sQlWsa0CcIT981TFLZ7qEd8dYcdTfq8DAZ8MXLE23u1JPiQ/HY7fp6dvql+0eiT6TCc8JE5LR0mwAAwFevTsKsS/tq0nZwgA++e+tinDekm6Tyvj4e+O2zaRiewCHX9owfEY6fP54KTw/pe9XfPD0Obz8xBh0kJGvt6R7aEcs+nIKEmGC7yj17z3DMuWMojEZt54M8PYx48f6R+PcNgzSNg4h0Rb8jAEDLauVFb1yEH9+7FEP6d4GHSf1wQ4M64IZpsdj382xcNVneopu+Pf2xZdEMvPLwaPTrFcB1AacwGgUM6BOE/z43Dmu/mI7Ibp1k1/nvGwZhz/LrcPmE3oqsdO8e2hH/mhWPfT/PxsVjIu0u72Ey4OUHR2Hbt1dj3PBw+Pp4yI7JHp18PTH5vEik/DgTT96ZpPipi0Tk3HT5FMDppk+MwvSJUWhssmDPgRKVjgM2Ib5vkOJHpxqNAh69bQgevW0IqmubsGs/jwMOCeyAQbHBqnSIURF+WPrBZQCArJxKZGSXwWznlsw+3iYkxIQgLLiDIjElxYdi3YLpsFhEZGSXIStH5eOAjQb07emPvj2ZdBLR2TlFAtDKy9OIpPhQux/L04tOvp4Yk9Rd6zDcRlSEH6Ii/LQO46TWUY8BfYK0DoWISN9TAERERKQOpxoBICLtCDLmE8SMNUBVgYLREGlDbLAANc3nvshcJ7l+B07b6XMnQCLSH7+O0vdaEH9/C/o8HYFIX/wU3lH6XDgFQEQ2CQtRZlEkEZ1dWIDjhgCYABCRTbqGOPCrCZGb6uq4BICLAInINucPlbYpFhHZ7vwBjuuWmQAQkU0S47oosmETEbVNEIBpI6XviGonjgAQke1mXNRH6xCIXNboOAO6BXINABHp0MO3JqJjB8duaUzkLp671rGfLSYARGSz0KAOePDmwVqHQeRyJiUaMGGQQ7tkTgEQkX0eu30oBseFaB0GkcsI7CTgw7uk77MhFRMAIrJLB28Tln1wGUKDuC8AkVwmI7B4jieiujr85C6OABCR/Xp07YRfPp3KvQGIZPDyAP73sCfGJ2jTFTMBICJJEuO6IPmHazCkfxetQyFyOmEBAja+4oWZYxz22N8ZnOosgJq6ZuzaX4y8whqtQ2mTwSAgOtIPA/oEwdNDuTe1sLQOqfuKUVndqFidWvLv7IUh/bsgJNBHlfqLy+qxc18RKqpc4/WSw2gU0LdnAPr3CYTJqHy+3z20IzYvmoF3/5eGeZ+koJyvOdE5eZiAOy4y4ZlZJnTxd/iw/6mc4zCgb1YexEv/TUZGdhmsVv0fKeLpYcSQ/l3w6iOjcd4QabunNTZZ8Ox727FwxQEcL9BnwiNXZLdOuHl6HJ64MwkeJnmdU7PZipc/SsYXS/bj2IlqhSJ0HT7eJoxICMObj5+PQbHKLuDz9jLi0duG4ParB+CDhXvww6pD2J1ZomgbRM4usouAaSONuHeKSYv5/jYJgPRDusTM+xQM5Uwl5fW445l1+GlNlqrtqMVgEHD/jYMw98FRdo0I7NxXhOsfXY2MrDIVo9OPgf2C8dUrk5AQEyyp/O7MEtzw2GrsOcBOpz0mowFz/m8onr17OIxG9f4Rys6txLa0AuQV1iCvsAZVNU0Q2/iXZsHSDEn1CwYDoqfNlhkluaoKK1BstaPAllVAaaGkti4Z2xMhAWeOZvp4m9A9yIDuHhkY1FvA4CjlR+Du/6QZ7ywzSy0+X9cJwEW3LcOqzcdUbcMRHr9jKOY+OMqma0vK6xF36dcoLqtXOSp96Rrii30rZyOgs5dd5cqrGtH/0q+RX1yrUmSuad5Do/HY7UO0DgNCzLuSyhk9vXDzfr7n1Lb0ZmB7kx0Fbh0PpGyS1Na2767GiISwtv+ysRQ4vkRSvbaQmwDodhHgJ9+nu0TnDwCvzd+JlPQim66954WNbtf5A0B+cS0eeNn+D+ADL29i5y/Bs+9tR2Z2udZhEJGGdJkAiCLw+OtbtA5DMRaLiCff2trudbv2F+O7Xw46ICJ9WrA0w65pj4ysMslDyO6udY0JEbktfe4DcDinwuVWE/+5p6DNOdBTbd9d4JhgdMye14Cvlzzb0/j6EbkzXSYAqftsGy53JpXVTTicU3HOa1LSpS1CcSW2TpXYey2dKSe/2i2nm4gIgF5HAKpq7Fm94Twqq899X+39vTuwZ68DV9kXQUuVNXwNidyVLhMApZ9T1gMPkwHxfYPOec2QAdxRzZ5d5bgDnTx+nTwR1cNf6zCISCO6TADi+warsmuZluL7BsPL89x7AQxlAoChA0JVuZbONKR/Fwj62I+EiBxPn1MA3l5G3DQ9VuswFPWvWfHtXjNmaHfERQc6IBp9GhQbghGDzvI8bRtGDApzydEiR/nXrIFah0BEGtJlAgAAbz5+Pnp276x1GIqYfF4kbpvRv93rvDyN+HLuRFV3aNMrD5MBC+ZNtGtLYCllqMXVF/fBVZOjtQ6DiLSjzxEAAOjk64lv37zI6Y8bHdgvGPNfmmDz9UnxoXjnibFu1al5eRrx4bPjMLCf/VsBD+wXjA+fHdfu9Ar9bXhCGD545gKtwyAijem6lxmeEIb0n6/DzEv7ah2K3YxGAY/fMRTJP1yD7qEd7Sp793UDsWPxNe0uGnQFQwd0QeqSWTaNkJzNbTP6I3XJLK6haIenhxFzHxyFLYtmILiNvcuJyL3o/jTAQD9vfPPGRXjh3yOQvLcIKemFyCvU59avBgGIjvTHkP5dMGxgqKzRi0GxIUj9aRZ2Z5YgJb0IqfuKUOkij0f6d/LE0AGhGDqgC+L7Bisy5REXHYjt312DvQdbXq+U9EJU8LFKGA0C+vb0R1J8KIYNDGXHT0StnOM4YACIjvBHdIQ/ZjnhaIBUJqMBQ/p34eNuNjIaBQyKDcGg2BBZIwpERO5A11MAREREpArnGQEgIueRlVOJ7bsLkFdYg7zCGlTVNLV7FoY9rOZmbHz0FuUqJJdSYQVgtaPAkQOS23rhwx0IaWNqzcfbhO5BBnT3sCCht4DEKP1932YCQESKKCmvxztfpWHJmizsP2z7qY7kyoefAAAcM0lEQVRSiFYrDi35StU2iGzxy8ajNl3XPUjAlOFG/PtyE2LC9fGoNxMAIpKlodGCtxfswtxPUlz2HA8iufJKRXz0ixmfrTLjtskmPH+dCV38NU0E9LsPABHpX25+NUbPWow5b25l509kA7MF+OgXMwbe3YitGfbMUyiPCQARSfLn7gIMvepbpO7nscxE9iqsEDHu8UZ89btFqxA4AkBE9jtyvAqX3bkCRaX1WodC5LSazMAtbzdhVao2SQATACKyS01dM6b+awVKytn5E8llsQLXzGvGgeMKPiZjIyYARGSXuR+nIP1QqdZhELmMyloRd33o8DU0nAIgItvlF9fi7QW7tA6DyOWs2211+FQAEwAistlr81NR12DWOgwil/T8Qod+tjgCQES2+3HVYa1DIHJZ2w9YkVfquLUATACIyCY79xUhJ79a6zCIXJYoAku3OW4agAkAEdlk884TWodA5PI273PY5kCcAiAi2+QX12odApHLyy/nFAAR6UxBcZ3WIRC5vALHJQA8DpiIbFMpY69/YcIDELrHKxgNkTbEBgvEmuZzX2SuA1Y/LKn+SgcOtDEBICKbGGQcXCbEToQQN1m5YIi0UtMMsbTh3Nc0VkpOAOR8zuxuy3FNEZEzEwR9nGFO5Moc+DHjIkAiso3BkV9NiNyUwYG9MhMAIrIJEwAi9XEKgIh0hzMAROrjFAAR6Y6BGQCR6jgCQES6wykAIvU5cA0ARwCIyDYcACBSnyM/ZkwAiMgmnAIgUp8jnwLgRkBEZBPdTAFUFwG1ZVpH8TdBAPy7A14d1WvD0gyUHgWsdpwU1zkU6BCgWkgQrS0xmaXvEKkrnh2AwAito3DkGgBuBUxEttFyAEDcuxLi5o8h5uwCKnV4KqFgAEKiIUQOgeHip4CwGPl11lfAuvI/wOHNEE+kA+ZG++sI6gmhx2AIEx+G0GuE/JiaG2BdNQ/IXAvx+G6gycXOh/Dxh9BjEIRBV0AYe1fL++pgjvycMQEgIptoMgJQXwnr4gcgbl/g+LbtIVqBooMQiw7CkvYTDJe/DGHcfZL/NRcz1sL6v1uBiuPy4io9CrH0KMQ9yyFMfASGS58FTJ7SYjq6A9avbgYKMuXFpGf1FRAPboB4cAOEnYthuOFzICTKoSE4cKqNiwCJyDYO3wpYtML6wWX67/xP19wA6w8PwrryOUnFxQPrYH3/Ivmd/6msFoir5sG68HZpMeXtgfXNsa7d+Z9GzNoMy2ujgZpih7bryI8ZEwAisomjBwDE39+CmL3VsY0qSPxtHsRjyfYVqq+E9atbAFGdI2HFP7+GmLbUvkKWZogLbnaduX571BTD+s1dDm2S+wAQke44dAqgthTWFc84rj01WM0Qv73XviK/vQyU56oU0F9tfHuXXQmGuPlTiMfTVIxI38RdSyAeWOew9rgPABHpjiOnAMSjyUBzO0euOgExZyfQZMcB71lb1AumVVUhUHzI5svFw5tUDMY5iIcc9xpwHwAi0h2H7gNwLMVxbalJtELMSbX92uN71I2ntalc27/Ri8d2qhiJk8hx3O8jRwCISHccuUGJqOQCOK1V5Nl2XV2FfaMFctj6KKUo6vOxS0crt/E9VADXABCR7jhyCkAIT3BYW2oTug+07ULfQMCvm7rBtOo6wLbrBAFCt3h1Y3EG4Ta+hwrgUwBEpDsOXQQYMcRxbanJ09euTYGEHoNUDEZiO5Eu8l7IIEQMdVhbjtwJkAkAEdnEkWsAhPBBQJc+DmtPLULilXbtJickXqViNH+10Wcs0DHY9usTZ7j3SVAePhDiL3VYc46camMCQEQ2cWgfYPKE4fr5mmzFqhj/7jDMeMuuIsKIGyEMuESlgAB4dYThhvl2FRH6XgDh/DtVCkj/DJe/CAT3dlh7jnzYxok/XUTkSI7eCliIGg3DJU87tE3FePrCcOOXgI+/3UUNsz8FgnopH5PRA4ZZH0qq2zD9VQiuMi1jB2HAJS1bOjsQFwESke5ocRaAcOkzMNy7CgiMdHjbUgl9xsL49G4I/cZLq6BzGIxPpUEYc6diXweF7gNheGw7hGHXSavAswMMj2yBcMnTgMENjpDx6gjDzA9g+Ndyh49C8TAgItIdrWaBhdgLYXx6D8R9v0E8ltLyTLaejgOGAARGQIgcCvQcBiHmQvn/iv/VAYnn3Q4c2tRy3wWZgNVsex2dw4DIoRAikyD0vwgwesiLyegBw2XPAcOuhZi5DmJOCpCXDlhcZItgT18gPAFCz6SW99C/uyZh8DhgItIdTU4DbOXVEULiVQ5ZJKcnQvggIHyQZslXm7r0hdClr75iciFcBEhEuuPOC8GJHMWBHzMuAiQi22g6AkDkJjgCQES649CzAIjclCM/Z0wAiMgmjtwKmMhdcR8AItIdTgEQqY/7ABCR7jhybpLIXfE4YCLSHU4BEKnPkZ8yJgBEZBMuAiRSH58CICLd4RoAIvVxJ0Ai0h05AwDi8qchrntbuWCItGIWgWbrua+xZ8vm0/AsACLSHTlTAGLOTgUjIXJdjhwB4BQAEdmESwCI1OfIz5kAQJRaOLJbJwVDISI9q6ppQnlVo9ZhELm0Dl5AiJ9tWUBZtYjqeslN/UdWAkBERERO6XlOARAREbkhJgBERETuh4sAiYiI3BETACIiIjfEBICIiMj9cAqAiIjIHTEBICIicj8cASAiInJHTACIiIjcEBMAIiIi98PjgInI+RhMHpj0yVKtwyCdOmoGMu05kfetx4BD6arFo1dMAIjI6QgGA8LHTNY6DNKpimYATXYU+PwVtULRMy4CJCIickeyRgAeeughpeIgIjf0xhtvaB0CkSyzZs1Ct27d2vy7xsZG5Obmqtb23r17kZ2dLbm8rATA399fTnEiIiKn1qlTp7P2hQ0NDSgrK1OtbQ8PDznFOQVARETkjpgAEBERuR+OABAREbkjJgBERERuiAkAERGR++EUABERkTtiAkBEROR+OAJARETkjpgAEBERuSEmAERERO6HUwBERETuiMcBE5GiCgsLkZmZidzcXFRVVaGqqgqNjY2KtmFpasQXcb6K1kmuQ7S3QLM9Zwf/0/z58yEIwhk/N5lM6NSpE0wmE/z9/dG9e3eEhIS0ea1GRCYARCSbKIrYvXs31q9fr+rhJ6eyNCmbVBBJYbFY2vy52WxGQ0MDACA/Px8ZGRnw8vJCv379EBMTA5NJ++5X+wiIyKnl5eVh2bJlyM/P1zoUIl1rbGzEnj17cOjQISQmJiIyMlLTeJgAEJFkaWlpWLZsGcxms9ahEDmN+vp6bNmyBWVlZRg0aJBW0wKcAiAiaTZu3Ii1a9dqHQaR08rIyEB1dTXOP/98TZIAPgVARHZLT0/H77//rnUYRE7v+PHj2LVrlxZN8zFAIrJPUVERlixZAlG0e601EbUhMzMTx44dc3i7TACIyC6rVq1Cc3Oz1mEQuZRdu3ad9YkCtTABICKbHT16FAcPHtQ6DCKXU1dXhwMHDjiySU4BEJHttm3bpnUIRC7L0ck1EwAisklzczMOHTqkdRhELquurg6lpaUOa48JABHZJCsri3P/RCo7fvy4o5riFAAR2aaoqEjrEIhcXmVlpcPaYgJARDapqanROgQil1dfX++opjgCQES2YQJApL7WA4QcwYT/b+/eo6us7jSOf/dJAgRIgMqthMugKBcZgShSixSno4CDI7NcozKzhjrVasc1LjsXbTtr7KjTWjt2tdqlzngZrVMVpg4WKWoBtV2FAccgyh3NMiA5XBIuhiTkhJDk/OaPAxEUyDnv+57znsvzWStLIWfv/SR68v6y33fvDXE8zgSYWTYdbSgiaeRnv//I7Utx464MMI1IOCzWTvxgNxfptiZ47AJP/aeyF4DPzbg6i4EDwBAvrWOxGH366ExuEelGUQmU9Ao7hYh/xUXdH6PXmZmjqltaWvw0/yQC7PXaurm52c/gIiIi4pHPa3B9BPB8iLfuCYqIiGSemfm9Bu/3VQDU1dX5GVxEREQ8aGlpIR6P++mi3tctgO3bt/sZXERERDxoamry0zwOHPQ1AxCNRnUbQEREJMN27Njhp3mtmXVGgC1eezAztm7d6ieEiIiIpKC5uZloNOqni99CYv3/WuCg115WrVql/cFFREQyZNu2bX73AHgDIGJmncAyr700NTXpiFAREZEMiMVi7Ny5008XxvEZgBPbGbwCfN1rb6tXr6ayspK+ffv6CSUicmZHm7HdGyC6AYt9EnaaLg4HA0bAiMm4YRMTmx4FxQwO1mC170P9hyR+X0syV/nQRKaKi6CkNLhMAJ/UYtH3Yd82rPNYsH2HxPXoDRUX4UZMgbLBYcc5o40bN/p9+n+Tme2HTwuAN4AY0NtLb0ePHmXhwoXcfPPNFBd3t0WSiEgKYg3EX7oTW7cocUHMMqckKulFZO69uKvuAufvqBXb/BrxhX8Djd4WanXlihTh/uhOItf+wPdujLZjLfFf3AL7q331k41O/u/ozv0yka89A4O9beebLlu2bPH72z/AyhP/EgEws1ZghZ8eo9EoS5cu9ZlLRORTVv17Or9/EVa1MCsv/p/TfpT4K/9E/CczPV+4iXcQf+FW4v9xrfc+TumvE3vrYTofvATqvC/d7vq68vDi/1m2Yy2dD1Riq58MO0qXnTt3smnTJr/dxIGuL+rkEvUFvz1v2LCB5cuX+304QUQEmuqJP319MBfBDLMda4k/d5OnosWWP4itfTb4UHXbiT99I3Skvk+9rX0WW/kQmK+p59zS3kr8v+/APloddhLq6+t55513guhqiZnVnPhDVwFgZr8Cqvz2vmbNGl544QXa2jJzGIKI5Kf4otuh5VDYMTyzD3+L/f7x1NpE3yP+mwfSlAhs31bir92fWqOGKPHF/5ieQNnO4sSfvwWOxUKL8NFHH7Fq1Sq/9/1P+PHJf/jsTaq7gxihurqaJ5980u86RREpVPursY25f0sxvuJHKb3e3vgJdKZ3WbW99UhKY8RXPQFHfe06l9sO1GDvv5zxYZubm3nzzTepqqoKaqn9ajM7ZRrhlALAzFbhY0ngyQ4cOMBTTz3FokWLOHjQ8zYDIlKA7ON3w44QjMZ9cHhP0i+3XRn4ujvasD0p3EvetS59WXKEZfB7cGKDvddff539+/cH2fW/ffYvTvfI/neAPwGKghhx27ZtfPDBB4wZM4YJEyYwbtw4+vTpE0TXIpKnrDZPCgDAatfj+ld0/8LWw3CwpvvXBWHXehh5cVIvtdr30hwmB+xan7Gh2tra2LhxY9Dd/o+ZvfbZv/xcAWBm251zzwC3BTVyPB6nurqa6upqnHMMHTqU8vJy+vbtS1lZGSUlAa6bTULv3r0ZNmwYQ4YMoagokDonbTo6Oqirq2Pv3r0cPXo07DhSwA4dyuD9+Eh2vy9T4pL8WnwuG0xJKt/fTObKVrn9/2M9cPvpPnGmRfvfBmYCY4NOYmbs27ePffs8n0EUmOLiYqZMmcKcOXPo0aNH2HFOEYvFePXVV9m6dWtQD3+I5Aw38hLyZS2RG5Xcb9r0Kk+sO6//ML2BAJLNRCK/bVvZ/QvzWZKzJVnqNjM7bfV+2tLOzBqBa4HD6UwVto6ODtatW8djjz3G7t27w47TpaamhkcffZTNmzfr4i8FKemLZrbrXwHlQ5N+eUa+7pJeuC9emPzrR16Sviw5wo3K2e/Bc2b26zN98oxzO2ZWDcwHkt97Mkc1NDTw4osvEouFt9TjhMbGRhYtWqRjlqWwDRqDq/zzsFP4Frn6n1N6vbvqbihO72yku+rulLYrjsy8HUr7pzFRlhsyFjflurBTeLEeuPNsLzjrzR0zW0HidkDeO3LkCMuWBbIAwpclS5ZoDwURIDL/8azek707bsIs3Ixvptam4iIic+9LTyDADZ+UclFCv2FEbngkPYGynYsQWfBM8GcppN9WYLaZNZ/tRd0+3WFmPwV+HlSqbLZly5agl12kpLa2lpqaDD0FLJLt+g4kcttiOOcPwk6SMjf2q0S+9py3tlfdhbviDnAu2EwjphD5xi89HVbkpi0gMvdeiBTQWS+9yogs+E/cuZeFnSRVHwFXnum+/8mSfbzzG8BDviLliD17kl+zm09ji2Qjd950iu7ZiPvK7VDcM+w43evzBSLzHydy50ooH+Ktj0gRkRt+RuRbb8HQcf4z9exLZO69RL79Ngw+33M3bu6/EPnuO7hRU/1nymYugrtwDkX3bMJ96aaw06SqFvhjM6tL5sUulX37nXN/BTwN+DtSKotNmzaNa665JpSxFy9enI71nyKhi9zxOm7CbH+ddLZje7dA7Xo4kkVbBDsHXxiVeIBv4HmB/+ZOUz1Wuz5xkE9nR/Lt+n0RRl2MGzo++KV8sQZs13rYuxk68uM4YHr2geGTcCMroceZ96qxlnbiB7tZkt3WCI+MCjhgt6qA682sNtkGKRUAAM65S4ElwLDUsuWGXj1Lfr584V3/EMbYs/7ix88cO9aRk0+biJxNIAWASBbI0gLgZ8DdZpbSnsEp39Axsyrn3FQSRcClqbbPdkfb2tfMvO6HoSx/PHbswbWACgAREUlGI3Dz8cP8UuZpXsjM9gJfJvFsQO6d1Xl2YW58rU23JU8FPC0uIsuASq8Xf/BYAACYWaeZPQOcD9wDnHW5QY74jZmlcEpG4P4XeDvE8UXSJF/29RMJ3VvAZWZ2rZnt8NOR7ydDzCxmZg8A5wGPA+k9yzJ9DpOY0QiNmcWBrwPa9F9ERE62FviqmV1pZv8XRIeBPRpqZgfM7A5gMPCXwC+BXDlEej9w4/FbG6Eysw+Bm8id752IiKTHBuB7wAQzm25mvwuy88CPeTKzw2a2yMzmA4OA2cC/A9VAa9Dj+WTAS8CFZpY1p12Y2UvARGBF2FlERCSjjgLfAcaY2RQz+4GZbU/HQGnd1snMjgErj38A4JwbQGIJYcVJ/yxLZ47T+ITEPsnrzSwrDzwysygwxzl3DnAJUAn0CzdVVhsGLPDSsLS0lNGjRwccJ/9Eo1Gam/PhUR+RrNZoZhnZeC/j+zqaWQPQQGKvYunG8e0cV6DZgLNyzn0JjwVA7969mTx5csCJ8k9TU5MKAJE8UkAbO4tIaNpaoDUrJ9tEUtPaDt0d2NaWG49wqQAQkaQUFRV5bht/+voAk4jktYw9Kxf4Q4Aikp969crbI0BEsknGToVTASAiSSktzbkz0UVykQoAEcku/fv3DzuCSCHYnKmBVACISFKGDBlCcbEeGxJJs19naiAVACKSlKKiIoYNy8tTwEWyxceZPI9GBYCIJG3cuHFhRxDJZz/N5GAqAEQkaQMHDmT48OFhxxDJRzXAE5kcUAWAiKRk8uTJehZAJFgG/L2ZZfQ0XRUAIpKS8vJypk+fjnMu7Cgi+eJ+M1uW6UFVAIhIyioqKrj44ovDjiGSD54H/jWMgVUAiIgnF1xwATNmzNDtABFvDLgPuMnMLIwAeueKiGcjRoygb9++rFu3joMHD4YdRyRX7AK+ZWZLwwyhGQAR8WXAgAHMmjWLyy+/XLsFipzdXuBuYGzYF3/QDICIBGTkyJGMHDmS5uZmdu/ezaFDh4jFYrS2ttLe3k5Is5yfY2Z0dHR4bd4OxAKMI/mrlcS+/nuAjcAy4N2wpvtPRwWAiASqrKyM8ePHhx3jjHbt2sWaNWu8Nv+Vmc0PMo9IWHQLQEREpACpABARESlAKgBEREQKkAoAERGRAqQCQEREpACpABARESlAKgBEREQKkAoAERGRAqSNgCQtnHPFwLDTfAwA0nGO7GCvDVtaWqiqqgoyi2SxI0eO+Gl+iXPuiaCyfEYbsI/EznF7j3/sMbOmNI0nBc5l0a6EkuOccwOAucA8YA7QN9xEInnhfWAp8IqZbQw7jOQPFQDii3OuBPhrYD7wFTSrJJJOH5MoBh41s5qQs0iOUwEgnjnnrgd+CIwJO4tIgWkHngC+b2YHwg4juUkFgKTMOTcTeAi4NOwsIgWuicR78WEz0ymFkhIVAJK049P9jwLfDDuLiJziY2CemW0KO4jkDhUAkhTn3EBgMTAz7CwiclotwAIzWxJ2EMkN2gdAuuWc+0NgHbr4i2SzPsDLzrnvhR1EcoNmAOSsnHNXAMvQkj6RXPI8cJPpB7ychWYA5Iycc2OAl9HFXyTXLADuCzuEZDfNAMhpOef6AW8D48POIiKe3WhmL4UdQrKTCgD5HOdcEfAqid38RCR3tQIzzGx92EEk++gWgJzO/ejiL5IPSoGlx2f0RE6hAkBO4ZwbBdwVdg4RCUwF8N2wQ0j20S0AOYVz7hckHiASkfzRCpxvZnvCDiLZQwWAdHHOTQLeI8CZoZKSEsaMGcM555xDWVkZpaWlQXUtklPi8TiHDh2ivb39jJ9vbW2ltbWV+vp6mpubg47wrJndEnSnkrtUAEgX59wKYFYQffXr14/Zs2czbtw4SkpKguhSJOd1dHSwc+dOOjo6un3t4cOH2bp1K7t27Qpq+DhwkZltDapDyW0qAATo2u0vkH3EKysrufrqq+nVq1cQ3YnklYaGBurq6pJ+fTQapaqqira2tiCG1yyAdNHZ7XLCn/ntoKysjHnz5jF27Ngg8ojkpf79+9PQ0JD0BX3EiBEMHjyYqqoqotGo3+H/1DkXMbO4344k92kVgJzgqwDo0aMHt956qy7+It1wzjFo0KCU2vTs2ZMZM2YwatQov8MPAqb77UTygwoAwTk3Aqj008fs2bMZMGBAQIlE8ltZWRnFxalPwE6dOjWIW2vz/HYg+UEFgIDPHwjnnnsuU6dODSqLSEEoKytLuU2PHj2YNm2a36F93+6T/KACQACu8NqwZ8+eXHfddTjnAowjkv/Ky8s9tauoqGD06NF+hj7POTfcTweSH1QACIDnHwaTJk2iXz/tMiqSqtLSUoqKijy1nThxot/hVQCICgABYJjXhuPH67BAES+cc573yCgrK/M8g3Cc5/e85A8VAAXOJebuh3ps63cqUqSg+dkka+hQT2/bE1QAiAoAYRDg6adQnz59PE9higi+3j+9e/f2M7QKAFEBIN5/EHh5illEPuVnBsDnckAVAKICQPD8U0S//YuEx+f7T/t0iwoAERGRQqQCQEREpACpABARESlAKgBEREQKkAoAERGRAqQCQEREpACpABARESlAKgBEREQKkAoAERGRAqQCQEREpACpABARESlAKgBEREQKUHHYASR3NTY2snLlyrBjiOSs1tZWYrGYp7ZNTU0Bp5FCowJAPGtubmb16tVhxxAREQ90C0As7AAiknF634sKAKE57AAiknGNYQeQ8KkAkL1hBxCRjIuGHUDCpwKgwJnZYaAh7BwiklE1YQeQ8KkAEIDXwg4gIhnTCWj5jqgAEABeDjuAiGTMKjP7JOwQEj5npodBC51zzgG/A2aGnUVE0qoDuMzM3g07iIRPMwCCJarAm4GWsLOISFr9SBd/OUEzANLFOfe3wGNh5xCRtNgITDWz9rCDSHZQASBdjt8KWA7MCjuLiAQqRmLqf1PYQSR76BaAdDl+K2AucD+Je4UikvvWAJN08ZfP0gyAnJZzrhL4L2Bi2FlExJOjwD3Aw2YWDzuMZB8VAHJGzrmewN8BNwCVIccRkeQcILG3x0Nmtj3sMJK9/h9S5z2vkbG4WAAAAABJRU5ErkJggg==;" vertex="1" parent="1">
          <mxGeometry x="460" y="350" width="180" height="180" as="geometry" />
        </mxCell>
        <mxCell id="BahWNx85lN9U7c0tWjsk-6" value="" style="html=1;shadow=0;dashed=0;align=center;verticalAlign=middle;shape=mxgraph.arrows2.bendArrow;dy=15;dx=38;notch=0;arrowHead=55;rounded=1;fillColor=#e1d5e7;strokeColor=#9673a6;" vertex="1" parent="1">
          <mxGeometry x="130" y="160" width="100" height="100" as="geometry" />
        </mxCell>
        <mxCell id="BahWNx85lN9U7c0tWjsk-7" value="" style="html=1;shadow=0;dashed=0;align=center;verticalAlign=middle;shape=mxgraph.arrows2.bendArrow;dy=15;dx=38;notch=0;arrowHead=55;rounded=1;direction=south;fillColor=#e1d5e7;strokeColor=#9673a6;" vertex="1" parent="1">
          <mxGeometry x="500" y="160" width="100" height="100" as="geometry" />
        </mxCell>
        <mxCell id="BahWNx85lN9U7c0tWjsk-10" value="" style="html=1;shadow=0;dashed=0;align=center;verticalAlign=middle;shape=mxgraph.arrows2.arrow;dy=0.6;dx=40;flipH=1;notch=0;fillColor=#e1d5e7;strokeColor=#9673a6;" vertex="1" parent="1">
          <mxGeometry x="280" y="420" width="130" height="70" as="geometry" />
        </mxCell>
        <mxCell id="BahWNx85lN9U7c0tWjsk-11" value="&lt;font data-font-src=&quot;https://fonts.googleapis.com/css?family=Roboto&quot; style=&quot;font-size: 24px;&quot; face=&quot;Roboto&quot;&gt;Read&lt;/font&gt;" style="text;html=1;strokeColor=none;fillColor=none;align=center;verticalAlign=middle;whiteSpace=wrap;rounded=0;" vertex="1" parent="1">
          <mxGeometry x="330" y="280" width="60" height="30" as="geometry" />
        </mxCell>
        <mxCell id="BahWNx85lN9U7c0tWjsk-12" value="&lt;font data-font-src=&quot;https://fonts.googleapis.com/css?family=Roboto&quot; style=&quot;font-size: 24px;&quot; face=&quot;Roboto&quot;&gt;Implement&lt;/font&gt;" style="text;html=1;strokeColor=none;fillColor=none;align=center;verticalAlign=middle;whiteSpace=wrap;rounded=0;" vertex="1" parent="1">
          <mxGeometry x="505" y="540" width="90" height="30" as="geometry" />
        </mxCell>
        <mxCell id="BahWNx85lN9U7c0tWjsk-13" value="&lt;font data-font-src=&quot;https://fonts.googleapis.com/css?family=Roboto&quot; style=&quot;font-size: 24px;&quot; face=&quot;Roboto&quot;&gt;Visualize&lt;/font&gt;" style="text;html=1;strokeColor=none;fillColor=none;align=center;verticalAlign=middle;whiteSpace=wrap;rounded=0;" vertex="1" parent="1">
          <mxGeometry x="125" y="540" width="70" height="30" as="geometry" />
        </mxCell>
      </root>
    </mxGraphModel>
  </diagram>
</mxfile>
